# vtk DataFile Version 3.0
vtk output
ASCII
DATASET UNSTRUCTURED_GRID
POINTS 779 float
3.79956 -35.302 -2.22378 3.82407 -35.2698 -2.29504 3.85471 -35.3337 -2.17033 
3.78322 -35.3296 -2.11041 3.72194 -35.2534 -2.28047 3.89556 -35.3414 -2.20273 
3.85675 -35.3505 -2.05858 3.73624 -35.1895 -2.34363 3.86697 -35.2358 -2.33229 
3.93029 -35.3859 -2.04401 3.71172 -35.3129 -2.18329 3.81998 -35.3614 -1.89986 
3.64023 -35.2031 -2.33715 3.76279 -35.1301 -2.37278 3.9548 -35.3473 -2.23512 
3.74849 -35.3383 -1.96303 3.6484 -35.1192 -2.38412 3.66474 -35.0498 -2.3987 
3.88535 -35.1963 -2.29828 3.98135 -35.3011 -2.21568 3.9977 -35.4131 -2.05858 
3.67904 -35.3423 -2.04887 3.64023 -35.2915 -2.26103 3.89352 -35.4099 -1.86423 
3.66883 -35.3582 -1.82212 3.55853 -35.1636 -2.39708 3.773 -35.1002 -2.32743 
4.03038 -35.3686 -2.04725 3.61572 -35.3573 -2.14766 3.60959 -35.3596 -1.92416 
3.79547 -35.4485 -1.69256 3.73011 -35.3881 -1.74438 3.581 -34.9822 -2.43919 
3.5667 -35.0639 -2.43433 3.65862 -35.0267 -2.34849 3.93029 -35.2693 -2.18005 
3.84858 -35.2058 -2.24969 3.97114 -35.3147 -2.03105 3.9977 -35.4213 -1.84156 
3.96297 -35.4589 -1.86099 3.56261 -35.2711 -2.33877 3.58508 -35.4249 -1.62777 
3.53606 -35.3863 -1.72333 3.7056 -35.5219 -1.46419 3.6627 -35.4308 -1.50468 
3.59121 -35.3523 -1.59052 3.52993 -35.3047 -1.70713 3.47886 -35.3061 -1.84318 
3.42371 -35.3315 -1.98084 3.51767 -35.3097 -2.04401 3.581 -35.2834 -2.13146 
3.60755 -35.2308 -2.21568 3.61776 -35.1564 -2.27237 3.63615 -35.0816 -2.31124 
3.51767 -34.94 -2.50397 3.47478 -34.9228 -2.57037 3.45052 -34.9098 -2.64587 
3.48908 -35.1401 -2.46186 3.74645 -35.1387 -2.27885 3.93642 -35.3446 -1.83994 
3.54627 -35.3886 -2.03753 3.54423 -35.3705 -2.25455 3.85471 -35.5156 -1.6634 
3.64227 -35.4907 -1.55813 3.49316 -35.3886 -1.83994 3.43597 -35.4575 -1.42532 
3.88535 -35.4825 -1.63101 3.74645 -35.3138 -1.71523 3.66474 -35.2757 -1.81079 
3.58916 -35.2779 -1.92578 3.70151 -35.2367 -2.15252 3.50337 -35.0312 -2.49587 
3.45844 -35.0199 -2.56228 3.42984 -35.0176 -2.63192 3.40328 -34.8915 -2.62058 
3.42984 -34.9038 -2.54446 3.4809 -34.9219 -2.46672 3.55648 -34.9641 -2.39384 
3.51563 -35.1314 -2.33391 3.51359 -35.2299 -2.28694 3.44005 -35.3528 -2.16386 
3.3032 -35.341 -1.95493 3.36447 -35.3228 -1.66664 3.87922 -35.2566 -2.1509 
3.72194 -35.19 -2.22864 3.8445 -35.2838 -1.88529 3.83224 -35.3886 -1.65045 
3.44005 -35.4122 -1.96951 3.47273 -35.429 -2.16386 3.49316 -35.2575 -2.41813 
3.47682 -35.3755 -2.35983 3.36652 -35.4049 -1.68122 3.42984 -35.5192 -1.48039 
3.45844 -35.5419 -1.36378 3.6627 -35.2607 -2.04077 3.41146 -35.0149 -2.70966 
3.4198 -34.9791 -2.70966 3.39889 -34.8888 -2.6419 3.52993 -35.0348 -2.36631 
3.4952 -35.3088 -2.22702 3.35426 -35.3709 -2.12013 3.33588 -35.3242 -1.80917 
3.25213 -35.3709 -2.10069 3.3992 -35.3723 -1.53384 3.4421 -35.1328 -2.53312 
3.81386 -35.2281 -2.19139 3.88331 -35.272 -2.04887 3.68721 -35.5564 -1.50306 
3.39716 -35.4448 -1.57432 3.3032 -35.4235 -1.93873 3.33996 -35.4072 -1.80431 
3.17246 -35.4535 -1.43018 3.75054 -35.2553 -1.95493 3.79343 -35.248 -2.09583 
3.40941 -35.1355 -2.61248 3.39103 -35.1382 -2.69832 3.38899 -34.9954 -2.5234 
3.35426 -34.9954 -2.60762 3.44618 -35.0054 -2.44081 3.42984 -35.1183 -2.40841 
3.41554 -35.3274 -2.32905 3.28277 -35.4104 -2.25617 3.17451 -35.3247 -1.96141 
3.17655 -35.3097 -1.81888 3.16838 -35.37 -1.54355 3.36856 -35.4516 -2.10393 
3.42575 -35.3777 -2.46348 3.44005 -35.2525 -2.50073 3.40328 -35.4603 -2.29342 
3.17246 -35.443 -1.58242 3.45231 -35.58 -1.40265 3.25009 -35.4516 -2.07802 
3.17042 -35.3922 -1.81564 3.17246 -35.5337 -1.36054 3.38082 -35.1337 -2.79226 
3.33179 -34.9936 -2.69508 3.42984 -35.2312 -2.37116 3.36243 -35.3881 -2.28856 
3.15204 -35.3555 -2.10231 3.17042 -35.3183 -1.67798 3.29502 -35.4907 -2.2416 
3.17042 -35.3995 -1.69417 3.17655 -35.5179 -1.48201 3.16225 -35.4054 -1.94521 
2.89671 -35.4208 -1.51116 3.40737 -35.2553 -2.58981 3.38899 -35.2589 -2.6886 
3.39857 -35.0291 -2.77848 3.3706 -35.1169 -2.49587 3.33179 -35.1242 -2.58819 
3.30932 -35.1296 -2.68536 3.34774 -34.9585 -2.70477 3.3563 -35.3405 -2.43919 
3.19289 -35.4063 -2.23836 3.22762 -35.4417 -2.38574 3.02539 -35.2852 -1.86261 
3.10506 -35.3891 -2.23026 3.06216 -35.336 -2.11203 2.9825 -35.2974 -1.73304 
3.35426 -35.4807 -2.41813 3.39103 -35.3827 -2.56875 3.24192 -35.5224 -2.3744 
2.9825 -35.3782 -1.74924 3.17451 -35.5741 -1.39779 2.91509 -35.4861 -1.55975 
3.1357 -35.434 -2.07802 3.01722 -35.3677 -1.86099 2.86607 -35.5043 -1.44638 
2.93756 -35.3451 -1.61158 3.37673 -35.2571 -2.79388 3.38142 -35.0923 -2.8604 
3.29707 -35.1265 -2.78254 3.36856 -35.2367 -2.4651 3.30728 -35.4131 -2.41165 
3.05808 -35.3033 -1.99218 3.02131 -35.3632 -2.22054 3.18881 -35.4857 -2.21568 
2.94777 -35.419 -1.64883 3.04174 -35.4131 -2.08773 3.08872 -35.4662 -2.20435 
3.04378 -35.3832 -1.97598 2.68223 -35.4067 -1.63911 3.3706 -35.3886 -2.68051 
3.35426 -35.3886 -2.79874 3.32975 -35.2448 -2.56713 3.31554 -35.0135 -2.78254 
3.31566 -35.0131 -2.78211 3.30728 -35.2512 -2.67565 3.31749 -35.3514 -2.55256 
3.13978 -35.4376 -2.36469 3.04991 -35.4163 -2.34849 3.18676 -35.4648 -2.51207 
2.90079 -35.2725 -1.93226 2.99475 -35.3201 -2.11689 2.8293 -35.2834 -1.8205 
3.2031 -35.5451 -2.50559 3.32158 -35.4952 -2.5396 3.13366 -35.5179 -2.34525 
2.83543 -35.3641 -1.8367 2.89466 -35.355 -1.93064 2.87832 -35.5455 -1.48039 
2.71491 -35.4707 -1.68122 2.99884 -35.4389 -2.19301 2.63116 -35.4947 -1.58728 
2.75372 -35.3301 -1.72009 3.342 -35.3813 -2.91696 3.3706 -35.2485 -2.90077 
3.29094 -35.116 -2.88133 3.29502 -35.2494 -2.78578 3.26847 -35.4308 -2.53312 
2.96003 -35.2925 -2.04077 2.96003 -35.3813 -2.32581 2.94573 -35.3292 -2.18653 
3.03152 -35.4934 -2.3242 2.77619 -35.4036 -1.75248 2.97637 -35.3972 -2.09421 
2.94573 -35.3727 -2.02457 2.52903 -35.4027 -1.79135 3.29502 -35.5043 -2.66431 
3.27256 -35.5052 -2.79388 3.29298 -35.3587 -2.66917 3.29881 -35.0756 -2.86203 
3.27868 -35.3578 -2.7874 3.09484 -35.4616 -2.48939 2.99884 -35.4362 -2.46672 
3.15612 -35.4775 -2.64002 2.79253 -35.2671 -2.02457 2.87424 -35.3364 -2.28209 
2.8722 -35.2902 -2.11527 2.7047 -35.277 -1.93226 3.08667 -35.5428 -2.47482 
3.17246 -35.5582 -2.6384 2.97841 -35.5142 -2.44728 2.7864 -35.3496 -2.02295 
2.71695 -35.3578 -1.94683 2.65567 -35.5351 -1.61643 2.57193 -35.4653 -1.82698 
2.92326 -35.4054 -2.16386 2.93552 -35.4566 -2.30152 2.47184 -35.4911 -1.7541 
2.61482 -35.3242 -1.85289 3.25417 -35.4961 -2.92182 3.33179 -35.3673 -3.03196 
3.36447 -35.2344 -3.00604 3.37031 -35.1321 -2.97393 3.28685 -35.2394 -2.89429 
3.26643 -35.3482 -2.90563 3.24192 -35.4403 -2.65783 2.90284 -35.394 -2.43757 
2.64342 -35.3968 -1.88043 2.85585 -35.37 -2.10069 2.84973 -35.4122 -2.25941 
2.41464 -35.3999 -1.95655 3.14591 -35.561 -2.77444 3.22149 -35.4408 -2.78416 
3.05603 -35.4757 -2.61734 2.78845 -35.2906 -2.21568 2.84973 -35.4027 -2.55742 
2.80683 -35.3419 -2.39222 2.60052 -35.2734 -2.06344 3.04786 -35.5578 -2.60762 
2.87424 -35.4693 -2.41651 2.61482 -35.3541 -2.07478 2.50248 -35.5301 -1.78001 
2.46367 -35.4603 -1.9857 2.76802 -35.37 -2.19949 2.35949 -35.4879 -1.93226 
2.50452 -35.3201 -2.00028 3.12344 -35.5532 -2.90725 3.23987 -35.4793 -3.04491 
3.32566 -35.3478 -3.14695 3.36243 -35.2167 -3.11132 3.28277 -35.224 -3.00118 
3.28839 -35.1164 -2.97751 3.25826 -35.3319 -3.02224 3.2031 -35.4317 -2.90887 
3.02335 -35.4802 -2.74691 2.9539 -35.4485 -2.58981 3.12753 -35.4802 -2.76958 
2.69653 -35.2648 -2.13794 2.71287 -35.2925 -2.33229 2.93143 -35.5269 -2.57685 
3.01518 -35.5628 -2.74367 2.81909 -35.478 -2.54122 2.6904 -35.3478 -2.1347 
2.53924 -35.3918 -2.02457 2.77823 -35.4172 -2.37278 2.32477 -35.3968 -2.12823 
2.4126 -35.3165 -2.159 3.10506 -35.5365 -3.03844 3.37095 -35.0991 -3.16534 
3.36849 -35.1274 -3.08801 2.91509 -35.4535 -2.71614 2.74759 -35.3455 -2.51369 
2.61278 -35.2639 -2.26751 2.60665 -35.346 -2.26427 2.45141 -35.3872 -2.18005 
2.39421 -35.5247 -1.95331 2.68836 -35.3709 -2.31934 2.2737 -35.4852 -2.11203 
2.98658 -35.5578 -2.87972 3.22762 -35.4566 -3.16638 3.31954 -35.3242 -3.26032 
3.36243 -35.1954 -3.21821 3.37095 -35.0991 -3.16538 3.28072 -35.2036 -3.10808 
3.28567 -35.1117 -3.07986 3.25213 -35.3106 -3.13561 3.19085 -35.4145 -3.03034 
3.10506 -35.473 -2.89915 2.80683 -35.4054 -2.68213 2.69857 -35.3451 -2.64163 
2.6475 -35.2925 -2.46186 2.51269 -35.2707 -2.20596 2.89058 -35.5324 -2.70966 
2.71491 -35.4199 -2.49911 2.52699 -35.351 -2.2173 2.37992 -35.4544 -2.15414 
2.25327 -35.394 -2.30314 2.8579 -35.5292 -2.84246 2.96616 -35.5437 -3.01252 
3.0928 -35.5124 -3.16476 3.28783 -35.0833 -3.16862 3.08872 -35.4566 -3.02386 
2.88445 -35.4503 -2.84408 2.9968 -35.4757 -2.87486 2.54333 -35.2612 -2.40841 
2.43915 -35.2661 -2.35983 2.7721 -35.4807 -2.67079 2.66384 -35.419 -2.6303 
2.53516 -35.3432 -2.40679 2.45549 -35.3469 -2.36954 2.31251 -35.5197 -2.12984 
2.31251 -35.4489 -2.32581 2.62095 -35.3705 -2.45052 2.33906 -35.3124 -2.3242 
2.20629 -35.4834 -2.29504 2.9539 -35.5224 -3.14371 3.08667 -35.4834 -3.28947 
3.21945 -35.4285 -3.28623 3.31954 -35.2965 -3.37693 3.36652 -35.17 -3.32672 
3.28072 -35.18 -3.21659 3.24804 -35.2843 -3.2506 3.18064 -35.3913 -3.15019 
2.77006 -35.4022 -2.80845 2.5944 -35.2888 -2.59791 2.37992 -35.3818 -2.34201 
2.27778 -35.307 -2.49263 2.19608 -35.3909 -2.47968 2.83338 -35.5183 -2.97851 
3.39103 -35.0172 -3.37369 3.37898 -35.0491 -3.27432 3.07646 -35.4335 -3.14695 
2.97433 -35.4621 -3.0028 2.74351 -35.3922 -2.93802 2.65976 -35.3401 -2.77282 
2.54946 -35.2816 -2.73881 2.48613 -35.2553 -2.5558 2.37787 -35.2593 -2.51855 
2.73534 -35.4775 -2.80521 2.56376 -35.3664 -2.59143 2.39421 -35.3396 -2.52826 
2.24919 -35.5156 -2.30962 2.32272 -35.3745 -2.50883 2.15318 -35.4816 -2.47806 
2.70674 -35.4675 -2.93964 2.81909 -35.5002 -3.11132 2.94777 -35.4956 -3.27166 
3.21536 -35.3959 -3.4077 3.37469 -35.1378 -3.44009 3.28685 -35.1514 -3.32672 
3.24804 -35.2539 -3.36559 3.17246 -35.3628 -3.26842 3.06829 -35.4049 -3.26842 
2.96003 -35.4412 -3.12913 2.8579 -35.4389 -2.97203 2.62095 -35.4135 -2.76796 
2.51882 -35.3587 -2.73557 2.47592 -35.3374 -2.5558 2.25736 -35.4421 -2.49911 
2.22672 -35.3002 -2.66431 2.1491 -35.3868 -2.65945 2.81092 -35.4766 -3.2425 
3.08463 -35.4494 -3.41256 3.21332 -35.3564 -3.53403 3.32158 -35.2616 -3.4984 
3.39512 -34.9931 -3.35855 3.38694 -35.097 -3.55346 3.29765 -35.0342 -3.27659 
3.17042 -35.3296 -3.38827 3.06625 -35.3718 -3.38989 2.95186 -35.3845 -3.37693 
2.83543 -35.3714 -3.35425 2.719 -35.3337 -3.32672 2.70097 -35.3248 -3.32468 
2.62912 -35.3301 -2.90725 2.84156 -35.4213 -3.1016 2.43915 -35.2462 -2.70804 
2.42894 -35.3283 -2.70966 2.2737 -35.3659 -2.67889 2.19812 -35.5111 -2.49101 
2.32681 -35.2503 -2.68051 2.11029 -35.4793 -2.66107 2.68836 -35.4516 -3.07569 
2.94982 -35.4643 -3.39798 3.08667 -35.4086 -3.54051 3.40737 -34.9741 -3.46924 
3.40337 -34.967 -3.39374 3.30932 -35.0017 -3.37855 3.29502 -35.1156 -3.44009 
3.17042 -35.2902 -3.51136 3.06625 -35.3328 -3.51459 2.95594 -35.3487 -3.50164 
2.84564 -35.3401 -3.47734 2.83338 -35.3981 -3.22793 2.95186 -35.4149 -3.25384 
2.60869 -35.3156 -3.04329 2.72512 -35.3768 -3.06921 2.51677 -35.2707 -2.88295 
2.40239 -35.2339 -2.8619 2.59031 -35.4031 -2.90725 2.34519 -35.3301 -2.69022 
2.21446 -35.4349 -2.67565 2.288 -35.2394 -2.8457 2.11233 -35.3818 -2.84084 
2.56988 -35.3886 -3.04815 2.68223 -35.4312 -3.21011 2.815 -35.4494 -3.37369 
3.21332 -35.3047 -3.66845 3.32362 -35.2172 -3.62473 3.4278 -34.8657 -3.38179 
3.40941 -34.9092 -3.30567 3.40971 -34.9337 -3.379 3.43188 -34.9296 -3.55508 
3.31369 -34.9765 -3.36333 3.25213 -35.2163 -3.48544 2.73125 -35.3079 -3.45143 
2.71695 -35.3569 -3.19877 2.48613 -35.3473 -2.88457 2.39217 -35.316 -2.86676 
2.30842 -35.3188 -2.85542 2.15727 -35.5061 -2.67241 2.17974 -35.4272 -2.8538 
2.18791 -35.292 -2.83922 2.07761 -35.4761 -2.8457 2.62999 -35.42 -3.06662 
2.68631 -35.4081 -3.34292 2.95594 -35.4276 -3.52755 3.08872 -35.3555 -3.67979 
3.32975 -35.1627 -3.75267 3.45639 -34.8185 -3.45629 3.45231 -34.7763 -3.31053 
3.40026 -34.963 -3.33954 3.40533 -35.0539 -3.66036 3.32194 -34.9513 -3.3973 
3.32814 -34.918 -3.38257 3.31898 -34.946 -3.34486 3.32975 -34.8838 -3.30729 
3.32771 -34.9532 -3.47572 3.30932 -35.0693 -3.55185 3.25826 -35.1691 -3.61015 
3.17042 -35.2394 -3.64254 2.96207 -35.302 -3.63282 2.74964 -35.2788 -3.56804 
2.49635 -35.2562 -3.02872 2.23897 -35.3559 -2.85218 2.26144 -35.2271 -3.01414 
2.16135 -35.2834 -3.01738 2.05718 -35.4725 -3.03196 2.66337 -35.4216 -3.20676 
2.82726 -35.4176 -3.50164 2.96412 -35.3786 -3.66522 3.21536 -35.2353 -3.8126 
3.4809 -34.7278 -3.38503 3.43188 -34.818 -3.24574 3.39716 -34.9432 -3.22307 
3.46865 -34.8983 -3.63606 3.31749 -34.9201 -3.22469 3.35018 -34.8366 -3.38827 
3.06829 -35.2816 -3.64902 2.8579 -35.3015 -3.60205 2.71748 -35.2648 -3.5651 
2.66278 -35.3428 -3.06605 2.48613 -35.2389 -3.17448 2.37787 -35.2194 -3.019 
2.46367 -35.3324 -3.03358 2.28595 -35.3056 -3.02386 2.12663 -35.5011 -2.8538 
2.21446 -35.3455 -3.02548 2.08782 -35.3764 -3.02548 2.63831 -35.424 -3.07218 
2.67387 -35.402 -3.34139 2.70061 -35.3818 -3.47248 3.09076 -35.2788 -3.83365 
3.34609 -35.1083 -3.8871 3.43392 -35.0185 -3.76725 3.49725 -34.7831 -3.52755 
3.40124 -34.7527 -3.31215 3.38082 -34.7963 -3.24574 3.38461 -35.0163 -3.25844 
3.35426 -34.8997 -3.56966 3.30343 -35.001 -3.26149 3.38286 -34.7822 -3.46924 
3.27051 -35.1088 -3.73648 3.17655 -35.1691 -3.78183 3.07033 -35.2072 -3.7964 
2.86402 -35.243 -3.73972 2.71037 -35.298 -3.44962 2.69017 -35.3433 -3.1943 
2.67128 -35.3452 -3.08481 2.60052 -35.2979 -3.17934 2.45549 -35.3156 -3.18258 
2.3697 -35.3015 -3.02548 2.10824 -35.4961 -3.03681 2.15931 -35.4194 -3.03358 
2.1491 -35.2752 -3.19715 2.36766 -35.204 -3.1761 2.07965 -35.3718 -3.21173 
2.72104 -35.3519 -3.59395 2.84156 -35.3773 -3.6312 2.9682 -35.3052 -3.8207 
3.09484 -35.1886 -3.99399 3.22557 -35.1587 -3.96322 3.5238 -34.6901 -3.46439 
3.43392 -34.7001 -3.3915 3.36652 -34.8303 -3.17772 3.41963 -34.8512 -3.17934 
3.39103 -34.9691 -3.13885 3.48908 -35.0045 -3.879 3.55036 -34.7718 -3.59233 
3.32975 -35.0167 -3.6636 3.43554 -34.9004 -2.72664 3.42575 -34.8979 -2.79388 
3.41554 -34.8992 -2.8781 3.40941 -34.8988 -2.95745 3.40737 -34.892 -3.03519 
3.41146 -34.8761 -3.10808 2.96616 -35.2312 -3.78183 2.76598 -35.238 -3.68627 
2.68435 -35.3743 -3.47067 2.60461 -35.277 -3.31377 2.56376 -35.3709 -3.18906 
2.35949 -35.2861 -3.1842 2.20425 -35.336 -3.20039 2.24919 -35.2149 -3.1842 
2.05105 -35.4693 -3.22145 2.84973 -35.3165 -3.77535 3.38694 -35.0716 -4.028 
3.57895 -34.6888 -3.54537 3.37577 -35.0575 -3.16977 3.5238 -34.8879 -3.71218 
3.40328 -34.8539 -3.66198 3.42119 -34.9352 -2.76697 3.39307 -35.0045 -2.8781 
3.38899 -34.9976 -2.96555 3.38694 -34.9868 -3.05301 3.30932 -34.9473 -3.13723 
3.35835 -34.8561 -3.10646 3.3563 -34.872 -3.03196 3.3563 -34.8793 -2.95422 
3.36447 -34.8793 -2.87324 3.37469 -34.8779 -2.7874 3.43392 -34.7369 -3.55508 
3.3706 -34.9654 -3.77859 3.29911 -35.0425 -3.87576 3.0785 -35.1151 -3.95998 
2.96412 -35.1382 -3.94541 2.75781 -35.1741 -3.81584 2.69047 -35.3389 -3.59081 
2.61879 -35.3995 -3.19348 2.64892 -35.3224 -3.18742 2.3697 -35.1863 -3.33158 
2.48818 -35.219 -3.317 2.56784 -35.3501 -3.32834 2.27574 -35.2925 -3.19068 
2.15114 -35.4131 -3.21335 2.25123 -35.2022 -3.35263 2.08986 -35.3673 -3.40122 
2.10212 -35.4916 -3.22145 2.96616 -35.2122 -3.98266 3.25009 -35.1002 -4.12032 
3.48295 -34.6575 -3.4822 3.37575 -35.0576 -3.16953 3.59938 -35.0299 -3.99399 
3.60959 -34.8983 -3.77373 3.60142 -34.7936 -3.65064 3.41174 -34.9599 -2.7891 
3.39639 -35.0058 -2.83602 3.29275 -35.043 -3.17008 3.38427 -34.8807 -2.71902 
3.19289 -35.0865 -3.93569 2.85381 -35.1591 -3.89358 2.72047 -35.235 -3.64178 
2.68631 -35.1759 -3.75753 2.65254 -35.3008 -3.31919 2.15523 -35.2675 -3.37693 
2.06331 -35.4662 -3.41418 2.09803 -35.4634 -3.60853 2.15523 -35.4607 -3.8045 
2.23897 -35.4575 -4.00047 2.35132 -35.4539 -4.18672 2.49635 -35.4498 -4.36488 
2.68019 -35.4471 -4.52036 2.89875 -35.4453 -4.62887 3.14182 -35.4453 -4.67584 
2.36562 -35.2684 -3.3413 2.45958 -35.2961 -3.32996 2.28187 -35.2788 -3.35587 
2.16135 -35.4067 -3.39474 2.73942 -35.3101 -3.71704 2.8436 -35.233 -3.92921 
2.95594 -35.1364 -4.13814 3.10302 -35.1169 -4.15433 3.29298 -35.0943 -4.2677 
3.55036 -34.6516 -3.57614 3.37092 -35.093 -3.09188 3.45435 -35.0761 -4.16729 
3.63819 -34.7505 -3.64092 3.50746 -34.7165 -3.63768 3.45231 -34.9342 -3.90168 
3.38734 -35.0415 -2.88062 3.37523 -35.0853 -2.97027 3.30728 -34.9659 -3.04977 
3.30728 -34.9768 -2.96069 3.31136 -34.9836 -2.87162 3.3395 -34.9469 -2.79311 
3.36039 -34.9936 -4.02962 3.2317 -35.0194 -4.10898 2.95186 -35.0571 -4.11546 
2.7047 -35.107 -3.94379 2.6994 -35.2058 -3.69802 2.61891 -35.2548 -3.44171 
2.50452 -35.1981 -3.45467 2.27166 -35.1881 -3.51783 2.1205 -35.3623 -3.59071 
2.17565 -35.3564 -3.78183 2.25531 -35.3491 -3.97294 2.36153 -35.3414 -4.15757 
2.50656 -35.3328 -4.33573 2.68631 -35.326 -4.48959 2.90079 -35.3233 -4.5981 
3.14182 -35.3233 -4.64183 2.91509 -35.4648 -4.58028 2.70878 -35.4657 -4.47663 
2.53516 -35.468 -4.32763 2.39421 -35.4721 -4.15757 2.288 -35.4761 -3.9778 
2.20629 -35.4802 -3.78668 2.1491 -35.4838 -3.59719 2.11437 -35.4875 -3.40932 
2.58418 -35.3278 -3.45953 2.62719 -35.3791 -3.33564 2.21242 -35.326 -3.37531 
2.73534 -35.2471 -3.84823 3.50133 -35.1265 -4.28876 3.68313 -34.8861 -3.78992 
3.48295 -34.8294 -3.75267 3.2882 -35.0772 -3.0955 3.31466 -34.9858 -2.83568 
3.35797 -34.9182 -2.76588 3.0928 -35.0371 -4.13652 2.81909 -35.0816 -4.04744 
2.62095 -35.1314 -3.82394 2.38605 -35.1677 -3.4822 2.17974 -35.2584 -3.5567 
3.38286 -35.3179 -4.61268 3.14387 -35.4653 -4.62401 2.47796 -35.2752 -3.47086 
2.30434 -35.2634 -3.51945 2.19404 -35.3995 -3.57614 2.6618 -35.2494 -3.78668 
2.69653 -35.1859 -3.96808 2.81704 -35.1605 -4.07173 2.94573 -35.116 -4.27256 
3.11731 -35.1033 -4.30009 3.32975 -35.1464 -4.38755 3.62389 -34.711 -3.67655 
3.6341 -35.106 -4.15595 3.71172 -35.0181 -3.95998 3.57691 -34.7346 -3.70409 
3.59529 -34.833 -3.82232 3.60142 -34.955 -4.02962 3.29372 -35.0701 -2.97384 
3.30562 -35.0208 -2.87435 3.29094 -35.0135 -4.2839 2.93348 -35.0344 -4.28066 
2.53312 -35.1047 -3.91949 2.56784 -35.1555 -3.70409 2.6903 -35.2137 -3.66967 
2.63525 -35.0797 -4.06687 2.53107 -35.1773 -3.58424 2.30842 -35.1732 -3.68303 
2.22672 -35.2485 -3.73648 2.29821 -35.2367 -3.91625 2.39626 -35.2231 -4.09765 
2.53107 -35.2095 -4.27256 2.70266 -35.1977 -4.42318 2.90896 -35.1918 -4.52684 
3.13774 -35.1904 -4.56895 3.39103 -35.4385 -4.64507 2.9253 -35.3578 -4.52684 
3.14387 -35.3587 -4.56733 2.72921 -35.3591 -4.42804 2.56171 -35.3655 -4.2839 
2.4269 -35.3745 -4.11708 2.32272 -35.3836 -3.94055 2.24714 -35.3922 -3.75753 
2.38605 -35.2498 -3.49192 2.5086 -35.2548 -3.60205 2.6369 -35.354 -3.45886 
2.24102 -35.3147 -3.5486 2.67283 -35.2895 -3.70054 3.35018 -35.2367 -4.47663 
3.73215 -35.1002 -4.08307 3.62389 -35.175 -4.26285 3.68108 -34.8421 -3.82394 
3.45639 -34.9967 -4.18996 3.11118 -35.0217 -4.31305 2.7721 -35.0548 -4.19482 
2.46367 -35.1274 -3.77211 2.66997 -35.2072 -3.66522 2.64138 -35.2798 -3.69275 
2.66222 -35.2753 -3.44546 2.64342 -35.2326 -3.55832 2.41668 -35.1482 -3.62797 
3.36652 -35.1859 -4.53817 3.55853 -35.277 -4.51388 3.37673 -35.4594 -4.59486 
3.36243 -35.3541 -4.53979 2.61074 -35.3052 -3.58262 2.34519 -35.2471 -3.67817 
2.60461 -35.2095 -3.84661 2.64955 -35.1614 -4.07011 2.78436 -35.1364 -4.19158 
2.93552 -35.1564 -4.38107 3.12957 -35.1509 -4.41671 3.51154 -35.2049 -4.38269 
3.72194 -34.9704 -3.9859 3.52176 -35.058 -4.32925 3.33996 -35.0779 -4.43128 
2.91918 -35.0875 -4.42318 2.57397 -35.1178 -4.18025 2.45345 -35.1373 -4.01505 
2.72921 -35.0992 -4.32439 2.36766 -35.1564 -3.84823 3.12753 -35.082 -4.46205 
3.54627 -35.1537 -4.43776 3.581 -35.3881 -4.53655 2.93143 -35.2412 -4.46529 
2.74351 -35.2466 -4.36974 3.13978 -35.2407 -4.50416 2.58214 -35.2584 -4.22883 
2.45345 -35.2729 -4.06363 2.35745 -35.2884 -3.89358 2.288 -35.3024 -3.72028 
2.42077 -35.2303 -3.63768 2.54333 -35.1863 -3.92597 2.54946 -35.233 -3.72514 
3.7199 -35.1791 -4.19482 3.60551 -35.2621 -4.34706 3.75462 -35.0571 -4.10898 
3.66474 -35.0394 -4.19644 3.65453 -35.2231 -4.40375 3.5524 -35.4104 -4.49283 
3.51972 -35.3142 -4.45072 2.40647 -35.2285 -3.83851 2.46979 -35.2095 -3.78183 
2.61074 -35.1872 -4.15595 2.75985 -35.1686 -4.29038 3.66883 -35.1251 -4.31305 
2.64789 -35.3209 -3.58643 2.67323 -35.2456 -3.56105 3.70355 -35.2761 -4.3746 
2.49226 -35.2081 -3.99885 3.75054 -35.1455 -4.22721 3.67087 -35.302 -4.33735 
3.41758 -34.9199 -3.42552 3.0962 -35.4053 -3.32386 

CELLS 2123 10615
4 635 596 578 711
4 642 666 751 729
4 642 749 698 641
4 447 438 427 415
4 673 611 567 592
4 419 486 417 439
4 383 447 415 393
4 682 714 584 762
4 428 437 393 414
4 635 707 636 755
4 649 670 707 598
4 258 298 293 286
4 347 296 287 317
4 739 682 617 762
4 338 373 384 778
4 357 358 398 399
4 596 578 711 653
4 463 414 448 413
4 438 492 427 470
4 196 182 247 160
4 648 706 647 600
4 40 28 99 61
4 347 318 364 333
4 366 350 397 376
4 496 531 477 564
4 265 233 279 284
4 468 487 444 489
4 633 664 708 572
4 612 611 567 673
4 66 86 23 30
4 515 490 489 544
4 500 457 502 476
4 195 209 159 196
4 592 672 568 630
4 754 638 694 753
4 522 494 473 505
4 662 686 629 734
4 751 642 729 702
4 89 126 152 127
4 757 663 720 732
4 206 272 246 245
4 160 188 127 145
4 692 755 665 693
4 491 418 510 483
4 91 101 64 110
4 607 633 632 668
4 296 313 327 288
4 415 393 368 383
4 351 410 341 371
4 369 373 372 390
4 492 447 438 427
4 649 599 707 648
4 368 393 392 405
4 556 560 624 555
4 464 519 569 593
4 471 464 414 481
4 299 318 333 336
4 283 315 286 257
4 218 183 254 247
4 202 211 175 190
4 652 574 571 595
4 492 437 447 540
4 600 706 637 599
4 104 184 149 114
4 729 605 667 702
4 574 511 571 541
4 216 192 174 210
4 541 632 607 573
4 509 491 404 510
4 544 578 576 518
4 733 769 690 734
4 672 671 654 663
4 706 648 707 599
4 574 632 595 651
4 485 543 467 517
4 358 362 398 399
4 669 577 596 608
4 516 467 575 545
4 149 104 72 148
4 290 322 342 305
4 317 296 252 264
4 578 609 546 597
4 639 695 752 696
4 202 175 156 190
4 319 328 292 360
4 490 489 544 468
4 465 513 486 440
4 324 366 376 319
4 663 732 767 720
4 487 544 468 575
4 575 577 606 608
4 576 515 518 469
4 365 380 349 336
4 513 467 424 420
4 225 282 260 255
4 315 293 286 257
4 262 267 296 285
4 318 347 348 335
4 393 437 447 394
4 710 652 595 651
4 311 378 329 361
4 335 288 331 327
4 288 259 267 296
4 586 716 681 680
4 484 606 517 572
4 535 556 555 560
4 166 155 123 122
4 296 259 316 313
4 400 443 382 466
4 490 515 489 425
4 587 533 562 660
4 16 7 26 58
4 440 402 422 420
4 258 298 280 293
4 685 627 614 717
4 102 125 131 121
4 235 239 236 263
4 200 203 201 235
4 27 59 9 38
4 81 47 64 48
4 1 4 0 105
4 319 282 276 314
4 310 283 329 328
4 602 646 704 601
4 145 220 187 146
4 9 59 11 23
4 577 669 596 634
4 186 135 147 151
4 611 673 672 592
4 366 397 404 418
4 27 19 9 37
4 658 616 528 556
4 541 511 484 512
4 109 64 87 81
4 326 346 379 358
4 158 192 198 194
4 313 331 296 327
4 82 139 129 124
4 480 473 449 494
4 1 13 7 36
4 64 81 110 101
4 536 528 556 558
4 178 157 122 138
4 104 149 72 114
4 19 18 8 35
4 169 205 246 206
4 176 213 189 197
4 642 605 729 702
4 261 238 211 251
4 195 154 197 161
4 380 349 318 364
4 166 174 155 122
4 144 164 167 201
4 202 213 190 179
4 521 480 463 472
4 71 148 119 118
4 329 356 378 311
4 417 421 355 396
4 173 195 209 159
4 472 481 448 463
4 326 280 330 312
4 586 615 530 549
4 283 310 329 257
4 298 227 265 251
4 48 100 80 87
4 118 33 98 119
4 259 296 262 267
4 278 268 275 254
4 733 734 690 662
4 542 574 511 571
4 53 78 25 52
4 241 253 219 254
4 224 189 232 223
4 464 520 481 471
4 171 245 134 208
4 25 53 52 16
4 12 16 58 7
4 157 215 174 193
4 72 148 71 116
4 1 18 36 35
4 217 204 249 240
4 231 254 225 247
4 587 533 660 553
4 219 183 205 254
4 4 1 36 105
4 99 90 40 61
4 246 272 243 274
4 52 16 58 12
4 40 28 79 99
4 78 51 12 52
4 114 127 184 145
4 417 419 439 396
4 573 606 607 484
4 456 777 433 408
4 493 464 471 519
4 522 494 505 506
4 417 571 542 511
4 481 448 414 471
4 115 208 169 146
4 378 379 346 399
4 445 403 443 425
4 570 574 542 571
4 692 755 693 745
4 768 690 733 744
4 719 734 741 686
4 573 606 484 572
4 622 616 683 556
4 578 544 516 518
4 52 25 16 12
4 1 0 36 105
4 733 690 630 662
4 347 348 362 364
4 53 32 34 33
4 362 359 326 358
4 561 555 554 560
4 284 294 259 279
4 688 671 721 758
4 552 620 551 564
4 703 641 603 640
4 642 698 751 699
4 90 126 120 89
4 270 308 269 242
4 712 671 722 631
4 603 701 604 641
4 360 310 329 328
4 585 657 681 620
4 591 495 548 565
4 576 578 609 546
4 645 603 703 644
4 600 706 638 637
4 644 604 701 643
4 648 706 600 599
4 609 650 579 597
4 707 599 598 636
4 493 540 447 437
4 509 492 438 470
4 701 703 603 644
4 576 518 546 469
4 88 80 87 60
4 578 576 518 546
4 672 733 687 630
4 406 390 384 369
4 566 506 580 522
4 601 647 646 705
4 774 694 753 754
4 693 636 754 755
4 745 754 693 694
4 599 649 707 598
4 756 766 692 767
4 670 635 598 597
4 637 693 636 754
4 400 362 348 364
4 515 576 514 469
4 333 380 363 336
4 279 265 294 280
4 484 541 607 573
4 545 606 577 572
4 706 637 599 636
4 707 706 599 636
4 707 635 598 670
4 635 707 598 636
4 688 663 767 720
4 227 175 237 211
4 670 598 650 597
4 546 514 576 469
4 609 670 650 597
4 627 529 584 620
4 609 576 546 579
4 578 670 597 635
4 514 515 469 488
4 544 578 516 653
4 602 703 640 639
4 602 601 704 639
4 544 609 578 653
4 469 515 445 488
4 670 578 597 609
4 514 546 576 579
4 365 363 380 336
4 649 670 598 650
4 311 345 310 329
4 362 326 330 379
4 363 365 380 401
4 772 710 730 771
4 546 609 579 597
4 515 490 518 469
4 425 445 515 443
4 380 318 336 333
4 383 415 397 375
4 350 375 367 397
4 414 448 405 428
4 574 511 541 512
4 760 759 775 715
4 491 418 446 404
4 774 767 743 766
4 430 462 429 411
4 320 337 323 289
4 519 539 610 593
4 464 482 569 437
4 437 508 492 394
4 437 428 471 414
4 493 464 569 437
4 437 428 393 447
4 540 493 569 437
4 695 694 774 743
4 298 258 227 286
4 428 447 383 393
4 492 509 438 395
4 418 491 510 404
4 652 574 570 571
4 47 82 101 91
4 556 624 623 683
4 447 415 393 394
4 404 426 418 446
4 491 418 483 446
4 557 623 658 556
4 438 404 470 427
4 456 457 432 458
4 302 270 344 301
4 536 556 560 559
4 383 375 368 415
4 351 387 409 352
4 448 414 405 413
4 198 158 177 162
4 602 703 603 640
4 220 222 187 146
4 457 478 432 458
4 393 413 405 414
4 375 383 368 337
4 202 251 211 238
4 653 670 578 711
4 241 308 289 275
4 483 542 446 426
4 384 412 390 406
4 447 427 383 415
4 673 674 629 612
4 574 571 595 541
4 367 383 397 375
4 338 384 391 778
4 356 355 377 396
4 619 586 615 530
4 392 415 368 416
4 507 521 580 538
4 96 117 95 73
4 324 310 360 292
4 225 282 231 260
4 202 251 237 211
4 355 324 345 360
4 415 404 383 397
4 451 479 777 431
4 415 404 438 427
4 404 415 383 427
4 383 404 367 397
4 454 450 461 504
4 661 685 675 718
4 367 337 383 375
4 378 421 396 377
4 439 417 396 421
4 463 506 521 538
4 750 641 703 640
4 724 772 730 721
4 592 654 507 568
4 641 703 603 701
4 750 701 641 749
4 409 387 455 435
4 387 409 455 351
4 522 581 591 523
4 320 375 323 337
4 405 393 414 428
4 654 594 663 671
4 706 637 636 754
4 690 734 719 662
4 645 703 602 704
4 646 602 704 645
4 646 601 705 704
4 757 672 687 630
4 302 373 340 339
4 611 612 567 580
4 382 380 400 349
4 539 594 671 631
4 753 639 705 638
4 725 688 767 720
4 601 647 705 638
4 745 767 743 720
4 720 757 743 687
4 464 437 471 414
4 703 752 639 704
4 640 696 750 697
4 654 610 539 671
4 480 505 494 506
4 654 611 672 592
4 437 471 447 493
4 320 375 337 350
4 593 539 712 631
4 557 589 502 476
4 507 654 539 568
4 744 734 741 719
4 464 520 471 519
4 632 574 595 541
4 426 366 418 421
4 410 460 459 407
4 654 611 507 547
4 426 417 486 439
4 718 736 675 741
4 663 757 687 630
4 696 769 697 744
4 722 631 721 689
4 132 91 101 141
4 752 696 768 769
4 750 696 752 769
4 734 673 629 662
4 750 696 769 697
4 241 268 275 289
4 696 639 750 752
4 630 594 672 568
4 769 750 697 735
4 697 735 698 741
4 734 741 686 674
4 749 697 735 698
4 744 768 742 696
4 749 697 698 641
4 697 749 735 750
4 735 734 741 769
4 777 501 503 451
4 473 522 505 523
4 591 495 505 523
4 571 417 542 483
4 414 463 448 481
4 384 392 413 405
4 580 547 507 611
4 507 567 611 592
4 465 512 513 484
4 298 294 280 330
4 771 721 730 772
4 732 688 758 671
4 425 381 382 466
4 404 509 438 470
4 420 357 440 419
4 472 481 507 520
4 594 672 568 654
4 767 745 743 766
4 481 472 507 463
4 482 540 569 437
4 577 575 606 545
4 390 412 411 406
4 512 606 484 607
4 507 521 472 547
4 463 521 472 507
4 417 418 426 483
4 520 507 472 547
4 438 510 404 418
4 426 512 417 542
4 447 492 438 394
4 585 551 657 620
4 134 115 208 169
4 555 622 683 556
4 447 438 415 394
4 652 574 595 651
4 492 395 438 394
4 542 483 417 426
4 683 616 658 556
4 542 483 446 570
4 732 688 767 758
4 540 482 508 437
4 656 681 585 586
4 756 634 708 664
4 426 418 446 483
4 373 302 340 343
4 516 467 468 575
4 637 693 754 694
4 492 437 394 447
4 501 407 460 434
4 437 428 447 471
4 632 730 724 723
4 723 710 651 730
4 519 569 593 712
4 610 593 539 712
4 547 539 654 610
4 464 493 471 437
4 547 539 520 507
4 448 414 471 428
4 672 654 592 568
4 510 438 404 509
4 723 724 772 730
4 708 731 634 756
4 710 595 723 651
4 628 675 685 614
4 409 410 459 407
4 492 395 394 508
4 508 437 492 540
4 746 726 736 699
4 536 556 559 558
4 594 672 654 663
4 691 633 664 708
4 756 725 688 767
4 723 595 632 651
4 671 721 722 631
4 482 464 569 593
4 519 493 464 569
4 710 772 730 723
4 507 580 611 567
4 654 592 507 611
4 688 732 767 663
4 610 519 593 712
4 712 771 689 722
4 539 547 520 519
4 769 690 734 744
4 539 520 464 519
4 606 517 575 543
4 530 615 497 549
4 464 507 520 539
4 507 464 520 481
4 250 226 279 233
4 539 547 654 507
4 722 712 631 689
4 754 638 706 637
4 654 594 539 568
4 639 753 695 638
4 767 774 743 757
4 671 688 721 594
4 721 758 671 722
4 610 539 671 631
4 539 610 712 631
4 712 610 671 631
4 732 688 671 663
4 721 724 691 709
4 777 459 456 479
4 415 418 404 397
4 592 629 673 662
4 349 318 364 348
4 503 552 497 501
4 657 619 530 586
4 733 673 734 662
4 741 769 744 697
4 739 614 740 676
4 516 653 608 544
4 758 756 688 767
4 688 758 721 691
4 725 756 691 664
4 725 756 688 691
4 357 378 396 356
4 298 294 330 295
4 407 451 501 777
4 742 687 768 690
4 663 757 720 687
4 757 742 687 768
4 594 654 539 671
4 754 745 766 743
4 647 601 600 638
4 594 630 672 663
4 672 671 663 732
4 349 364 400 348
4 188 184 127 145
4 691 668 632 633
4 742 696 768 695
4 632 709 724 730
4 651 709 632 730
4 484 543 485 517
4 731 708 634 669
4 451 452 498 431
4 732 767 720 757
4 686 629 734 674
4 691 668 708 709
4 691 632 709 724
4 757 742 768 774
4 768 742 695 753
4 670 635 578 711
4 755 692 665 731
4 669 653 596 711
4 484 417 465 512
4 596 669 665 634
4 691 758 756 688
4 633 691 668 708
4 756 691 664 708
4 758 691 756 709
4 304 389 352 342
4 633 607 632 573
4 766 756 692 731
4 484 513 465 485
4 669 665 731 711
4 745 725 692 767
4 767 692 756 725
4 668 691 632 709
4 756 691 708 709
4 730 724 721 709
4 668 633 708 606
4 596 669 711 665
4 484 417 512 511
4 722 730 721 709
4 754 745 693 766
4 636 665 755 693
4 601 705 704 639
4 711 707 635 755
4 709 651 632 668
4 758 722 721 709
4 758 721 691 709
4 635 596 711 665
4 692 664 634 756
4 484 606 543 517
4 318 347 364 348
4 574 542 511 512
4 606 572 545 575
4 606 512 484 543
4 609 544 578 576
4 541 574 512 607
4 573 606 633 607
4 624 559 556 623
4 668 633 606 607
4 574 541 632 607
4 484 541 512 607
4 327 296 288 331
4 512 465 513 486
4 574 632 651 607
4 651 632 668 607
4 417 465 512 486
4 512 426 417 486
4 417 512 511 542
4 577 545 516 575
4 633 708 606 572
4 517 606 575 572
4 522 612 580 566
4 440 486 419 439
4 575 516 608 544
4 347 288 296 331
4 440 357 378 419
4 159 154 195 161
4 606 573 633 572
4 484 543 513 485
4 467 513 543 485
4 755 766 693 745
4 575 516 544 468
4 692 766 731 755
4 516 577 575 608
4 332 299 317 333
4 516 490 544 468
4 692 767 766 745
4 544 487 468 489
4 703 602 704 639
4 418 415 404 438
4 731 634 665 669
4 636 665 635 755
4 578 516 653 596
4 440 487 424 513
4 572 517 545 575
4 634 572 577 708
4 606 669 577 708
4 516 577 608 596
4 653 516 608 596
4 665 635 755 711
4 490 518 516 544
4 515 576 518 544
4 490 515 518 544
4 768 690 744 742
4 670 653 578 609
4 745 725 767 720
4 757 768 687 733
4 692 766 755 745
4 638 754 694 637
4 692 664 756 725
4 634 572 708 664
4 669 577 708 634
4 669 608 596 653
4 634 731 665 692
4 756 692 731 634
4 705 754 638 706
4 696 752 768 695
4 694 695 774 753
4 752 768 695 753
4 754 705 638 753
4 753 639 695 752
4 695 774 742 743
4 638 694 753 695
4 754 745 743 694
4 768 687 733 690
4 640 703 750 639
4 774 695 742 753
4 757 743 742 774
4 672 733 757 687
4 673 672 592 630
4 752 703 639 750
4 640 696 639 750
4 705 601 638 639
4 753 704 639 752
4 704 753 639 705
4 647 706 705 638
4 706 600 638 647
4 706 755 636 707
4 755 706 636 754
4 467 513 485 420
4 491 509 404 470
4 552 551 530 477
4 687 733 690 630
4 743 757 742 687
4 757 720 743 767
4 716 586 677 680
4 451 498 479 431
4 741 718 674 735
4 591 495 565 505
4 480 463 406 412
4 672 663 757 732
4 663 672 757 630
4 690 734 744 719
4 592 673 630 662
4 662 686 734 719
4 266 297 317 264
4 409 351 410 407
4 674 673 629 734
4 744 733 768 769
4 592 629 567 673
4 629 567 673 612
4 630 673 733 662
4 673 630 733 672
4 734 744 741 769
4 734 735 741 674
4 538 566 506 580
4 584 655 762 678
4 377 355 421 396
4 299 266 297 317
4 199 174 192 155
4 259 284 233 262
4 192 216 174 199
4 215 250 216 193
4 288 259 296 313
4 378 396 356 377
4 250 216 193 228
4 296 285 252 264
4 297 266 263 264
4 111 163 130 133
4 254 218 231 219
4 239 266 252 264
4 332 299 297 317
4 49 28 29 60
4 320 376 375 350
4 266 299 287 317
4 296 288 287 252
4 299 287 317 318
4 192 233 216 199
4 267 296 252 288
4 252 240 285 267
4 266 239 263 264
4 296 267 252 285
4 285 217 252 264
4 164 200 167 201
4 228 216 226 250
4 324 320 319 376
4 239 263 264 236
4 70 28 94 50
4 296 287 317 252
4 265 256 279 250
4 318 380 364 333
4 382 349 400 381
4 252 317 266 287
4 277 232 255 224
4 317 252 266 264
4 379 346 312 361
4 283 224 232 277
4 265 256 227 280
4 422 424 381 402
4 296 259 262 316
4 469 425 515 490
4 317 299 318 333
4 318 380 336 349
4 281 232 260 255
4 515 445 488 443
4 281 276 255 282
4 211 261 224 238
4 403 442 443 423
4 581 522 566 613
4 443 489 425 466
4 318 317 347 287
4 467 543 575 517
4 317 318 347 333
4 715 761 714 759
4 332 299 333 336
4 223 225 260 255
4 347 296 317 333
4 332 333 363 336
4 298 330 312 334
4 292 310 328 283
4 65 111 108 92
4 489 444 425 466
4 280 298 227 265
4 415 375 368 416
4 775 760 773 776
4 422 440 398 399
4 326 362 358 379
4 486 465 440 419
4 442 445 403 443
4 380 349 364 400
4 445 442 488 443
4 359 348 422 362
4 487 468 444 467
4 469 425 445 515
4 380 365 349 382
4 513 467 543 487
4 226 194 233 192
4 489 490 425 468
4 382 443 425 466
4 165 202 156 179
4 362 422 398 399
4 489 515 443 425
4 440 357 398 399
4 380 382 400 423
4 381 359 422 402
4 514 515 488 443
4 349 400 381 348
4 425 381 466 444
4 401 442 403 423
4 382 443 403 425
4 443 382 403 423
4 440 424 402 420
4 381 359 348 422
4 380 365 382 423
4 365 380 401 423
4 365 403 382 423
4 365 401 403 423
4 358 379 399 346
4 298 315 293 286
4 487 468 467 575
4 318 288 347 335
4 487 489 466 444
4 444 489 425 468
4 381 382 466 400
4 348 335 362 359
4 487 440 424 441
4 643 605 604 702
4 517 545 575 467
4 467 543 487 575
4 424 422 381 441
4 441 444 487 466
4 422 400 381 441
4 400 422 381 348
4 362 400 348 422
4 348 347 362 335
4 288 287 347 296
4 318 288 287 347
4 311 293 315 257
4 233 192 216 226
4 362 358 379 399
4 357 358 399 346
4 513 424 440 420
4 424 487 444 467
4 400 466 381 441
4 154 140 128 121
4 357 420 440 398
4 326 346 312 379
4 424 422 440 402
4 335 347 362 331
4 421 378 396 439
4 326 362 330 331
4 288 347 335 331
4 310 311 329 257
4 366 324 355 360
4 15 94 69 112
4 465 440 419 420
4 359 362 326 327
4 326 362 331 327
4 362 335 331 327
4 335 362 359 327
4 443 400 382 423
4 356 345 329 377
4 419 378 396 357
4 375 320 323 354
4 359 422 402 398
4 378 357 311 356
4 486 419 417 465
4 215 175 193 157
4 212 250 193 228
4 487 424 444 441
4 357 440 378 399
4 444 424 381 441
4 466 444 381 441
4 378 440 419 439
4 280 298 330 312
4 326 330 379 312
4 294 265 298 280
4 378 419 396 439
4 355 356 377 345
4 422 402 398 420
4 467 513 424 487
4 440 422 398 420
4 362 359 358 398
4 362 422 359 398
4 465 513 440 420
4 513 465 485 420
4 355 397 366 418
4 258 298 227 280
4 324 300 276 319
4 588 659 626 554
4 220 182 222 146
4 227 298 286 251
4 660 533 590 553
4 361 330 312 379
4 292 310 360 328
4 366 377 355 421
4 399 346 378 357
4 189 232 197 213
4 149 72 117 116
4 215 212 250 193
4 277 292 283 257
4 280 326 330 294
4 227 250 228 256
4 295 313 330 316
4 313 330 316 331
4 313 295 330 294
4 330 313 326 331
4 261 211 224 248
4 4 84 0 105
4 360 329 345 377
4 276 225 255 282
4 366 324 376 355
4 367 366 350 397
4 310 324 360 345
4 49 48 80 87
4 356 329 378 377
4 426 417 439 421
4 641 750 697 640
4 577 606 708 572
4 182 220 145 146
4 1 18 13 36
4 189 224 232 190
4 171 245 207 134
4 245 134 208 169
4 418 421 355 417
4 340 373 372 339
4 377 360 355 345
4 337 350 375 367
4 293 334 311 315
4 135 96 147 151
4 319 366 376 350
4 298 293 334 312
4 366 319 324 360
4 249 229 204 234
4 101 141 123 132
4 378 346 311 357
4 276 309 300 325
4 283 329 315 257
4 366 377 360 355
4 175 237 215 212
4 324 319 292 360
4 310 360 329 345
4 367 366 397 404
4 350 376 375 397
4 292 310 283 257
4 170 245 206 134
4 129 82 124 91
4 378 346 361 311
4 300 324 276 325
4 276 282 300 278
4 132 110 81 101
4 292 319 276 314
4 115 171 134 208
4 175 227 237 212
4 238 224 211 190
4 292 277 283 281
4 319 292 276 324
4 232 189 190 213
4 261 232 224 238
4 195 173 209 191
4 282 319 276 300
4 325 320 324 354
4 320 319 376 350
4 320 324 319 300
4 702 749 642 701
4 3 6 83 106
4 232 277 255 281
4 292 276 281 314
4 230 225 231 260
4 376 320 375 354
4 293 298 280 312
4 379 378 346 361
4 227 211 251 248
4 298 284 294 295
4 314 283 281 292
4 314 283 292 328
4 329 311 315 257
4 136 57 119 25
4 293 334 312 311
4 312 361 311 334
4 329 334 311 361
4 361 312 311 346
4 283 286 248 257
4 315 298 293 334
4 89 172 152 136
4 555 624 683 684
4 232 283 277 281
4 16 52 58 53
4 81 102 131 143
4 283 224 248 261
4 257 224 283 277
4 258 227 286 248
4 211 261 251 248
4 172 149 104 184
4 212 215 250 237
4 6 11 37 106
4 27 14 9 19
4 102 87 125 100
4 25 22 79 40
4 261 283 286 248
4 258 257 248 286
4 286 227 251 248
4 261 286 251 248
4 126 120 89 152
4 497 525 524 582
4 117 114 115 73
4 249 264 217 285
4 211 202 175 237
4 215 175 212 193
4 211 227 251 237
4 239 235 236 203
4 217 239 236 203
4 217 236 201 203
4 250 251 227 237
4 494 472 480 521
4 264 249 217 236
4 533 660 590 562
4 249 229 262 240
4 95 134 171 147
4 240 217 285 249
4 174 215 216 193
4 135 115 171 95
4 195 173 191 154
4 201 236 235 203
4 144 177 164 201
4 121 154 140 176
4 217 264 239 252
4 264 217 239 236
4 295 259 313 316
4 643 605 702 667
4 130 111 133 93
4 216 193 228 210
4 203 200 201 167
4 240 262 285 267
4 129 164 111 124
4 173 188 126 209
4 201 217 203 181
4 167 144 201 181
4 167 201 203 181
4 144 177 201 181
4 313 331 327 326
4 249 201 236 214
4 217 201 249 181
4 201 217 249 236
4 249 201 214 181
4 262 295 259 284
4 252 240 217 285
4 16 25 98 33
4 177 204 194 214
4 144 177 181 168
4 111 124 108 129
4 103 41 65 108
4 144 177 124 164
4 181 214 177 201
4 233 194 234 198
4 204 177 181 214
4 82 141 101 91
4 188 220 184 145
4 237 175 215 202
4 212 250 228 227
4 216 174 193 210
4 251 250 227 265
4 212 250 227 237
4 33 119 71 57
4 226 250 256 228
4 259 240 262 229
4 233 265 279 250
4 65 124 103 108
4 109 81 131 143
4 11 3 106 6
4 5 8 1 35
4 216 228 226 210
4 226 250 216 233
4 229 262 233 234
4 198 192 155 199
4 198 177 194 214
4 199 162 155 198
4 129 124 108 91
4 240 259 262 267
4 192 158 198 155
4 295 259 294 313
4 169 205 183 246
4 158 198 155 162
4 199 162 166 155
4 162 155 123 166
4 472 481 520 471
4 262 229 233 259
4 229 249 262 234
4 158 198 177 194
4 204 214 249 234
4 233 229 226 259
4 392 338 384 391
4 259 295 294 284
4 192 216 226 210
4 295 262 259 316
4 168 194 177 204
4 217 204 181 249
4 226 250 279 256
4 279 259 233 226
4 284 259 233 279
4 194 234 204 229
4 194 214 234 198
4 194 168 177 158
4 177 158 139 162
4 214 194 234 204
4 214 204 249 181
4 675 676 740 614
4 41 91 103 42
4 53 32 33 98
4 58 7 84 12
4 155 139 162 123
4 69 24 47 29
4 47 81 64 101
4 125 88 80 87
4 122 178 138 165
4 172 89 152 127
4 96 135 147 95
4 677 656 618 586
4 70 28 50 10
4 188 173 126 152
4 31 44 45 63
4 45 82 42 103
4 2 36 5 1
4 178 174 122 157
4 132 122 166 123
4 49 80 28 60
4 139 155 162 158
4 46 82 47 42
4 215 202 175 178
4 57 40 25 136
4 86 66 44 30
4 82 123 141 139
4 123 82 141 101
4 131 102 165 143
4 164 144 111 124
4 141 82 139 129
4 41 65 108 92
4 141 82 129 91
4 41 103 65 45
4 31 44 63 30
4 133 144 164 167
4 129 92 111 142
4 177 164 129 124
4 177 144 124 168
4 124 158 177 168
4 158 124 177 139
4 177 129 139 124
4 162 129 141 139
4 162 129 139 177
4 101 47 91 64
4 164 163 142 111
4 65 124 108 111
4 54 98 33 32
4 52 58 84 12
4 9 14 5 19
4 164 129 111 142
4 167 164 163 200
4 182 220 222 247
4 144 133 164 111
4 131 121 140 176
4 100 125 80 87
4 124 82 103 91
4 124 103 108 91
4 153 176 189 154
4 64 87 81 48
4 130 142 111 92
4 11 86 85 31
4 70 28 10 94
4 666 713 751 729
4 122 166 180 143
4 154 140 176 161
4 29 42 47 64
4 188 184 172 127
4 61 80 28 99
4 128 121 88 137
4 77 53 32 34
4 165 156 153 179
4 122 165 102 143
4 142 130 111 163
4 109 64 81 110
4 160 159 126 209
4 121 88 80 125
4 80 61 28 88
4 166 141 123 162
4 102 48 87 100
4 132 91 110 101
4 92 65 93 63
4 160 159 209 196
4 122 132 166 143
4 170 171 207 134
4 246 183 222 254
4 62 43 66 63
4 63 45 41 65
4 166 141 132 123
4 62 43 63 107
4 138 165 178 156
4 87 131 109 81
4 122 81 132 143
4 101 122 132 123
4 143 110 109 81
4 166 174 122 180
4 143 178 122 165
4 174 178 122 180
4 143 110 81 132
4 418 417 426 421
4 162 141 123 139
4 18 1 8 35
4 216 174 199 180
4 153 176 131 179
4 174 166 199 180
4 166 174 199 155
4 165 122 102 138
4 165 202 178 156
4 102 87 131 125
4 215 175 157 178
4 309 276 300 278
4 87 102 131 81
4 223 189 197 191
4 81 122 102 143
4 188 172 152 127
4 209 126 160 188
4 215 157 174 178
4 174 215 178 180
4 320 325 324 300
4 153 176 154 121
4 138 175 178 157
4 202 175 178 156
4 121 128 88 140
4 137 61 88 90
4 84 7 36 4
4 232 189 197 223
4 159 126 209 173
4 220 209 160 188
4 178 143 122 180
4 232 224 238 190
4 213 232 238 190
4 202 238 211 190
4 202 213 238 190
4 189 154 176 197
4 190 213 189 179
4 126 128 173 159
4 53 16 98 33
4 154 159 128 161
4 241 219 205 254
4 12 51 79 22
4 156 102 165 153
4 70 112 15 113
4 90 99 80 61
4 153 176 121 131
4 176 153 189 179
4 23 66 39 38
4 114 145 187 146
4 225 195 230 231
4 190 153 179 189
4 131 153 165 102
4 189 154 197 191
4 154 176 197 161
4 277 276 281 292
4 154 195 197 191
4 126 188 127 160
4 547 539 610 519
4 669 606 577 608
4 6 35 2 83
4 253 225 282 231
4 412 384 390 391
4 121 80 100 125
4 80 88 28 60
4 57 40 136 89
4 84 4 36 105
4 153 190 179 156
4 218 254 231 247
4 33 119 25 98
4 241 205 275 254
4 225 253 282 278
4 19 5 8 14
4 125 131 121 140
4 51 70 50 10
4 159 154 128 173
4 121 128 154 137
4 88 121 80 137
4 156 202 190 179
4 309 278 268 275
4 325 323 320 354
4 645 603 602 703
4 137 126 128 173
4 195 173 154 159
4 205 246 275 254
4 153 131 165 179
4 276 277 281 255
4 140 154 128 161
4 268 282 278 300
4 289 300 268 309
4 197 232 223 230
4 195 197 191 230
4 197 223 191 230
4 369 373 390 384
4 208 115 187 146
4 209 220 160 247
4 225 195 191 230
4 223 225 191 230
4 320 325 300 309
4 300 309 278 268
4 99 90 80 120
4 3 83 113 106
4 729 667 700 728
4 219 218 183 254
4 160 247 196 209
4 90 80 120 137
4 232 223 230 260
4 183 222 254 247
4 223 225 230 260
4 105 0 2 3
4 231 196 247 195
4 183 218 182 247
4 369 338 373 384
4 225 253 278 254
4 232 223 260 255
4 232 224 223 255
4 35 2 36 5
4 205 183 246 254
4 122 101 132 81
4 323 325 320 309
4 79 119 25 136
4 182 196 247 218
4 220 160 145 188
4 291 290 271 305
4 375 338 353 337
4 247 195 225 231
4 254 231 225 253
4 278 253 268 254
4 221 273 244 207
4 160 220 182 247
4 183 182 222 247
4 268 241 275 254
4 219 253 231 254
4 115 114 187 146
4 170 272 207 244
4 120 90 89 40
4 195 247 225 209
4 209 196 195 247
4 196 231 247 218
4 375 374 338 416
4 137 126 120 90
4 187 171 115 208
4 188 126 127 152
4 120 89 152 136
4 474 497 525 524
4 150 114 117 149
4 171 187 115 150
4 145 184 114 187
4 170 272 245 207
4 272 206 246 243
4 410 370 372 436
4 114 127 104 184
4 671 721 631 594
4 137 152 126 173
4 69 50 29 49
4 170 245 134 207
4 152 137 126 120
4 561 555 534 554
4 120 89 136 40
4 102 125 121 100
4 104 89 57 172
4 104 89 172 127
4 160 220 145 182
4 272 206 170 245
4 183 246 222 169
4 452 499 431 475
4 104 172 57 148
4 127 104 184 172
4 46 47 24 42
4 74 135 96 117
4 149 172 104 148
4 272 207 244 273
4 246 245 208 169
4 48 102 87 81
4 89 57 172 136
4 114 150 117 115
4 148 57 71 119
4 220 184 145 187
4 222 246 208 169
4 175 138 178 156
4 148 136 57 119
4 151 74 96 97
4 136 148 57 172
4 74 117 96 73
4 134 95 171 115
4 32 16 34 33
4 102 156 165 138
4 119 79 25 78
4 185 135 171 147
4 535 561 555 534
4 134 245 206 169
4 245 246 206 169
4 72 114 117 73
4 271 290 342 305
4 244 291 272 273
4 387 351 455 408
4 306 290 305 322
4 351 407 455 408
4 170 243 272 244
4 184 150 114 187
4 150 184 114 149
4 18 1 13 8
4 80 49 87 60
4 182 183 222 146
4 222 183 169 146
4 208 222 169 146
4 222 208 187 146
4 229 233 194 234
4 25 53 98 78
4 79 28 22 51
4 55 118 71 54
4 9 19 35 37
4 29 50 94 21
4 116 148 71 118
4 11 37 106 85
4 5 36 35 1
4 16 53 26 34
4 452 499 498 431
4 70 4 51 84
4 7 84 36 58
4 7 4 1 36
4 533 590 553 532
4 24 85 15 68
4 51 4 12 52
4 412 392 384 391
4 78 79 25 12
4 78 25 52 12
4 40 25 136 79
4 120 136 79 40
4 90 120 99 40
4 99 120 79 40
4 7 84 12 4
4 23 20 38 39
4 59 27 9 37
4 281 276 282 314
4 51 84 4 52
4 70 4 10 51
4 12 10 51 22
4 84 52 12 4
4 25 22 12 79
4 243 170 272 206
4 80 49 28 50
4 22 51 28 10
4 23 20 9 38
4 617 739 614 717
4 17 16 26 34
4 121 88 125 140
4 28 29 21 50
4 478 557 502 476
4 623 683 658 556
4 90 88 137 128
4 80 61 88 137
4 128 154 137 173
4 529 627 584 548
4 47 91 64 42
4 48 47 64 29
4 19 5 9 35
4 83 6 37 106
4 41 65 92 63
4 49 87 29 48
4 566 628 591 581
4 92 107 93 130
4 30 39 23 66
4 29 42 24 47
4 86 44 31 30
4 30 11 86 23
4 20 9 38 27
4 44 67 31 45
4 48 64 87 29
4 6 11 9 37
4 85 113 106 15
4 43 93 63 107
4 106 11 85 15
4 84 105 113 70
4 87 49 29 60
4 84 52 51 70
4 6 35 37 9
4 24 45 46 42
4 43 65 44 63
4 0 36 105 83
4 43 65 63 93
4 729 713 727 666
4 41 24 45 31
4 94 28 10 21
4 47 82 91 42
4 107 92 93 63
4 66 62 63 30
4 31 63 45 41
4 31 68 85 24
4 91 41 103 108
4 45 82 46 42
4 41 103 45 42
4 103 42 91 82
4 66 63 44 30
4 63 66 44 43
4 35 6 37 83
4 67 44 31 86
4 265 250 227 256
4 11 59 37 85
4 38 86 23 66
4 86 38 23 59
4 11 30 86 31
4 5 9 35 2
4 560 625 624 554
4 9 6 35 2
4 23 38 9 59
4 29 15 94 69
4 341 342 352 371
4 59 9 11 37
4 0 105 2 83
4 718 736 741 746
4 632 730 723 651
4 6 2 3 83
4 2 36 1 0
4 2 35 36 83
4 85 31 24 11
4 28 51 50 10
4 70 0 4 84
4 83 3 105 2
4 3 83 105 113
4 99 80 28 50
4 79 99 51 50
4 3 11 106 15
4 28 51 99 50
4 28 40 79 22
4 79 28 51 99
4 68 31 85 67
4 85 24 15 11
4 53 58 26 34
4 70 15 10 3
4 70 105 0 84
4 15 106 3 113
4 233 194 198 192
4 51 4 10 12
4 4 3 70 10
4 105 70 3 113
4 105 70 0 3
4 70 0 3 4
4 68 31 67 45
4 86 85 31 67
4 21 29 15 94
4 69 46 24 68
4 94 10 15 21
4 15 70 10 94
4 153 131 121 102
4 94 28 21 50
4 28 49 29 50
4 126 137 128 90
4 50 69 29 94
4 48 47 29 69
4 49 48 29 69
4 340 385 436 386
4 561 534 626 554
4 624 555 554 684
4 534 588 626 554
4 68 85 15 112
4 69 24 15 68
4 15 69 68 112
4 70 15 3 113
4 112 70 15 94
4 24 45 68 46
4 24 41 45 42
4 45 24 68 31
4 656 681 586 716
4 552 503 497 563
4 233 229 194 226
4 557 658 528 556
4 556 560 559 624
4 290 306 305 291
4 475 499 431 432
4 683 621 555 684
4 149 72 114 117
4 534 562 561 626
4 588 587 534 626
4 171 170 221 185
4 562 587 534 533
4 587 562 534 626
4 587 562 626 660
4 135 74 96 151
4 171 170 207 221
4 625 624 554 684
4 118 55 71 116
4 72 149 148 116
4 621 683 555 622
4 659 625 554 684
4 148 72 71 104
4 135 96 117 95
4 57 148 71 104
4 53 25 98 16
4 53 77 32 98
4 33 16 34 53
4 116 74 55 117
4 118 55 116 75
4 74 116 55 75
4 76 55 118 75
4 55 76 118 54
4 55 71 116 72
4 115 135 171 150
4 555 560 624 554
4 561 625 560 554
4 554 555 621 684
4 561 535 555 560
4 659 561 554 625
4 659 561 626 554
4 54 33 118 71
4 98 54 77 32
4 32 16 17 34
4 25 98 119 78
4 119 33 25 57
4 130 111 93 92
4 98 54 33 118
4 171 147 170 185
4 95 117 115 73
4 117 95 115 135
4 135 115 117 150
4 24 69 15 29
4 503 497 525 451
4 682 716 679 738
4 496 504 564 565
4 531 496 477 454
4 74 96 97 56
4 55 117 74 73
4 55 74 56 73
4 117 72 55 116
4 72 117 55 73
4 588 659 554 684
4 588 554 621 684
4 185 135 147 186
4 147 171 170 134
4 612 567 580 566
4 13 36 26 7
4 7 36 26 58
4 17 7 26 16
4 13 36 18 26
4 16 53 58 26
4 17 7 13 26
4 762 617 584 682
4 118 33 119 71
4 46 69 24 47
4 76 98 54 77
4 98 76 54 118
4 271 342 343 305
4 370 340 341 372
4 538 566 580 567
4 476 558 528 537
4 674 675 735 718
4 535 556 560 536
4 291 272 273 306
4 501 531 477 434
4 715 761 762 714
4 726 699 666 751
4 455 407 777 408
4 777 456 455 408
4 531 454 477 434
4 451 498 525 479
4 341 303 342 343
4 503 501 497 451
4 666 747 713 727
4 51 78 12 79
4 476 558 526 557
4 657 619 586 680
4 407 455 777 459
4 271 343 307 305
4 620 552 551 657
4 342 271 343 303
4 615 680 586 619
4 497 503 525 563
4 674 675 661 613
4 522 612 566 613
4 454 460 434 531
4 411 369 406 385
4 282 281 260 255
4 531 496 454 504
4 275 309 323 289
4 531 496 504 564
4 459 777 456 455
4 583 550 589 528
4 458 456 479 431
4 388 460 407 434
4 589 500 502 476
4 456 777 479 431
4 460 531 501 434
4 550 589 528 476
4 495 591 548 523
4 612 674 661 613
4 589 557 528 476
4 686 674 718 661
4 460 454 434 388
4 548 614 581 627
4 501 407 777 459
4 457 456 432 453
4 409 351 407 455
4 459 409 407 455
4 432 456 458 431
4 585 657 586 681
4 432 456 433 453
4 557 526 476 478
4 387 409 352 435
4 409 389 352 435
4 777 456 433 431
4 456 432 433 431
4 479 525 451 503
4 340 373 343 372
4 627 564 529 620
4 527 432 526 475
4 558 476 526 527
4 616 589 528 583
4 557 658 589 528
4 457 478 502 476
4 476 526 432 478
4 478 457 432 476
4 432 457 453 476
4 457 500 453 476
4 528 557 556 558
4 477 529 496 564
4 526 476 432 527
4 557 623 556 558
4 556 623 559 558
4 559 536 558 537
4 777 459 479 503
4 682 681 529 584
4 501 459 777 503
4 476 558 537 527
4 351 388 370 410
4 657 585 586 551
4 524 497 582 549
4 498 474 451 525
4 451 479 503 777
4 604 642 702 605
4 612 674 629 661
4 432 478 499 458
4 526 432 499 475
4 499 431 458 498
4 451 407 501 434
4 451 477 501 497
4 451 477 434 501
4 497 477 501 552
4 531 477 564 552
4 531 501 477 552
4 551 552 530 657
4 477 551 564 552
4 617 676 739 655
4 717 548 614 617
4 499 431 432 458
4 498 431 458 479
4 373 374 390 778
4 390 374 391 778
4 680 615 586 677
4 661 581 675 628
4 495 473 505 523
4 407 501 460 459
4 563 525 497 582
4 591 581 548 523
4 530 657 552 619
4 497 477 552 530
4 567 612 629 566
4 551 657 530 586
4 497 619 552 563
4 619 497 552 530
4 615 497 582 563
4 615 530 497 619
4 548 717 614 627
4 497 474 525 451
4 497 615 619 563
4 497 615 582 549
4 507 580 567 538
4 735 675 741 718
4 679 681 656 716
4 681 657 586 680
4 716 682 679 681
4 620 682 529 584
4 760 764 773 776
4 581 522 591 566
4 747 655 770 739
4 674 675 718 661
4 627 581 591 628
4 675 628 581 614
4 682 679 714 738
4 591 627 565 548
4 698 751 736 749
4 472 480 406 449
4 717 682 627 548
4 764 760 773 765
4 629 674 686 661
4 462 450 430 473
4 581 627 591 548
4 735 749 698 736
4 675 735 741 736
4 661 685 628 675
4 566 628 581 661
4 717 682 548 617
4 742 774 753 768
4 740 717 685 614
4 473 430 462 429
4 388 450 461 454
4 506 480 521 494
4 496 548 495 565
4 243 242 246 274
4 566 522 505 506
4 614 581 627 628
4 372 340 339 369
4 368 393 405 383
4 477 529 564 551
4 585 551 620 529
4 763 765 760 737
4 681 585 620 529
4 682 681 620 529
4 564 496 565 529
4 397 355 366 376
4 564 627 529 565
4 529 627 548 565
4 496 548 565 529
4 268 282 253 278
4 627 685 614 628
4 679 682 714 584
4 681 584 656 585
4 682 548 617 584
4 681 585 529 584
4 676 617 739 614
4 682 679 681 584
4 763 765 773 760
4 701 643 604 702
4 740 717 614 739
4 679 681 584 656
4 682 620 627 584
4 738 714 682 761
4 748 763 765 773
4 676 739 726 740
4 770 761 715 775
4 729 605 700 667
4 775 760 763 773
4 726 746 736 740
4 751 736 726 699
4 304 352 303 342
4 473 480 505 494
4 290 389 304 342
4 504 460 454 531
4 739 617 655 762
4 413 384 406 412
4 407 388 410 460
4 759 760 775 776
4 762 714 584 678
4 682 627 548 584
4 770 655 762 739
4 740 675 718 736
4 86 11 85 59
4 411 372 369 436
4 344 270 308 301
4 406 413 463 448
4 715 775 763 770
4 761 770 715 762
4 374 375 338 353
4 462 450 461 430
4 505 461 450 504
4 351 409 410 371
4 521 507 580 547
4 337 353 323 321
4 406 480 429 449
4 763 715 737 760
4 655 770 762 715
4 729 737 727 713
4 747 713 676 726
4 699 642 666 751
4 666 605 729 642
4 581 675 614 613
4 270 274 308 242
4 506 463 521 480
4 748 728 729 700
4 463 521 507 538
4 675 740 718 685
4 775 761 715 759
4 351 388 410 407
4 241 253 254 268
4 372 342 341 371
4 351 410 370 341
4 496 454 504 450
4 343 271 302 303
4 461 505 450 462
4 505 450 462 473
4 495 504 496 565
4 504 495 496 450
4 495 504 565 505
4 521 522 506 494
4 392 412 384 413
4 290 303 271 342
4 389 352 342 371
4 341 410 372 371
4 389 409 352 371
4 342 341 352 303
4 114 150 115 187
4 480 473 505 462
4 206 242 205 246
4 416 338 368 392
4 342 372 341 343
4 291 272 306 305
4 290 304 303 342
4 290 389 342 322
4 410 341 372 370
4 744 733 769 690
4 303 340 343 341
4 409 351 352 371
4 352 351 341 371
4 244 271 243 272
4 291 271 272 305
4 244 271 272 291
4 764 765 773 748
4 341 340 343 372
4 373 369 372 339
4 303 340 302 343
4 462 412 429 411
4 370 388 386 436
4 338 369 373 339
4 271 302 270 307
4 271 343 302 307
4 270 308 301 269
4 309 320 323 289
4 337 323 289 321
4 334 329 311 315
4 246 245 272 274
4 243 272 271 274
4 272 307 271 274
4 307 272 271 305
4 713 736 726 751
4 243 270 274 271
4 480 429 473 462
4 413 406 463 412
4 406 448 463 472
4 698 746 736 699
4 661 581 566 613
4 270 307 344 308
4 713 655 747 676
4 581 661 675 613
4 661 612 566 629
4 505 450 495 504
4 450 505 495 473
4 612 661 566 613
4 413 406 405 448
4 372 411 369 390
4 410 460 388 436
4 413 384 405 406
4 410 388 370 436
4 740 736 718 746
4 338 391 374 778
4 14 27 9 20
4 436 369 340 372
4 370 386 340 436
4 370 340 372 436
4 430 462 411 461
4 430 411 436 461
4 460 388 436 461
4 388 450 430 461
4 460 504 454 461
4 430 436 388 461
4 436 430 388 386
4 460 454 388 461
4 522 521 506 580
4 580 538 521 506
4 265 279 294 284
4 591 522 505 566
4 676 655 747 739
4 522 591 505 523
4 735 698 741 736
4 741 698 746 736
4 747 655 737 770
4 762 617 655 584
4 682 739 617 717
4 374 373 338 778
4 678 762 715 655
4 763 747 727 737
4 765 763 727 737
4 770 747 763 737
4 675 740 685 614
4 770 655 737 715
4 715 763 737 770
4 676 675 740 736
4 751 698 736 699
4 249 229 240 204
4 747 676 739 726
4 174 215 180 216
4 2 36 0 83
4 92 111 93 65
4 713 736 676 726
4 749 702 642 751
4 726 666 713 751
4 289 300 309 320
4 406 480 412 429
4 494 472 449 480
4 713 747 737 727
4 737 729 727 765
4 480 472 406 463
4 11 86 23 59
4 749 642 701 641
4 605 666 729 700
4 642 701 604 702
4 701 642 604 641
4 429 406 385 411
4 30 39 66 62
4 728 765 748 729
4 655 713 747 737
4 763 748 765 727
4 270 307 302 344
4 412 462 429 480
4 429 480 473 449
4 392 338 368 384
4 429 430 411 385
4 411 430 436 385
4 430 386 436 385
4 412 429 411 406
4 308 241 269 242
4 369 411 406 390
4 436 369 385 340
4 411 369 385 436
4 205 241 275 242
4 392 384 368 405
4 416 391 338 392
4 307 270 274 308
4 302 373 339 344
4 268 309 275 289
4 302 307 343 344
4 373 302 343 344
4 391 416 338 374
4 243 270 242 274
4 339 302 344 301
4 344 353 338 321
4 405 393 428 383
4 373 390 384 778
4 353 337 323 375
4 308 241 289 269
4 301 344 338 321
4 771 721 772 689
4 344 339 301 338
4 374 344 353 338
4 374 373 344 338
4 373 339 344 338
4 308 275 323 289
4 323 308 289 321
4 323 344 321 353
4 368 375 337 338
4 338 353 337 321
4 289 301 308 269
4 301 289 308 321
4 323 344 308 321
4 308 344 301 321
4 271 270 274 307
4 274 275 308 242
4 275 241 308 242
4 246 275 274 242
4 206 242 246 243
4 246 205 275 242
4 700 727 729 748
4 727 765 729 748
4 765 728 748 764
4 671 688 594 663
4 74 96 56 73
4 519 539 593 464
4 311 345 329 356
4 760 775 763 715
4 244 221 207 170
4 700 727 666 729
4 394 414 393 437
4 192 233 199 198
4 204 177 168 181
4 682 714 762 761
4 558 557 476 528
4 90 80 137 61
4 422 424 440 441
4 452 451 498 474
4 258 257 286 293
4 320 324 354 376
4 331 313 296 316
4 313 330 326 294
4 426 404 418 366
4 384 390 391 778
4 276 225 282 278
4 556 624 683 555
4 718 741 674 686
4 741 769 697 735
4 564 620 551 529
4 195 209 225 191
4 171 95 147 135
4 319 328 314 292
4 754 743 774 694
4 754 743 766 774
4 536 528 558 537
4 92 129 111 108
4 483 542 571 570
4 330 361 312 334
4 85 113 15 112
4 589 500 476 550
4 736 726 740 676
4 481 472 448 471
4 133 164 163 167
4 5 19 8 35
4 701 750 641 703
4 413 393 405 392
4 616 589 658 528
4 63 45 65 44
4 771 721 689 722
4 721 771 730 722
4 284 298 294 265
4 133 164 111 163
4 707 711 635 670
4 749 642 698 751
4 714 762 715 678
4 432 526 499 478
4 421 366 418 355
4 543 484 513 512
4 677 656 586 716
4 666 747 726 713
4 744 768 696 769
4 750 641 697 749
4 368 375 338 416
4 176 213 179 189
4 415 392 368 393
4 249 262 285 240
4 224 283 232 261
4 257 224 248 283
4 644 604 603 701
4 665 755 731 711
4 693 754 766 755
4 618 615 586 549
4 618 615 677 586
4 265 256 280 279

CELL_TYPES 2123
10
10
10
10
10
10
10
10
10
10
10
10
10
10
10
10
10
10
10
10
10
10
10
10
10
10
10
10
10
10
10
10
10
10
10
10
10
10
10
10
10
10
10
10
10
10
10
10
10
10
10
10
10
10
10
10
10
10
10
10
10
10
10
10
10
10
10
10
10
10
10
10
10
10
10
10
10
10
10
10
10
10
10
10
10
10
10
10
10
10
10
10
10
10
10
10
10
10
10
10
10
10
10
10
10
10
10
10
10
10
10
10
10
10
10
10
10
10
10
10
10
10
10
10
10
10
10
10
10
10
10
10
10
10
10
10
10
10
10
10
10
10
10
10
10
10
10
10
10
10
10
10
10
10
10
10
10
10
10
10
10
10
10
10
10
10
10
10
10
10
10
10
10
10
10
10
10
10
10
10
10
10
10
10
10
10
10
10
10
10
10
10
10
10
10
10
10
10
10
10
10
10
10
10
10
10
10
10
10
10
10
10
10
10
10
10
10
10
10
10
10
10
10
10
10
10
10
10
10
10
10
10
10
10
10
10
10
10
10
10
10
10
10
10
10
10
10
10
10
10
10
10
10
10
10
10
10
10
10
10
10
10
10
10
10
10
10
10
10
10
10
10
10
10
10
10
10
10
10
10
10
10
10
10
10
10
10
10
10
10
10
10
10
10
10
10
10
10
10
10
10
10
10
10
10
10
10
10
10
10
10
10
10
10
10
10
10
10
10
10
10
10
10
10
10
10
10
10
10
10
10
10
10
10
10
10
10
10
10
10
10
10
10
10
10
10
10
10
10
10
10
10
10
10
10
10
10
10
10
10
10
10
10
10
10
10
10
10
10
10
10
10
10
10
10
10
10
10
10
10
10
10
10
10
10
10
10
10
10
10
10
10
10
10
10
10
10
10
10
10
10
10
10
10
10
10
10
10
10
10
10
10
10
10
10
10
10
10
10
10
10
10
10
10
10
10
10
10
10
10
10
10
10
10
10
10
10
10
10
10
10
10
10
10
10
10
10
10
10
10
10
10
10
10
10
10
10
10
10
10
10
10
10
10
10
10
10
10
10
10
10
10
10
10
10
10
10
10
10
10
10
10
10
10
10
10
10
10
10
10
10
10
10
10
10
10
10
10
10
10
10
10
10
10
10
10
10
10
10
10
10
10
10
10
10
10
10
10
10
10
10
10
10
10
10
10
10
10
10
10
10
10
10
10
10
10
10
10
10
10
10
10
10
10
10
10
10
10
10
10
10
10
10
10
10
10
10
10
10
10
10
10
10
10
10
10
10
10
10
10
10
10
10
10
10
10
10
10
10
10
10
10
10
10
10
10
10
10
10
10
10
10
10
10
10
10
10
10
10
10
10
10
10
10
10
10
10
10
10
10
10
10
10
10
10
10
10
10
10
10
10
10
10
10
10
10
10
10
10
10
10
10
10
10
10
10
10
10
10
10
10
10
10
10
10
10
10
10
10
10
10
10
10
10
10
10
10
10
10
10
10
10
10
10
10
10
10
10
10
10
10
10
10
10
10
10
10
10
10
10
10
10
10
10
10
10
10
10
10
10
10
10
10
10
10
10
10
10
10
10
10
10
10
10
10
10
10
10
10
10
10
10
10
10
10
10
10
10
10
10
10
10
10
10
10
10
10
10
10
10
10
10
10
10
10
10
10
10
10
10
10
10
10
10
10
10
10
10
10
10
10
10
10
10
10
10
10
10
10
10
10
10
10
10
10
10
10
10
10
10
10
10
10
10
10
10
10
10
10
10
10
10
10
10
10
10
10
10
10
10
10
10
10
10
10
10
10
10
10
10
10
10
10
10
10
10
10
10
10
10
10
10
10
10
10
10
10
10
10
10
10
10
10
10
10
10
10
10
10
10
10
10
10
10
10
10
10
10
10
10
10
10
10
10
10
10
10
10
10
10
10
10
10
10
10
10
10
10
10
10
10
10
10
10
10
10
10
10
10
10
10
10
10
10
10
10
10
10
10
10
10
10
10
10
10
10
10
10
10
10
10
10
10
10
10
10
10
10
10
10
10
10
10
10
10
10
10
10
10
10
10
10
10
10
10
10
10
10
10
10
10
10
10
10
10
10
10
10
10
10
10
10
10
10
10
10
10
10
10
10
10
10
10
10
10
10
10
10
10
10
10
10
10
10
10
10
10
10
10
10
10
10
10
10
10
10
10
10
10
10
10
10
10
10
10
10
10
10
10
10
10
10
10
10
10
10
10
10
10
10
10
10
10
10
10
10
10
10
10
10
10
10
10
10
10
10
10
10
10
10
10
10
10
10
10
10
10
10
10
10
10
10
10
10
10
10
10
10
10
10
10
10
10
10
10
10
10
10
10
10
10
10
10
10
10
10
10
10
10
10
10
10
10
10
10
10
10
10
10
10
10
10
10
10
10
10
10
10
10
10
10
10
10
10
10
10
10
10
10
10
10
10
10
10
10
10
10
10
10
10
10
10
10
10
10
10
10
10
10
10
10
10
10
10
10
10
10
10
10
10
10
10
10
10
10
10
10
10
10
10
10
10
10
10
10
10
10
10
10
10
10
10
10
10
10
10
10
10
10
10
10
10
10
10
10
10
10
10
10
10
10
10
10
10
10
10
10
10
10
10
10
10
10
10
10
10
10
10
10
10
10
10
10
10
10
10
10
10
10
10
10
10
10
10
10
10
10
10
10
10
10
10
10
10
10
10
10
10
10
10
10
10
10
10
10
10
10
10
10
10
10
10
10
10
10
10
10
10
10
10
10
10
10
10
10
10
10
10
10
10
10
10
10
10
10
10
10
10
10
10
10
10
10
10
10
10
10
10
10
10
10
10
10
10
10
10
10
10
10
10
10
10
10
10
10
10
10
10
10
10
10
10
10
10
10
10
10
10
10
10
10
10
10
10
10
10
10
10
10
10
10
10
10
10
10
10
10
10
10
10
10
10
10
10
10
10
10
10
10
10
10
10
10
10
10
10
10
10
10
10
10
10
10
10
10
10
10
10
10
10
10
10
10
10
10
10
10
10
10
10
10
10
10
10
10
10
10
10
10
10
10
10
10
10
10
10
10
10
10
10
10
10
10
10
10
10
10
10
10
10
10
10
10
10
10
10
10
10
10
10
10
10
10
10
10
10
10
10
10
10
10
10
10
10
10
10
10
10
10
10
10
10
10
10
10
10
10
10
10
10
10
10
10
10
10
10
10
10
10
10
10
10
10
10
10
10
10
10
10
10
10
10
10
10
10
10
10
10
10
10
10
10
10
10
10
10
10
10
10
10
10
10
10
10
10
10
10
10
10
10
10
10
10
10
10
10
10
10
10
10
10
10
10
10
10
10
10
10
10
10
10
10
10
10
10
10
10
10
10
10
10
10
10
10
10
10
10
10
10
10
10
10
10
10
10
10
10
10
10
10
10
10
10
10
10
10
10
10
10
10
10
10
10
10
10
10
10
10
10
10
10
10
10
10
10
10
10
10
10
10
10
10
10
10
10
10
10
10
10
10
10
10
10
10
10
10
10
10
10
10
10
10
10
10
10
10
10
10
10
10
10
10
10
10
10
10
10
10
10
10
10
10
10
10
10
10
10
10
10
10
10
10
10
10
10
10
10
10
10
10
10
10
10
10
10
10
10
10
10
10
10
10
10
10
10
10
10
10
10
10
10
10
10
10
10
10
10
10
10
10
10
10
10
10
10
10
10
10
10
10
10
10
10
10
10
10
10
10
10
10
10
10
10
10
10
10
10
10
10
10
10
10
10
10
10
10
10
10
10
10
10
10
10
10
10
10
10
10
10
10
10
10
10
10
10
10
10
10
10
10
10
10
10
10
10
10
10
10
10
10
10
10
10
10
10
10
10
10
10
10
10
10
10
10
10
10
10
10
10
10
10
10
10
10
10
10
10
10
10
10
10
10
10
10
10
10
10
10
10
10
10
10
10
10
10
10
10
10
10
10
10
10
10
10
10
10
10
10
10
10
10
10
10
10
10
10
10
10
10
10
10
10
10
10
10
10
10
10
10
10
10
10
10
10
10
10
10
10
10
10
10
10
10
10
10
10
10
10
10
10
10
10
10
10
10
10
10
10
10
10
10
10
10
10
10
10
10
10
10
10
10
10
10
10
10
10
10
10
10
10
10
10
10
10
10
10
10
10
10
10
10
10
10
10
10
10
10
10
10
10
10
10
10
10
10
10
10
10
10
10
10
10
10
10
10
10
10
10
10
10
10
10
10
10
10
10
10
10
10
10
10
10
10
10
10
10
10
10
10
10
10
10
10
10
10
10
10
10
10
10
10
10
10
10
10
10
10
10
10
10
10
10
10
10
10
10
10
10
10
10
10
10
10
10
10
10
10
10
10
10
10
10
10
10
10
10
10
10
10
10
10
10
10
10
10
10
10
10
10
10
10
10
10
10
10
10
10
10
10
10
10
10
10
10
10
10
10
10
10
10
10
10
10
10
10
10
10
10
10
10
10
10
10
10
10
10
10
10
10
10
10
10
10
10
10
10
10
10
10
10
10
10
10
10
10
10
10
10
10
10
10
10
10
10
10
10
10
10
10
10
10
10
10
10
10
10
10
10
10
10
10
10
10
10
10
10
10
10
10
10
10
10
10
10
10
10
10
10
10
10
10
10
10
10
10
10
10
10
10
10
10
10
10
10
10
10
10
10
10
10
10
10
10
10
10
10
10
10
10
10
10
10
10
10
10
10
10
10
10
10
10
10
10
10
10
10
10
10
10
10
10
10
10
10
10
10
10
10
10
10
10
10
10
10
10
10
10
10
10
10
10
10
10

CELL_DATA 2123
SCALARS part_ids int
LOOKUP_TABLE default
0
0
0
0
0
0
0
0
0
0
0
0
0
0
0
0
0
0
0
0
0
0
0
0
0
0
0
0
0
0
0
0
0
0
0
0
0
0
0
0
0
0
0
0
0
0
0
0
0
0
0
0
0
0
0
0
0
0
0
0
0
0
0
0
0
0
0
0
0
0
0
0
0
0
0
0
0
0
0
0
0
0
0
0
0
0
0
0
0
0
0
0
0
0
0
0
0
0
0
0
0
0
0
0
0
0
0
0
0
0
0
0
0
0
0
0
0
0
0
0
0
0
0
0
0
0
0
0
0
0
0
0
0
0
0
0
0
0
0
0
0
0
0
0
0
0
0
0
0
0
0
0
0
0
0
0
0
0
0
0
0
0
0
0
0
0
0
0
0
0
0
0
0
0
0
0
0
0
0
0
0
0
0
0
0
0
0
0
0
0
0
0
0
0
0
0
0
0
0
0
0
0
0
0
0
0
0
0
0
0
0
0
0
0
0
0
0
0
0
0
0
0
0
0
0
0
0
0
0
0
0
0
0
0
0
0
0
0
0
0
0
0
0
0
0
0
0
0
0
0
0
0
0
0
0
0
0
0
0
0
0
0
0
0
0
0
0
0
0
0
0
0
0
0
0
0
0
0
0
0
0
0
0
0
0
0
0
0
0
0
0
0
0
0
0
0
0
0
0
0
0
0
0
0
0
0
0
0
0
0
0
0
0
0
0
0
0
0
0
0
0
0
0
0
0
0
0
0
0
0
0
0
0
0
0
0
0
0
0
0
0
0
0
0
0
0
0
0
0
0
0
0
0
0
0
0
0
0
0
0
0
0
0
0
0
0
0
0
0
0
0
0
0
0
0
0
0
0
0
0
0
0
0
0
0
0
0
0
0
0
0
0
0
0
0
0
0
0
0
0
0
0
0
0
0
0
0
0
0
0
0
0
0
0
0
0
0
0
0
0
0
0
0
0
0
0
0
0
0
0
0
0
0
0
0
0
0
0
0
0
0
0
0
0
0
0
0
0
0
0
0
0
0
0
0
0
0
0
0
0
0
0
0
0
0
0
0
0
0
0
0
0
0
0
0
0
0
0
0
0
0
0
0
0
0
0
0
0
0
0
0
0
0
0
0
0
0
0
0
0
0
0
0
0
0
0
0
0
0
0
0
0
0
0
0
0
0
0
0
0
0
0
0
0
0
0
0
0
0
0
0
0
0
0
0
0
0
0
0
0
0
0
0
0
0
0
0
0
0
0
0
0
0
0
0
0
0
0
0
0
0
0
0
0
0
0
0
0
0
0
0
0
0
0
0
0
0
0
0
0
0
0
0
0
0
0
0
0
0
0
0
0
0
0
0
0
0
0
0
0
0
0
0
0
0
0
0
0
0
0
0
0
0
0
0
0
0
0
0
0
0
0
0
0
0
0
0
0
0
0
0
0
0
0
0
0
0
0
0
0
0
0
0
0
0
0
0
0
0
0
0
0
0
0
0
0
0
0
0
0
0
0
0
0
0
0
0
0
0
0
0
0
0
0
0
0
0
0
0
0
0
0
0
0
0
0
0
0
0
0
0
0
0
0
0
0
0
0
0
0
0
0
0
0
0
0
0
0
0
0
0
0
0
0
0
0
0
0
0
0
0
0
0
0
0
0
0
0
0
0
0
0
0
0
0
0
0
0
0
0
0
0
0
0
0
0
0
0
0
0
0
0
0
0
0
0
0
0
0
0
0
0
0
0
0
0
0
0
0
0
0
0
0
0
0
0
0
0
0
0
0
0
0
0
0
0
0
0
0
0
0
0
0
0
0
0
0
0
0
0
0
0
0
0
0
0
0
0
0
0
0
0
0
0
0
0
0
0
0
0
0
0
0
0
0
0
0
0
0
0
0
0
0
0
0
0
0
0
0
0
0
0
0
0
0
0
0
0
0
0
0
0
0
0
0
0
0
0
0
0
0
0
0
0
0
0
0
0
0
0
0
0
0
0
0
0
0
0
0
0
0
0
0
0
0
0
0
0
0
0
0
0
0
0
0
0
0
0
0
0
0
0
0
0
0
0
0
0
0
0
0
0
0
0
0
0
0
0
0
0
0
0
0
0
0
0
0
0
0
0
0
0
0
0
0
0
0
0
0
0
0
0
0
0
0
0
0
0
0
0
0
0
0
0
0
0
0
0
0
0
0
0
0
0
0
0
0
0
0
0
0
0
0
0
0
0
0
0
0
0
0
0
0
0
0
0
0
0
0
0
0
0
0
0
0
0
0
0
0
0
0
0
0
0
0
0
0
0
0
0
0
0
0
0
0
0
0
0
0
0
0
0
0
0
0
0
0
0
0
0
0
0
0
0
0
0
0
0
0
0
0
0
0
0
0
0
0
0
0
0
0
0
0
0
0
0
0
0
0
0
0
0
0
0
0
0
0
0
0
0
0
0
0
0
0
0
0
0
0
0
0
0
0
0
0
0
0
0
0
0
0
0
0
0
0
0
0
0
0
0
0
0
0
0
0
0
0
0
0
0
0
0
0
0
0
0
0
0
0
0
0
0
0
0
0
0
0
0
0
0
0
0
0
0
0
0
0
0
0
0
0
0
0
0
0
0
0
0
0
0
0
0
0
0
0
0
0
0
0
0
0
0
0
0
0
0
0
0
0
0
0
0
0
0
0
0
0
0
0
0
0
0
0
0
0
0
0
0
0
0
0
0
0
0
0
0
0
0
0
0
0
0
0
0
0
0
0
0
0
0
0
0
0
0
0
0
0
0
0
0
0
0
0
0
0
0
0
0
0
0
0
0
0
0
0
0
0
0
0
0
0
0
0
0
0
0
0
0
0
0
0
0
0
0
0
0
0
0
0
0
0
0
0
0
0
0
0
0
0
0
0
0
0
0
0
0
0
0
0
0
0
0
0
0
0
0
0
0
0
0
0
0
0
0
0
0
0
0
0
0
0
0
0
0
0
0
0
0
0
0
0
0
0
0
0
0
0
0
0
0
0
0
0
0
0
0
0
0
0
0
0
0
0
0
0
0
0
0
0
0
0
0
0
0
0
0
0
0
0
0
0
0
0
0
0
0
0
0
0
0
0
0
0
0
0
0
0
0
0
0
0
0
0
0
0
0
0
0
0
0
0
0
0
0
0
0
0
0
0
0
0
0
0
0
0
0
0
0
0
0
0
0
0
0
0
0
0
0
0
0
0
0
0
0
0
0
0
0
0
0
0
0
0
0
0
0
0
0
0
0
0
0
0
0
0
0
0
0
0
0
0
0
0
0
0
0
0
0
0
0
0
0
0
0
0
0
0
0
0
0
0
0
0
0
0
0
0
0
0
0
0
0
0
0
0
0
0
0
0
0
0
0
0
0
0
0
0
0
0
0
0
0
0
0
0
0
0
0
0
0
0
0
0
0
0
0
0
0
0
0
0
0
0
0
0
0
0
0
0
0
0
0
0
0
0
0
0
0
0
0
0
0
0
0
0
0
0
0
0
0
0
0
0
0
0
0
0
0
0
0
0
0
0
0
0
0
0
0
0
0
0
0
0
0
0
0
0
0
0
0
0
0
0
0
0
0
0
0
0
0
0
0
0
0
0
0
0
0
0
0
0
0
0
0
0
0
0
0
0
0
0
0
0
0
0
0
0
0
0
0
0
0
0
0
0
0
0
0
0
0
0
0
0
0
0
0
0
0
0
0
0
0
0
0
0
0
0
0
0
0
0
0
0
0
0
0
0
0
0
0
0
0
0
0
0
0
0
0
0
0
0
0
0
0
0
0
0
0
0
0
0
0
0
0
0
0
0
0
0
0
0
0
0
0
0
0
0
0
0
0
0
0
0
0
0
0
0
0
0
0
0
0
0
0
0
0
0
0
0
0
0
0
0
0
0
0
0
0
0
0
0
0
0
0
0
0
0
0
0
0
0
0
0
0
0
0
0
0
0
0
0
0
0
0
0
0
0
0
0
0
0
0
0
0
0
0
0
0
0
0
0
0
0
0
0
0
0
0
0
0
0
0
0
0
0
0
0
0
0
0
0
0
0
0
0
0
0
0
0
0
0
0
0
0
0
0
0
0
0
0
0
0
0
0
0
0
0
0
0
0
0
0
0
0
0
0
0
0
0
0
0
0
0
0
0
0
0
0
0
0
0
0
0
0
0
0
0
0
0
0
0
0
0
0
0
0
0
0
0
0
0
0
0
0
0
0
0
0
0
0
0
0
0
0
0
0
0
0
0
0
0
0
0
0
0
0
0
0
0
0
0
0
0
0
0
0
0
0
0
0
0
0
0
0
0
0
0
0
0
0
0
0
0
0
0
0
0
0
0
0
0
0
0
0
0
0
0
0
0
0
0
0
0
0
0
0
0
0
0
0
0
0
0
0
0
0
0
0
0
0
0
0
0
0
0
0
0
0
0
0
0
0
0
0
0
0
0
0
0
0
0
0
0
0
0
0
0
0
0
0
0
0
0
0
0
0
0
0
0
0
0
0
0
0
0
0
0
0
0
0
0
0
0
0
0
0
0
0
0
0
0
0
0
0
0
0
0
0
0
0
0
0
0
0
0
0
0
0
0
0
0
0
0
0
0
0
0
0
0
0
0
0
0
0
0
0
0
0
0
0
0
0
0
0
0
0
0
0
0
0
0
0
0
0
0
0
0
0
0
0
0
0
0
0
0
0
0
0
0
0
0
0
0
0
0
0
0
0
0
0
0
0
0
0
0
0
0
0
0
0
0
0
0
0
0
0
0
0
0
0
0
0
0
0
0
0
0
0
0
0
0
0
0
0
0
0
0
0
0
0
0
0
0
