# vtk DataFile Version 3.0
vtk output
ASCII
DATASET UNSTRUCTURED_GRID
POINTS 1033 float
3.79956 -35.302 -2.22378 3.82407 -35.2698 -2.29504 3.85471 -35.3337 -2.17033 
3.78322 -35.3296 -2.11041 3.72194 -35.2534 -2.28047 3.89556 -35.3414 -2.20273 
3.85675 -35.3505 -2.05858 3.73624 -35.1895 -2.34363 3.86697 -35.2358 -2.33229 
3.93029 -35.3859 -2.04401 3.71172 -35.3129 -2.18329 3.81998 -35.3614 -1.89986 
3.64023 -35.2031 -2.33715 3.76279 -35.1301 -2.37278 3.9548 -35.3473 -2.23512 
3.74849 -35.3383 -1.96303 3.6484 -35.1192 -2.38412 3.66474 -35.0498 -2.3987 
3.88535 -35.1963 -2.29828 3.98135 -35.3011 -2.21568 3.9977 -35.4131 -2.05858 
3.67904 -35.3423 -2.04887 3.64023 -35.2915 -2.26103 3.89352 -35.4099 -1.86423 
3.66883 -35.3582 -1.82212 3.55853 -35.1636 -2.39708 3.773 -35.1002 -2.32743 
4.03038 -35.3686 -2.04725 3.61572 -35.3573 -2.14766 3.60959 -35.3596 -1.92416 
3.79547 -35.4485 -1.69256 3.73011 -35.3881 -1.74438 3.581 -34.9822 -2.43919 
3.5667 -35.0639 -2.43433 3.65862 -35.0267 -2.34849 3.93029 -35.2693 -2.18005 
3.84858 -35.2058 -2.24969 3.97114 -35.3147 -2.03105 3.9977 -35.4213 -1.84156 
3.96297 -35.4589 -1.86099 3.56261 -35.2711 -2.33877 3.58508 -35.4249 -1.62777 
3.53606 -35.3863 -1.72333 3.7056 -35.5219 -1.46419 3.6627 -35.4308 -1.50468 
3.59121 -35.3523 -1.59052 3.52993 -35.3047 -1.70713 3.47886 -35.3061 -1.84318 
3.42371 -35.3315 -1.98084 3.51767 -35.3097 -2.04401 3.581 -35.2834 -2.13146 
3.60755 -35.2308 -2.21568 3.61776 -35.1564 -2.27237 3.63615 -35.0816 -2.31124 
3.51767 -34.94 -2.50397 3.47478 -34.9228 -2.57037 3.45231 -34.911 -2.63678 
3.45052 -34.9098 -2.64587 3.48908 -35.1401 -2.46186 3.74645 -35.1387 -2.27885 
3.93642 -35.3446 -1.83994 3.54627 -35.3886 -2.03753 3.54423 -35.3705 -2.25455 
3.85471 -35.5156 -1.6634 3.64227 -35.4907 -1.55813 3.49316 -35.3886 -1.83994 
3.43597 -35.4575 -1.42532 3.88535 -35.4825 -1.63101 3.74645 -35.3138 -1.71523 
3.66474 -35.2757 -1.81079 3.58916 -35.2779 -1.92578 3.70151 -35.2367 -2.15252 
3.50337 -35.0312 -2.49587 3.45844 -35.0199 -2.56228 3.42984 -35.0176 -2.63192 
3.4344 -34.9525 -2.67533 3.43679 -34.9478 -2.66939 3.44502 -34.9075 -2.64542 
3.41194 -34.8939 -2.64277 3.40328 -34.8915 -2.62058 3.42984 -34.9038 -2.54446 
3.4809 -34.9219 -2.46672 3.55648 -34.9641 -2.39384 3.51563 -35.1314 -2.33391 
3.51359 -35.2299 -2.28694 3.44005 -35.3528 -2.16386 3.3032 -35.341 -1.95493 
3.36447 -35.3228 -1.66664 3.87922 -35.2566 -2.1509 3.72194 -35.19 -2.22864 
3.8445 -35.2838 -1.88529 3.83224 -35.3886 -1.65045 3.44005 -35.4122 -1.96951 
3.47273 -35.429 -2.16386 3.49316 -35.2575 -2.41813 3.47682 -35.3755 -2.35983 
3.36652 -35.4049 -1.68122 3.42984 -35.5192 -1.48039 3.45844 -35.5419 -1.36378 
3.6627 -35.2607 -2.04077 3.41146 -35.0149 -2.70966 3.4198 -34.9791 -2.70966 
3.42323 -34.973 -2.70147 3.4329 -34.9553 -2.67884 3.39889 -34.8888 -2.6419 
3.52993 -35.0348 -2.36631 3.4952 -35.3088 -2.22702 3.35426 -35.3709 -2.12013 
3.33588 -35.3242 -1.80917 3.25213 -35.3709 -2.10069 3.3992 -35.3723 -1.53384 
3.4421 -35.1328 -2.53312 3.81386 -35.2281 -2.19139 3.88331 -35.272 -2.04887 
3.68721 -35.5564 -1.50306 3.39716 -35.4448 -1.57432 3.3032 -35.4235 -1.93873 
3.33996 -35.4072 -1.80431 3.17246 -35.4535 -1.43018 3.75054 -35.2553 -1.95493 
3.79343 -35.248 -2.09583 3.40941 -35.1355 -2.61248 3.39103 -35.1382 -2.69832 
3.41427 -34.9919 -2.72623 3.38899 -34.9954 -2.5234 3.37473 -34.9241 -2.66544 
3.35426 -34.9954 -2.60762 3.44618 -35.0054 -2.44081 3.42984 -35.1183 -2.40841 
3.41554 -35.3274 -2.32905 3.28277 -35.4104 -2.25617 3.17451 -35.3247 -1.96141 
3.17655 -35.3097 -1.81888 3.16838 -35.37 -1.54355 3.36856 -35.4516 -2.10393 
3.42575 -35.3777 -2.46348 3.44005 -35.2525 -2.50073 3.40328 -35.4603 -2.29342 
3.17246 -35.443 -1.58242 3.45231 -35.58 -1.40265 3.25009 -35.4516 -2.07802 
3.17042 -35.3922 -1.81564 3.17246 -35.5337 -1.36054 3.38082 -35.1337 -2.79226 
3.40487 -35.0124 -2.75407 3.40725 -35.0075 -2.74663 3.414 -34.9925 -2.727 
3.36972 -34.9314 -2.67034 3.3676 -34.9345 -2.67241 3.36238 -34.9405 -2.6806 
3.352 -34.9525 -2.69686 3.33179 -34.9936 -2.69508 3.42984 -35.2312 -2.37116 
3.36243 -35.3881 -2.28856 3.15204 -35.3555 -2.10231 3.17042 -35.3183 -1.67798 
3.29502 -35.4907 -2.2416 3.17042 -35.3995 -1.69417 3.17655 -35.5179 -1.48201 
3.16225 -35.4054 -1.94521 2.89671 -35.4208 -1.51116 3.40737 -35.2553 -2.58981 
3.38899 -35.2589 -2.6886 3.39488 -35.0393 -2.79226 3.39857 -35.0291 -2.77848 
3.4026 -35.0184 -2.76286 3.3706 -35.1169 -2.49587 3.33179 -35.1242 -2.58819 
3.30932 -35.1296 -2.68536 3.34774 -34.9585 -2.70477 3.34168 -34.9669 -2.71636 
3.3563 -35.3405 -2.43919 3.19289 -35.4063 -2.23836 3.22762 -35.4417 -2.38574 
3.02539 -35.2852 -1.86261 3.10506 -35.3891 -2.23026 3.06216 -35.336 -2.11203 
2.9825 -35.2974 -1.73304 3.35426 -35.4807 -2.41813 3.39103 -35.3827 -2.56875 
3.24192 -35.5224 -2.3744 2.9825 -35.3782 -1.74924 3.17451 -35.5741 -1.39779 
2.91509 -35.4861 -1.55975 3.1357 -35.434 -2.07802 3.01722 -35.3677 -1.86099 
2.86607 -35.5043 -1.44638 2.93756 -35.3451 -1.61158 3.37673 -35.2571 -2.79388 
3.37469 -35.1233 -2.88619 3.38142 -35.0923 -2.8604 3.38169 -35.0915 -2.85841 
3.39164 -35.0519 -2.80887 3.3942 -35.042 -2.79578 3.29707 -35.1265 -2.78254 
3.32419 -34.9908 -2.74932 3.33003 -34.9828 -2.73832 3.36856 -35.2367 -2.4651 
3.30728 -35.4131 -2.41165 3.05808 -35.3033 -1.99218 3.02131 -35.3632 -2.22054 
3.18881 -35.4857 -2.21568 2.94777 -35.419 -1.64883 3.04174 -35.4131 -2.08773 
3.08872 -35.4662 -2.20435 3.04378 -35.3832 -1.97598 2.68223 -35.4067 -1.63911 
3.3706 -35.3886 -2.68051 3.35426 -35.3886 -2.79874 3.37811 -35.1012 -2.88469 
3.32975 -35.2448 -2.56713 3.31554 -35.0135 -2.78254 3.32393 -34.9915 -2.75027 
3.32123 -34.9986 -2.76066 3.31566 -35.0131 -2.78211 3.30728 -35.2512 -2.67565 
3.31749 -35.3514 -2.55256 3.13978 -35.4376 -2.36469 3.04991 -35.4163 -2.34849 
3.18676 -35.4648 -2.51207 2.90079 -35.2725 -1.93226 2.99475 -35.3201 -2.11689 
2.8293 -35.2834 -1.8205 3.2031 -35.5451 -2.50559 3.32158 -35.4952 -2.5396 
3.13366 -35.5179 -2.34525 2.83543 -35.3641 -1.8367 2.89466 -35.355 -1.93064 
2.87832 -35.5455 -1.48039 2.71491 -35.4707 -1.68122 2.99884 -35.4389 -2.19301 
2.63116 -35.4947 -1.58728 2.75372 -35.3301 -1.72009 3.342 -35.3813 -2.91696 
3.3706 -35.2485 -2.90077 3.37279 -35.1176 -2.93044 3.37396 -35.1142 -2.91987 
3.31327 -35.0219 -2.79369 3.30946 -35.0362 -2.81246 3.30573 -35.0504 -2.83024 
3.29094 -35.116 -2.88133 3.29502 -35.2494 -2.78578 3.26847 -35.4308 -2.53312 
2.96003 -35.2925 -2.04077 2.96003 -35.3813 -2.32581 2.94573 -35.3292 -2.18653 
3.03152 -35.4934 -2.3242 2.77619 -35.4036 -1.75248 2.97637 -35.3972 -2.09421 
2.94573 -35.3727 -2.02457 2.52903 -35.4027 -1.79135 3.29502 -35.5043 -2.66431 
3.27256 -35.5052 -2.79388 3.3706 -35.1308 -2.97009 3.37233 -35.1204 -2.93882 
3.29298 -35.3587 -2.66917 3.29881 -35.0756 -2.86203 3.29623 -35.0817 -2.87882 
3.27868 -35.3578 -2.7874 3.09484 -35.4616 -2.48939 2.99884 -35.4362 -2.46672 
3.15612 -35.4775 -2.64002 2.79253 -35.2671 -2.02457 2.87424 -35.3364 -2.28209 
2.8722 -35.2902 -2.11527 2.7047 -35.277 -1.93226 3.08667 -35.5428 -2.47482 
3.17246 -35.5582 -2.6384 2.97841 -35.5142 -2.44728 2.7864 -35.3496 -2.02295 
2.71695 -35.3578 -1.94683 2.65567 -35.5351 -1.61643 2.57193 -35.4653 -1.82698 
2.92326 -35.4054 -2.16386 2.93552 -35.4566 -2.30152 2.47184 -35.4911 -1.7541 
2.61482 -35.3242 -1.85289 3.25417 -35.4961 -2.92182 3.33179 -35.3673 -3.03196 
3.36447 -35.2344 -3.00604 3.36959 -35.1313 -2.98574 3.37031 -35.1321 -2.97393 
3.28685 -35.2394 -2.89429 3.2895 -35.1071 -2.94988 3.29188 -35.0985 -2.92346 
3.26643 -35.3482 -2.90563 3.24192 -35.4403 -2.65783 2.90284 -35.394 -2.43757 
2.64342 -35.3968 -1.88043 2.85585 -35.37 -2.10069 2.84973 -35.4122 -2.25941 
2.41464 -35.3999 -1.95655 3.14591 -35.561 -2.77444 3.36919 -35.1279 -3.06214 
3.36933 -35.1283 -3.04116 3.36944 -35.1295 -3.01839 3.28873 -35.1144 -2.97165 
3.28941 -35.1079 -2.95243 3.22149 -35.4408 -2.78416 3.05603 -35.4757 -2.61734 
2.78845 -35.2906 -2.21568 2.84973 -35.4027 -2.55742 2.80683 -35.3419 -2.39222 
2.60052 -35.2734 -2.06344 3.04786 -35.5578 -2.60762 2.87424 -35.4693 -2.41651 
2.61482 -35.3541 -2.07478 2.50248 -35.5301 -1.78001 2.46367 -35.4603 -1.9857 
2.76802 -35.37 -2.19949 2.35949 -35.4879 -1.93226 2.50452 -35.3201 -2.00028 
3.12344 -35.5532 -2.90725 3.23987 -35.4793 -3.04491 3.32566 -35.3478 -3.14695 
3.36243 -35.2167 -3.11132 3.36848 -35.1274 -3.08733 3.28824 -35.1161 -2.98092 
3.28277 -35.224 -3.00118 3.28839 -35.1164 -2.97751 3.25826 -35.3319 -3.02224 
3.2031 -35.4317 -2.90887 3.02335 -35.4802 -2.74691 2.9539 -35.4485 -2.58981 
3.12753 -35.4802 -2.76958 2.69653 -35.2648 -2.13794 2.71287 -35.2925 -2.33229 
2.93143 -35.5269 -2.57685 3.01518 -35.5628 -2.74367 2.81909 -35.478 -2.54122 
2.6904 -35.3478 -2.1347 2.53924 -35.3918 -2.02457 2.77823 -35.4172 -2.37278 
2.32477 -35.3968 -2.12823 2.4126 -35.3165 -2.159 3.10506 -35.5365 -3.03844 
3.37095 -35.0991 -3.16534 3.36926 -35.1194 -3.12268 3.36862 -35.1271 -3.10644 
3.36849 -35.1274 -3.08801 3.28611 -35.112 -3.0634 3.28661 -35.1124 -3.04477 
2.91509 -35.4535 -2.71614 2.74759 -35.3455 -2.51369 2.61278 -35.2639 -2.26751 
2.60665 -35.346 -2.26427 2.45141 -35.3872 -2.18005 2.39421 -35.5247 -1.95331 
2.68836 -35.3709 -2.31934 2.2737 -35.4852 -2.11203 2.98658 -35.5578 -2.87972 
3.22762 -35.4566 -3.16638 3.31954 -35.3242 -3.26032 3.36243 -35.1954 -3.21821 
3.37123 -35.0922 -3.18193 3.37095 -35.0991 -3.16538 3.28072 -35.2036 -3.10808 
3.28567 -35.1117 -3.07986 3.28556 -35.1116 -3.0838 3.25213 -35.3106 -3.13561 
3.19085 -35.4145 -3.03034 3.10506 -35.473 -2.89915 2.80683 -35.4054 -2.68213 
2.69857 -35.3451 -2.64163 2.6475 -35.2925 -2.46186 2.51269 -35.2707 -2.20596 
2.89058 -35.5324 -2.70966 2.71491 -35.4199 -2.49911 2.52699 -35.351 -2.2173 
2.37992 -35.4544 -2.15414 2.25327 -35.394 -2.30314 2.8579 -35.5292 -2.84246 
2.96616 -35.5437 -3.01252 3.0928 -35.5124 -3.16476 3.37877 -35.0503 -3.27489 
3.37844 -35.0516 -3.26961 3.37625 -35.0649 -3.24525 3.37503 -35.0722 -3.23173 
3.37133 -35.0917 -3.18317 3.28783 -35.0833 -3.16862 3.2858 -35.1112 -3.11007 
3.28672 -35.0986 -3.13653 3.08872 -35.4566 -3.02386 2.88445 -35.4503 -2.84408 
2.9968 -35.4757 -2.87486 2.54333 -35.2612 -2.40841 2.43915 -35.2661 -2.35983 
2.7721 -35.4807 -2.67079 2.66384 -35.419 -2.6303 2.53516 -35.3432 -2.40679 
2.45549 -35.3469 -2.36954 2.31251 -35.5197 -2.12984 2.31251 -35.4489 -2.32581 
2.62095 -35.3705 -2.45052 2.33906 -35.3124 -2.3242 2.20629 -35.4834 -2.29504 
2.9539 -35.5224 -3.14371 3.08667 -35.4834 -3.28947 3.21945 -35.4285 -3.28623 
3.31954 -35.2965 -3.37693 3.36652 -35.17 -3.32672 3.37889 -35.0495 -3.27358 
3.28072 -35.18 -3.21659 3.28784 -35.0831 -3.16901 3.288 -35.0778 -3.18196 
3.24804 -35.2843 -3.2506 3.18064 -35.3913 -3.15019 2.77006 -35.4022 -2.80845 
2.5944 -35.2888 -2.59791 2.37992 -35.3818 -2.34201 2.27778 -35.307 -2.49263 
2.19608 -35.3909 -2.47968 2.83338 -35.5183 -2.97851 3.39103 -35.0172 -3.37369 
3.37898 -35.0491 -3.27432 3.29707 -35.0376 -3.27813 3.28949 -35.0714 -3.198 
3.29294 -35.0564 -3.23532 3.29575 -35.042 -3.26201 3.07646 -35.4335 -3.14695 
2.97433 -35.4621 -3.0028 2.74351 -35.3922 -2.93802 2.65976 -35.3401 -2.77282 
2.54946 -35.2816 -2.73881 2.48613 -35.2553 -2.5558 2.37787 -35.2593 -2.51855 
2.73534 -35.4775 -2.80521 2.56376 -35.3664 -2.59143 2.39421 -35.3396 -2.52826 
2.24919 -35.5156 -2.30962 2.32272 -35.3745 -2.50883 2.15318 -35.4816 -2.47806 
2.70674 -35.4675 -2.93964 2.81909 -35.5002 -3.11132 2.94777 -35.4956 -3.27166 
3.21536 -35.3959 -3.4077 3.37469 -35.1378 -3.44009 3.39219 -35.0031 -3.34514 
3.39186 -35.0043 -3.34352 3.3812 -35.0418 -3.28798 3.29738 -35.0353 -3.27456 
3.28685 -35.1514 -3.32672 3.24804 -35.2539 -3.36559 3.17246 -35.3628 -3.26842 
3.06829 -35.4049 -3.26842 2.96003 -35.4412 -3.12913 2.8579 -35.4389 -2.97203 
2.62095 -35.4135 -2.76796 2.51882 -35.3587 -2.73557 2.47592 -35.3374 -2.5558 
2.25736 -35.4421 -2.49911 2.22672 -35.3002 -2.66431 2.1491 -35.3868 -2.65945 
2.81092 -35.4766 -3.2425 3.08463 -35.4494 -3.41256 3.21332 -35.3564 -3.53403 
3.32158 -35.2616 -3.4984 3.39512 -34.9931 -3.35855 3.39452 -34.9952 -3.3558 
3.38694 -35.097 -3.55346 3.29765 -35.0342 -3.27659 3.17042 -35.3296 -3.38827 
3.06625 -35.3718 -3.38989 2.95186 -35.3845 -3.37693 2.83543 -35.3714 -3.35425 
2.719 -35.3337 -3.32672 2.70097 -35.3248 -3.32468 2.62912 -35.3301 -2.90725 
2.84156 -35.4213 -3.1016 2.43915 -35.2462 -2.70804 2.42894 -35.3283 -2.70966 
2.2737 -35.3659 -2.67889 2.19812 -35.5111 -2.49101 2.32681 -35.2503 -2.68051 
2.11029 -35.4793 -2.66107 2.68836 -35.4516 -3.07569 2.94982 -35.4643 -3.39798 
3.08667 -35.4086 -3.54051 3.40737 -34.9741 -3.46924 3.40847 -34.9393 -3.38152 
3.40504 -34.9579 -3.38973 3.40337 -34.967 -3.39374 3.31084 -34.9865 -3.34993 
3.30932 -35.0017 -3.37855 3.29999 -35.0262 -3.29153 3.30432 -35.0104 -3.31489 
3.31027 -34.9887 -3.34709 3.29502 -35.1156 -3.44009 3.17042 -35.2902 -3.51136 
3.06625 -35.3328 -3.51459 2.95594 -35.3487 -3.50164 2.84564 -35.3401 -3.47734 
2.70264 -35.3208 -3.34551 2.70143 -35.3237 -3.33049 2.69959 -35.3279 -3.30258 
2.83338 -35.3981 -3.22793 2.95186 -35.4149 -3.25384 2.60869 -35.3156 -3.04329 
2.72512 -35.3768 -3.06921 2.51677 -35.2707 -2.88295 2.40239 -35.2339 -2.8619 
2.59031 -35.4031 -2.90725 2.34519 -35.3301 -2.69022 2.21446 -35.4349 -2.67565 
2.288 -35.2394 -2.8457 2.11233 -35.3818 -2.84084 2.56988 -35.3886 -3.04815 
2.68223 -35.4312 -3.21011 2.815 -35.4494 -3.37369 3.21332 -35.3047 -3.66845 
3.32362 -35.2172 -3.62473 3.4278 -34.8657 -3.38179 3.40941 -34.9092 -3.30567 
3.40855 -34.9367 -3.37492 3.40971 -34.9337 -3.379 3.43188 -34.9296 -3.55508 
3.31369 -34.9765 -3.36333 3.25213 -35.2163 -3.48544 2.73125 -35.3079 -3.45143 
2.70397 -35.3176 -3.36076 2.69222 -35.3557 -3.33557 2.71695 -35.3569 -3.19877 
2.48613 -35.3473 -2.88457 2.39217 -35.316 -2.86676 2.30842 -35.3188 -2.85542 
2.15727 -35.5061 -2.67241 2.17974 -35.4272 -2.8538 2.18791 -35.292 -2.83922 
2.07761 -35.4761 -2.8457 2.62999 -35.42 -3.06662 2.65986 -35.4227 -3.17787 
2.68631 -35.4081 -3.34292 2.95594 -35.4276 -3.52755 3.08872 -35.3555 -3.67979 
3.32975 -35.1627 -3.75267 3.45639 -34.8185 -3.45629 3.45231 -34.7763 -3.31053 
3.40026 -34.963 -3.33954 3.40533 -35.0539 -3.66036 3.31502 -34.9725 -3.36883 
3.32194 -34.9513 -3.3973 3.32482 -34.9358 -3.39045 3.32814 -34.918 -3.38257 
3.31898 -34.946 -3.34486 3.32975 -34.8838 -3.30729 3.32771 -34.9532 -3.47572 
3.30932 -35.0693 -3.55185 3.25826 -35.1691 -3.61015 3.17042 -35.2394 -3.64254 
2.96207 -35.302 -3.63282 2.74964 -35.2788 -3.56804 2.69457 -35.3509 -3.44771 
2.69516 -35.338 -3.23626 2.65726 -35.3399 -3.06428 2.49635 -35.2562 -3.02872 
2.23897 -35.3559 -2.85218 2.26144 -35.2271 -3.01414 2.16135 -35.2834 -3.01738 
2.05718 -35.4725 -3.03196 2.62865 -35.4186 -3.07165 2.63079 -35.4204 -3.06692 
2.66337 -35.4216 -3.20676 2.66105 -35.4226 -3.18506 2.64765 -35.4249 -3.10641 
2.67292 -35.404 -3.3261 2.82726 -35.4176 -3.50164 2.96412 -35.3786 -3.66522 
3.21536 -35.2353 -3.8126 3.4809 -34.7278 -3.38503 3.43188 -34.818 -3.24574 
3.39716 -34.9432 -3.22307 3.3937 -34.9849 -3.30805 3.39791 -34.971 -3.3288 
3.46865 -34.8983 -3.63606 3.31633 -34.9553 -3.33236 3.31274 -34.9676 -3.31417 
3.31749 -34.9201 -3.22469 3.35018 -34.8366 -3.38827 3.06829 -35.2816 -3.64902 
2.8579 -35.3015 -3.60205 2.71748 -35.2648 -3.5651 2.71694 -35.2699 -3.54855 
2.71297 -35.2853 -3.49518 2.71175 -35.2912 -3.47517 2.71006 -35.2996 -3.44264 
2.67713 -35.3924 -3.38622 2.69349 -35.3418 -3.2116 2.68542 -35.37 -3.21765 
2.68257 -35.3438 -3.1494 2.65222 -35.3352 -3.08072 2.66278 -35.3428 -3.06605 
2.48613 -35.2389 -3.17448 2.37787 -35.2194 -3.019 2.46367 -35.3324 -3.03358 
2.28595 -35.3056 -3.02386 2.12663 -35.5011 -2.8538 2.21446 -35.3455 -3.02548 
2.08782 -35.3764 -3.02548 2.62 -35.4102 -3.10001 2.6344 -35.4083 -3.06599 
2.63831 -35.424 -3.07218 2.66647 -35.419 -3.22953 2.65771 -35.3945 -3.09999 
2.64536 -35.4249 -3.09638 2.67387 -35.402 -3.34139 2.66943 -35.4117 -3.27623 
2.70061 -35.3818 -3.47248 3.09076 -35.2788 -3.83365 3.34609 -35.1083 -3.8871 
3.43392 -35.0185 -3.76725 3.49725 -34.7831 -3.52755 3.40124 -34.7527 -3.31215 
3.38082 -34.7963 -3.24574 3.38461 -35.0163 -3.25844 3.38702 -35.0084 -3.27326 
3.38982 -34.9986 -3.28781 3.35426 -34.8997 -3.56966 3.31047 -34.9759 -3.30188 
3.30583 -34.9928 -3.27681 3.30343 -35.001 -3.26149 3.38286 -34.7822 -3.46924 
3.27051 -35.1088 -3.73648 3.17655 -35.1691 -3.78183 3.07033 -35.2072 -3.7964 
2.86402 -35.243 -3.73972 2.71037 -35.298 -3.44962 2.72108 -35.2393 -3.63132 
2.6947 -35.3473 -3.55692 2.68344 -35.3777 -3.45541 2.67492 -35.3992 -3.35593 
2.67434 -35.401 -3.34692 2.69017 -35.3433 -3.1943 2.68622 -35.3435 -3.17076 
2.67128 -35.3452 -3.08481 2.62635 -35.3951 -3.09682 2.65199 -35.3321 -3.10547 
2.6666 -35.3445 -3.06872 2.60052 -35.2979 -3.17934 2.45549 -35.3156 -3.18258 
2.3697 -35.3015 -3.02548 2.10824 -35.4961 -3.03681 2.15931 -35.4194 -3.03358 
2.1491 -35.2752 -3.19715 2.36766 -35.204 -3.1761 2.07965 -35.3718 -3.21173 
2.61986 -35.4076 -3.1202 2.72104 -35.3519 -3.59395 2.84156 -35.3773 -3.6312 
2.9682 -35.3052 -3.8207 3.09484 -35.1886 -3.99399 3.22557 -35.1587 -3.96322 
3.5238 -34.6901 -3.46439 3.43392 -34.7001 -3.3915 3.36652 -34.8303 -3.17772 
3.41963 -34.8512 -3.17934 3.39103 -34.9691 -3.13885 3.38217 -35.0278 -3.23718 
3.48908 -35.0045 -3.879 3.55036 -34.7718 -3.59233 3.32975 -35.0167 -3.6636 
3.43554 -34.9004 -2.72664 3.42575 -34.8979 -2.79388 3.41554 -34.8992 -2.8781 
3.40941 -34.8988 -2.95745 3.40737 -34.892 -3.03519 3.41146 -34.8761 -3.10808 
2.96616 -35.2312 -3.78183 2.76598 -35.238 -3.68627 2.72069 -35.236 -3.63899 
2.69207 -35.3461 -3.57094 2.68595 -35.3693 -3.49045 2.68512 -35.3715 -3.48163 
2.68435 -35.3743 -3.47067 2.63113 -35.366 -3.21596 2.65116 -35.3268 -3.15501 
2.60461 -35.277 -3.31377 2.56376 -35.3709 -3.18906 2.35949 -35.2861 -3.1842 
2.20425 -35.336 -3.20039 2.24919 -35.2149 -3.1842 2.05105 -35.4693 -3.22145 
2.84973 -35.3165 -3.77535 3.38694 -35.0716 -4.028 3.57895 -34.6888 -3.54537 
3.37577 -35.0575 -3.16977 3.37991 -35.0386 -3.21705 3.38157 -35.0306 -3.23188 
3.5238 -34.8879 -3.71218 3.40328 -34.8539 -3.66198 3.42119 -34.9352 -2.76697 
3.42825 -34.9178 -2.74759 3.42314 -34.93 -2.76226 3.40322 -34.983 -2.81337 
3.41025 -34.9635 -2.79293 3.39307 -35.0045 -2.8781 3.38899 -34.9976 -2.96555 
3.38694 -34.9868 -3.05301 3.30129 -35.0094 -3.24574 3.30043 -35.0128 -3.23945 
3.30932 -34.9473 -3.13723 3.35835 -34.8561 -3.10646 3.3563 -34.872 -3.03196 
3.3563 -34.8793 -2.95422 3.36447 -34.8793 -2.87324 3.37469 -34.8779 -2.7874 
3.39542 -34.8851 -2.72046 3.40545 -34.8889 -2.72168 3.43392 -34.7369 -3.55508 
3.3706 -34.9654 -3.77859 3.29911 -35.0425 -3.87576 3.0785 -35.1151 -3.95998 
2.96412 -35.1382 -3.94541 2.75781 -35.1741 -3.81584 2.6868 -35.3081 -3.66207 
2.69322 -35.3507 -3.55826 2.69047 -35.3389 -3.59081 2.61879 -35.3995 -3.19348 
2.64814 -35.3186 -3.20533 2.64892 -35.3224 -3.18742 2.3697 -35.1863 -3.33158 
2.64813 -35.3123 -3.23856 2.48818 -35.219 -3.317 2.56784 -35.3501 -3.32834 
2.27574 -35.2925 -3.19068 2.15114 -35.4131 -3.21335 2.25123 -35.2022 -3.35263 
2.08986 -35.3673 -3.40122 2.10212 -35.4916 -3.22145 2.96616 -35.2122 -3.98266 
3.25009 -35.1002 -4.12032 3.48295 -34.6575 -3.4822 3.37478 -35.0624 -3.15772 
3.37575 -35.0576 -3.16953 3.59938 -35.0299 -3.99399 3.60959 -34.8983 -3.77373 
3.60142 -34.7936 -3.65064 3.4185 -34.9422 -2.77325 3.41174 -34.9599 -2.7891 
3.39598 -35.0072 -2.8374 3.40232 -34.986 -2.81645 3.39639 -35.0058 -2.83602 
3.298 -35.0229 -3.22063 3.29275 -35.043 -3.17008 3.38427 -34.8807 -2.71902 
3.19289 -35.0865 -3.93569 2.85381 -35.1591 -3.89358 2.72047 -35.235 -3.64178 
2.68631 -35.1759 -3.75753 2.61889 -35.399 -3.19886 2.62004 -35.395 -3.22316 
2.64806 -35.3102 -3.2507 2.65254 -35.3008 -3.31919 2.15523 -35.2675 -3.37693 
2.06331 -35.4662 -3.41418 2.09803 -35.4634 -3.60853 2.15523 -35.4607 -3.8045 
2.23897 -35.4575 -4.00047 2.35132 -35.4539 -4.18672 2.49635 -35.4498 -4.36488 
2.68019 -35.4471 -4.52036 2.89875 -35.4453 -4.62887 3.14182 -35.4453 -4.67584 
2.36562 -35.2684 -3.3413 2.45958 -35.2961 -3.32996 2.62258 -35.3888 -3.26291 
2.28187 -35.2788 -3.35587 2.16135 -35.4067 -3.39474 2.73942 -35.3101 -3.71704 
2.8436 -35.233 -3.92921 2.95594 -35.1364 -4.13814 3.10302 -35.1169 -4.15433 
3.29298 -35.0943 -4.2677 3.55036 -34.6516 -3.57614 3.37121 -35.092 -3.07796 
3.37092 -35.093 -3.09188 3.37188 -35.0854 -3.108 3.37443 -35.0652 -3.15077 
3.45435 -35.0761 -4.16729 3.63819 -34.7505 -3.64092 3.50746 -34.7165 -3.63768 
3.45231 -34.9342 -3.90168 3.3905 -35.0312 -2.86066 3.38734 -35.0415 -2.88062 
3.37845 -35.0738 -2.94553 3.37523 -35.0853 -2.97027 3.3747 -35.0858 -2.97814 
3.37141 -35.0917 -3.07395 3.37129 -35.0919 -3.07637 3.29198 -35.0486 -3.15628 
3.30728 -34.9659 -3.04977 3.30728 -34.9768 -2.96069 3.31136 -34.9836 -2.87162 
3.33167 -34.9594 -2.80702 3.33621 -34.9521 -2.79896 3.3395 -34.9469 -2.79311 
3.34486 -34.938 -2.78477 3.36164 -34.9131 -2.75932 3.37874 -34.8888 -2.72833 
3.38169 -34.8846 -2.723 3.36039 -34.9936 -4.02962 3.2317 -35.0194 -4.10898 
2.95186 -35.0571 -4.11546 2.71333 -35.2211 -3.67473 2.7047 -35.107 -3.94379 
2.6994 -35.2058 -3.69802 2.68537 -35.3012 -3.68078 2.62187 -35.3903 -3.25284 
2.63878 -35.3499 -3.33224 2.65295 -35.2998 -3.32433 2.61891 -35.2548 -3.44171 
2.50452 -35.1981 -3.45467 2.27166 -35.1881 -3.51783 2.1205 -35.3623 -3.59071 
2.17565 -35.3564 -3.78183 2.25531 -35.3491 -3.97294 2.36153 -35.3414 -4.15757 
2.50656 -35.3328 -4.33573 2.68631 -35.326 -4.48959 2.90079 -35.3233 -4.5981 
3.14182 -35.3233 -4.64183 2.91509 -35.4648 -4.58028 2.70878 -35.4657 -4.47663 
2.53516 -35.468 -4.32763 2.39421 -35.4721 -4.15757 2.288 -35.4761 -3.9778 
2.20629 -35.4802 -3.78668 2.1491 -35.4838 -3.59719 2.11437 -35.4875 -3.40932 
2.58418 -35.3278 -3.45953 2.62719 -35.3791 -3.33564 2.21242 -35.326 -3.37531 
2.73534 -35.2471 -3.84823 3.50133 -35.1265 -4.28876 3.68313 -34.8861 -3.78992 
3.48295 -34.8294 -3.75267 3.38199 -35.0613 -2.91875 3.37343 -35.0882 -3.01443 
3.37262 -35.0897 -3.03749 3.29188 -35.0494 -3.15437 3.2882 -35.0772 -3.0955 
3.28871 -35.076 -3.07481 3.31466 -34.9858 -2.83568 3.32363 -34.9718 -2.82083 
3.35743 -34.919 -2.76666 3.35797 -34.9182 -2.76588 3.35845 -34.9175 -2.76501 
3.36129 -34.9136 -2.75995 3.0928 -35.0371 -4.13652 2.81909 -35.0816 -4.04744 
2.70971 -35.2119 -3.69341 2.68166 -35.2938 -3.69804 2.62095 -35.1314 -3.82394 
2.69479 -35.2082 -3.68749 2.70342 -35.2077 -3.69728 2.62748 -35.3785 -3.3391 
2.6571 -35.2901 -3.37539 2.65848 -35.286 -3.39624 2.38605 -35.1677 -3.4822 
2.17974 -35.2584 -3.5567 3.38286 -35.3179 -4.61268 3.14387 -35.4653 -4.62401 
2.47796 -35.2752 -3.47086 2.63239 -35.3657 -3.40449 2.30434 -35.2634 -3.51945 
2.19404 -35.3995 -3.57614 2.6618 -35.2494 -3.78668 2.69653 -35.1859 -3.96808 
2.81704 -35.1605 -4.07173 2.94573 -35.116 -4.27256 3.11731 -35.1033 -4.30009 
3.32975 -35.1464 -4.38755 3.62389 -34.711 -3.67655 3.6341 -35.106 -4.15595 
3.71172 -35.0181 -3.95998 3.57691 -34.7346 -3.70409 3.59529 -34.833 -3.82232 
3.60142 -34.955 -4.02962 3.28884 -35.0758 -3.07041 3.28897 -35.0756 -3.06522 
3.29372 -35.0701 -2.97384 3.2963 -35.0601 -2.95242 3.29889 -35.0501 -2.93097 
3.30562 -35.0208 -2.87435 3.30722 -35.0162 -2.86529 3.31157 -34.9984 -2.84796 
3.29094 -35.0135 -4.2839 2.93348 -35.0344 -4.28066 2.67954 -35.2926 -3.69932 
2.53312 -35.1047 -3.91949 2.56784 -35.1555 -3.70409 2.6903 -35.2137 -3.66967 
2.65757 -35.2925 -3.67397 2.66816 -35.2881 -3.69938 2.66898 -35.2876 -3.70125 
2.63525 -35.0797 -4.06687 2.62926 -35.3731 -3.36605 2.64099 -35.3451 -3.44283 
2.66149 -35.277 -3.43736 2.53107 -35.1773 -3.58424 2.30842 -35.1732 -3.68303 
2.22672 -35.2485 -3.73648 2.29821 -35.2367 -3.91625 2.39626 -35.2231 -4.09765 
2.53107 -35.2095 -4.27256 2.70266 -35.1977 -4.42318 2.90896 -35.1918 -4.52684 
3.13774 -35.1904 -4.56895 3.39103 -35.4385 -4.64507 2.9253 -35.3578 -4.52684 
3.14387 -35.3587 -4.56733 2.72921 -35.3591 -4.42804 2.56171 -35.3655 -4.2839 
2.4269 -35.3745 -4.11708 2.32272 -35.3836 -3.94055 2.24714 -35.3922 -3.75753 
2.38605 -35.2498 -3.49192 2.5086 -35.2548 -3.60205 2.63743 -35.3525 -3.46545 
2.6369 -35.354 -3.45886 2.63614 -35.3569 -3.44609 2.24102 -35.3147 -3.5486 
2.67283 -35.2895 -3.70054 3.35018 -35.2367 -4.47663 3.73215 -35.1002 -4.08307 
3.62389 -35.175 -4.26285 3.68108 -34.8421 -3.82394 3.45639 -34.9967 -4.18996 
3.29008 -35.0748 -3.04207 3.29198 -35.0726 -3.00587 3.29361 -35.0706 -2.97481 
3.29974 -35.0465 -2.92333 3.30274 -35.0334 -2.89832 3.11118 -35.0217 -4.31305 
2.7721 -35.0548 -4.19482 2.46367 -35.1274 -3.77211 2.66997 -35.2072 -3.66522 
2.64138 -35.2798 -3.69275 2.66897 -35.2587 -3.51299 2.66222 -35.2753 -3.44546 
2.64342 -35.2326 -3.55832 2.41668 -35.1482 -3.62797 3.36652 -35.1859 -4.53817 
3.55853 -35.277 -4.51388 3.37673 -35.4594 -4.59486 3.36243 -35.3541 -4.53979 
2.61074 -35.3052 -3.58262 2.64145 -35.3418 -3.50914 2.34519 -35.2471 -3.67817 
2.60461 -35.2095 -3.84661 2.64955 -35.1614 -4.07011 2.78436 -35.1364 -4.19158 
2.93552 -35.1564 -4.38107 3.12957 -35.1509 -4.41671 3.51154 -35.2049 -4.38269 
3.72194 -34.9704 -3.9859 3.52176 -35.058 -4.32925 3.33996 -35.0779 -4.43128 
2.91918 -35.0875 -4.42318 2.57397 -35.1178 -4.18025 2.45345 -35.1373 -4.01505 
2.68386 -35.2207 -3.6412 2.65629 -35.2939 -3.66833 2.72921 -35.0992 -4.32439 
2.66995 -35.2553 -3.52603 2.36766 -35.1564 -3.84823 3.12753 -35.082 -4.46205 
3.54627 -35.1537 -4.43776 3.581 -35.3881 -4.53655 2.93143 -35.2412 -4.46529 
2.74351 -35.2466 -4.36974 3.13978 -35.2407 -4.50416 2.58214 -35.2584 -4.22883 
2.45345 -35.2729 -4.06363 2.35745 -35.2884 -3.89358 2.288 -35.3024 -3.72028 
2.42077 -35.2303 -3.63768 2.64389 -35.3334 -3.54199 2.54333 -35.1863 -3.92597 
2.54946 -35.233 -3.72514 3.7199 -35.1791 -4.19482 3.60551 -35.2621 -4.34706 
3.75462 -35.0571 -4.10898 3.66474 -35.0394 -4.19644 2.68154 -35.2224 -3.6334 
2.68011 -35.2279 -3.63523 2.65234 -35.3068 -3.62607 2.67749 -35.2341 -3.59389 
2.67153 -35.25 -3.5448 3.65453 -35.2231 -4.40375 3.5524 -35.4104 -4.49283 
3.51972 -35.3142 -4.45072 2.64456 -35.3312 -3.54988 2.40647 -35.2285 -3.83851 
2.46979 -35.2095 -3.78183 2.61074 -35.1872 -4.15595 2.75985 -35.1686 -4.29038 
3.66883 -35.1251 -4.31305 2.68026 -35.2268 -3.61894 2.64549 -35.3288 -3.55871 
2.64789 -35.3209 -3.58643 2.67323 -35.2456 -3.56105 3.70355 -35.2761 -4.3746 
2.49226 -35.2081 -3.99885 3.75054 -35.1455 -4.22721 3.67087 -35.302 -4.33735 
3.36035 -34.9186 -2.76575 3.35789 -34.9502 -2.79209 3.35536 -34.9775 -2.81907 
3.34801 -35.0235 -2.86302 3.34439 -35.0545 -2.92084 3.33644 -35.0783 -2.97243 
3.34039 -35.0839 -3.03928 3.3442 -35.0879 -3.09305 3.34522 -35.0596 -3.15204 
3.35306 -35.0335 -3.21823 3.36113 -35.0034 -3.27439 3.37059 -34.9657 -3.32999 
3.37981 -34.9279 -3.38031 3.37703 -34.9619 -3.39489 3.3678 -34.9997 -3.34457 
3.35835 -35.0374 -3.28898 3.35028 -35.0674 -3.23281 3.34244 -35.0936 -3.16663 
3.34141 -35.1219 -3.10763 3.33712 -35.1221 -3.04256 3.33243 -35.1248 -2.97558 
3.33988 -35.1077 -2.92136 3.34297 -35.0841 -2.8601 3.35002 -35.044 -2.81069 
3.35235 -35.0202 -2.7805 3.35464 -34.9974 -2.74893 3.36108 -34.9611 -2.70419 
3.0962 -35.4053 -3.32386 

CELLS 2502 12510
4 995 904 903 962
4 910 971 816 911
4 159 117 86 141
4 194 215 122 168
4 595 641 528 526
4 309 300 325 289
4 768 769 711 728
4 95 94 129 40
4 667 681 831 624
4 823 758 911 822
4 138 97 118 158
4 520 491 606 551
4 275 307 310 308
4 914 913 825 755
4 819 968 905 818
4 382 384 372 361
4 597 644 641 558
4 1 18 13 36
4 315 352 314 359
4 756 913 814 755
4 275 310 291 308
4 891 852 892 936
4 25 22 12 84
4 913 756 824 825
4 4 1 36 112
4 852 865 747 804
4 972 816 912 815
4 335 350 361 372
4 531 507 495 564
4 478 545 1017 511
4 888 993 948 934
4 371 384 383 322
4 826 864 754 827
4 864 914 826 754
4 910 758 911 816
4 751 807 750 675
4 600 498 603 636
4 371 342 322 383
4 550 551 606 518
4 763 675 591 638
4 389 385 326 364
4 957 869 965 932
4 976 828 937 945
4 953 944 942 990
4 822 910 758 911
4 753 864 766 827
4 332 290 263 348
4 634 506 645 598
4 240 239 1027 256
4 635 634 589 497
4 758 823 911 757
4 818 910 759 908
4 679 762 725 719
4 659 609 573 538
4 245 289 263 273
4 106 95 129 40
4 26 16 34 17
4 829 722 764 807
4 724 644 680 558
4 1002 993 959 992
4 962 994 958 903
4 630 531 629 520
4 896 809 856 897
4 712 768 803 745
4 984 998 945 999
4 758 910 759 817
4 630 531 520 604
4 681 667 831 767
4 251 208 298 286
4 803 866 948 977
4 87 155 157 138
4 817 903 816 969
4 812 752 920 858
4 791 930 881 1009
4 847 729 885 800
4 292 267 252 298
4 1013 731 732 655
4 753 766 727 827
4 733 832 777 876
4 551 670 606 671
4 891 960 890 935
4 646 626 715 550
4 646 668 550 667
4 432 383 446 421
4 870 926 956 771
4 644 766 680 726
4 803 865 747 851
4 921 865 893 853
4 424 385 428 449
4 307 347 310 308
4 726 644 766 830
4 450 370 395 392
4 411 370 430 410
4 32 53 105 33
4 726 864 753 812
4 72 105 58 33
4 28 29 21 50
4 679 725 723 642
4 593 499 554 523
4 597 678 642 557
4 662 739 692 1007
4 391 349 347 369
4 268 217 225 259
4 250 275 272 231
4 864 753 754 827
4 424 385 425 428
4 118 115 66 97
4 291 346 331 308
4 903 816 969 971
4 121 136 210 161
4 291 276 331 311
4 544 512 577 611
4 425 410 428 394
4 411 370 450 430
4 472 525 474 503
4 334 303 311 346
4 507 605 587 521
4 37 88 6 113
4 372 384 371 350
4 311 346 291 334
4 250 291 331 308
4 452 411 471 451
4 27 14 9 19
4 143 1027 189 240
4 368 334 303 365
4 74 101 1031 102
4 318 1025 279 295
4 699 655 653 700
4 272 231 271 229
4 639 554 500 523
4 364 427 363 393
4 791 884 883 1008
4 207 255 258 286
4 133 177 202 187
4 25 105 83 16
4 64 67 44 43
4 349 370 392 395
4 135 137 198 178
4 250 232 206 288
4 263 200 273 244
4 68 44 31 91
4 361 322 350 324
4 12 51 84 22
4 876 780 799 733
4 390 365 334 368
4 290 263 348 309
4 427 364 363 408
4 325 309 344 326
4 65 92 86 48
4 942 944 859 907
4 621 609 538 534
4 420 371 384 383
4 106 129 84 40
4 353 352 359 405
4 206 160 202 187
4 661 798 704 797
4 1030 194 168 151
4 385 408 364 449
4 500 423 523 499
4 157 87 138 96
4 109 48 92 107
4 189 188 282 234
4 324 350 361 312
4 183 160 118 133
4 346 306 311 331
4 198 216 135 242
4 523 473 502 500
4 183 202 133 138
4 70 24 47 29
4 141 131 185 132
4 3 11 113 15
4 461 444 462 1032
4 511 513 1017 514
4 412 396 420 372
4 53 59 26 34
4 594 523 504 524
4 135 129 153 95
4 232 270 222 247
4 183 142 182 158
4 1 8 18 35
4 562 602 521 587
4 1005 736 661 689
4 349 310 369 333
4 276 250 331 288
4 276 306 331 311
4 4 0 1 112
4 915 947 811 975
4 35 2 36 5
4 832 922 955 953
4 789 838 1014 1013
4 345 303 344 365
4 422 467 421 407
4 153 62 93 95
4 793 703 794 1006
4 459 534 510 547
4 268 259 266 304
4 7 26 59 36
4 330 344 303 325
4 169 151 170 1031
4 222 247 270 226
4 361 324 312 321
4 25 128 105 58
4 71 28 50 10
4 152 166 111 197
4 85 95 106 62
4 389 390 385 428
4 85 28 106 50
4 839 1012 789 840
4 695 790 928 1010
4 847 885 869 932
4 744 608 622 650
4 634 506 676 645
4 776 1013 775 696
4 495 464 434 453
4 3 113 88 120
4 93 28 85 61
4 675 750 676 722
4 1007 661 662 1006
4 500 502 523 469
4 975 889 993 940
4 925 876 873 875
4 799 708 657 780
4 432 407 383 421
4 1015 613 614 570
4 809 963 945 939
4 995 894 950 962
4 13 26 36 18
4 910 818 759 817
4 557 594 723 556
4 0 112 3 2
4 755 826 914 754
4 453 475 468 507
4 758 910 817 816
4 1022 315 356 353
4 508 464 532 565
4 958 949 962 894
4 1012 839 789 1013
4 980 988 1001 990
4 360 335 382 373
4 1014 697 698 576
4 572 512 537 1016
4 262 270 303 269
4 970 819 944 909
4 1017 544 542 543
4 780 876 657 733
4 816 972 902 815
4 623 549 648 578
4 122 215 241 162
4 833 875 734 735
4 993 888 948 977
4 463 454 489 462
4 490 532 549 489
4 635 676 637 674
4 655 654 653 700
4 673 634 674 676
4 905 970 952 968
4 27 60 9 38
4 380 381 1023 356
4 783 694 695 1009
4 126 125 77 147
4 258 188 241 162
4 9 14 5 19
4 951 868 869 932
4 384 350 372 361
4 1007 703 792 793
4 7 89 36 59
4 655 1014 699 570
4 9 6 35 2
4 619 1015 618 576
4 957 950 868 886
4 556 639 677 592
4 347 349 310 369
4 520 518 551 519
4 363 407 362 388
4 873 876 923 733
4 566 579 532 549
4 335 396 382 373
4 593 639 591 638
4 551 606 672 671
4 646 670 551 627
4 1002 902 972 901
4 678 830 642 765
4 550 646 669 715
4 16 52 59 53
4 1008 791 1009 931
4 51 4 10 12
4 648 624 728 681
4 799 744 682 709
4 591 593 497 554
4 864 753 812 754
4 973 912 815 972
4 646 670 627 714
4 913 756 815 824
4 531 495 453 464
4 476 464 532 508
4 994 958 902 972
4 47 96 65 42
4 971 994 902 972
4 471 505 451 555
4 962 949 995 894
4 913 756 825 755
4 826 755 914 825
4 507 564 465 495
4 621 609 659 538
4 603 498 563 602
4 814 913 813 755
4 945 997 935 986
4 973 815 901 972
4 823 912 757 824
4 972 816 902 971
4 913 914 813 755
4 626 646 715 713
4 566 579 624 647
4 987 991 963 945
4 725 723 762 679
4 389 365 390 368
4 914 754 813 755
4 546 545 515 616
4 812 752 726 920
4 556 592 677 643
4 914 812 754 864
4 812 914 754 813
4 913 973 814 813
4 766 644 680 724
4 864 726 753 766
4 293 356 315 1024
4 851 978 993 948
4 865 892 852 936
4 726 753 766 680
4 641 596 505 526
4 529 506 599 559
4 451 471 524 502
4 425 428 502 469
4 428 471 410 502
4 644 724 641 558
4 641 724 640 558
4 389 365 385 390
4 638 643 592 591
4 680 640 724 558
4 640 680 724 727
4 716 748 676 673
4 766 724 680 727
4 753 766 680 727
4 896 722 828 862
4 488 510 548 547
4 829 722 807 854
4 667 681 647 646
4 853 865 804 747
4 544 1016 574 543
4 551 606 628 672
4 453 475 433 468
4 566 579 647 565
4 602 498 588 633
4 453 531 464 508
4 487 400 442 436
4 506 634 599 559
4 688 687 658 573
4 397 419 396 373
4 468 507 495 453
4 803 768 867 745
4 443 444 461 1032
4 722 895 807 854
4 363 448 447 388
4 520 521 587 605
4 762 638 643 677
4 476 464 508 453
4 520 531 564 604
4 655 1013 789 1014
4 720 675 750 676
4 495 445 434 496
4 445 453 434 396
4 606 551 628 585
4 667 805 850 767
4 720 675 676 637
4 961 891 936 984
4 402 1020 374 441
4 646 626 668 713
4 501 407 467 447
4 601 507 605 587
4 639 554 591 592
4 142 97 98 139
4 676 806 673 749
4 969 995 904 903
4 748 676 673 749
4 521 587 586 552
4 498 495 507 521
4 716 634 676 645
4 889 975 898 940
4 721 762 810 763
4 493 520 492 465
4 563 498 475 530
4 807 673 676 806
4 521 587 632 631
4 587 521 586 631
4 498 507 468 475
4 634 506 598 559
4 563 498 530 602
4 426 383 342 371
4 587 507 562 561
4 498 507 475 530
4 562 602 498 521
4 652 610 730 651
4 601 507 587 561
4 587 507 521 562
4 752 863 830 920
4 498 562 521 507
4 383 432 446 371
4 924 955 953 832
4 407 432 383 426
4 446 433 420 412
4 464 476 532 463
4 168 121 126 167
4 744 729 682 650
4 374 1020 400 441
4 413 487 400 441
4 453 468 433 445
4 396 453 433 445
4 495 468 453 445
4 488 510 509 548
4 498 560 475 529
4 735 772 658 683
4 969 908 818 968
4 973 964 992 959
4 453 445 434 495
4 477 476 489 532
4 434 464 476 453
4 445 444 397 496
4 520 491 465 464
4 606 531 464 629
4 629 606 520 464
4 998 997 945 986
4 400 487 442 441
4 465 507 521 605
4 968 819 908 818
4 969 818 910 817
4 189 188 143 282
4 541 545 1017 1018
4 393 388 363 367
4 397 398 443 406
4 950 962 957 995
4 599 498 636 590
4 702 663 695 664
4 932 956 869 965
4 550 647 565 646
4 602 562 498 530
4 36 5 1 35
4 402 1020 441 415
4 648 649 623 607
4 632 602 521 588
4 676 673 637 718
4 821 910 908 759
4 759 908 760 818
4 573 657 708 687
4 768 624 712 831
4 822 759 910 821
4 483 546 478 487
4 968 904 905 818
4 900 813 973 974
4 968 909 819 970
4 912 823 757 911
4 964 973 900 901
4 867 894 950 949
4 259 266 304 261
4 821 760 908 820
4 1019 539 545 516
4 745 768 867 711
4 252 208 233 298
4 876 925 873 954
4 399 455 435 442
4 944 922 942 859
4 624 667 712 831
4 948 888 803 977
4 886 801 950 868
4 950 951 957 868
4 459 621 534 547
4 728 681 624 768
4 506 638 497 676
4 890 747 936 935
4 866 894 867 949
4 624 566 681 648
4 745 801 711 867
4 924 1003 981 979
4 769 768 711 867
4 934 959 992 964
4 291 346 369 333
4 859 966 922 942
4 971 994 995 903
4 889 978 975 993
4 962 950 957 933
4 497 638 637 676
4 975 811 915 857
4 803 831 768 712
4 817 903 969 904
4 491 549 532 579
4 949 995 894 950
4 814 900 813 973
4 904 968 951 969
4 848 886 801 950
4 994 971 902 903
4 553 498 599 590
4 757 912 911 816
4 972 911 816 971
4 958 977 949 894
4 894 803 867 848
4 944 953 942 922
4 624 768 712 745
4 951 957 869 952
4 581 550 582 627
4 968 904 951 905
4 995 969 904 951
4 942 944 907 990
4 891 960 935 984
4 769 868 801 847
4 803 768 866 867
4 894 950 962 933
4 867 868 801 769
4 870 926 955 956
4 996 953 955 966
4 768 624 831 681
4 624 728 768 711
4 624 711 768 745
4 488 442 455 517
4 624 648 728 666
4 634 553 589 497
4 579 532 491 565
4 636 560 498 599
4 454 463 489 476
4 518 492 520 465
4 551 491 606 518
4 646 550 669 627
4 848 886 950 933
4 994 977 958 1002
4 491 520 606 464
4 865 978 851 948
4 579 566 624 549
4 978 935 889 898
4 624 728 711 666
4 464 606 491 565
4 638 592 639 591
4 606 646 550 565
4 495 498 507 468
4 946 896 828 917
4 1012 789 877 1011
4 564 465 520 605
4 807 896 722 855
4 673 717 637 718
4 498 600 475 560
4 602 498 633 636
4 448 422 363 447
4 330 348 344 309
4 240 284 257 1026
4 608 621 609 709
4 498 600 560 636
4 553 506 497 634
4 17 7 26 16
4 497 499 522 467
4 499 448 467 423
4 466 520 493 465
4 471 555 451 524
4 720 676 673 637
4 720 673 717 637
4 635 676 497 637
4 725 762 915 719
4 676 635 497 634
4 348 344 389 345
4 673 676 674 718
4 676 637 674 718
4 896 807 722 895
4 413 439 438 1019
4 545 546 515 478
4 676 807 764 722
4 624 566 648 549
4 531 495 464 465
4 676 720 673 750
4 673 807 676 750
4 624 648 666 549
4 564 507 465 605
4 520 466 494 465
4 714 646 669 627
4 807 722 750 675
4 808 807 751 675
4 723 725 762 765
4 807 806 676 764
4 892 865 852 893
4 531 606 464 565
4 492 518 520 519
4 767 853 849 865
4 606 629 520 585
4 839 789 1013 838
4 678 766 644 830
4 834 734 735 687
4 722 807 855 675
4 855 807 808 675
4 984 983 960 935
4 485 483 486 1019
4 413 483 1020 1019
4 550 647 579 565
4 699 698 1014 741
4 535 573 515 616
4 865 803 747 831
4 511 535 652 568
4 551 583 625 518
4 891 936 935 890
4 936 945 984 935
4 51 83 12 84
4 828 938 937 809
4 939 987 963 945
4 670 646 551 606
4 551 584 519 518
4 570 699 653 576
4 987 939 1000 945
4 627 626 580 550
4 584 551 625 518
4 850 667 849 802
4 963 976 945 991
4 937 896 828 946
4 551 550 583 518
4 551 646 550 606
4 498 562 507 530
4 992 940 964 899
4 986 935 945 939
4 998 1000 945 987
4 831 747 667 712
4 463 397 454 462
4 919 896 918 828
4 986 945 1000 939
4 986 945 998 1000
4 896 917 918 828
4 861 898 809 916
4 863 725 752 765
4 937 963 976 945
4 963 809 945 937
4 643 762 723 719
4 687 834 658 735
4 828 976 937 946
4 896 919 862 828
4 564 465 531 520
4 809 896 938 897
4 896 809 938 828
4 676 807 722 750
4 809 896 856 828
4 856 722 809 828
4 856 675 722 855
4 767 667 865 849
4 863 752 858 920
4 593 591 497 638
4 973 964 959 901
4 767 853 887 849
4 713 667 805 746
4 667 850 849 767
4 713 667 746 668
4 646 668 667 713
4 507 531 495 453
4 681 667 647 624
4 667 647 550 646
4 550 624 647 667
4 809 916 939 945
4 865 893 853 804
4 945 985 936 984
4 921 767 853 887
4 978 935 747 889
4 667 831 767 865
4 548 489 509 488
4 891 936 984 935
4 898 809 916 939
4 667 805 746 802
4 974 899 858 947
4 805 667 850 802
4 985 961 936 984
4 969 971 995 903
4 978 747 851 889
4 984 999 945 985
4 809 722 675 763
4 959 993 934 992
4 803 948 865 851
4 767 921 853 865
4 887 850 767 849
4 752 726 920 830
4 506 498 553 497
4 984 997 983 935
4 814 900 973 901
4 888 948 851 934
4 667 747 865 849
4 865 853 849 747
4 893 865 852 804
4 915 898 861 916
4 852 865 936 747
4 936 978 935 747
4 978 936 865 747
4 831 803 768 866
4 948 803 865 866
4 515 545 535 616
4 803 865 866 831
4 591 762 638 643
4 769 710 649 770
4 546 459 515 478
4 898 978 975 889
4 545 515 535 478
4 945 997 984 935
4 675 637 591 638
4 975 992 940 993
4 992 934 940 993
4 975 857 898 940
4 973 964 900 992
4 902 1002 958 959
4 579 566 532 565
4 889 934 993 940
4 597 596 678 557
4 851 889 934 993
4 948 851 934 993
4 851 978 889 993
4 362 363 388 301
4 863 858 947 920
4 939 935 945 916
4 898 810 915 861
4 726 642 830 752
4 920 914 812 974
4 858 812 974 920
4 726 864 812 920
4 512 570 569 612
4 443 397 444 1032
4 641 558 595 528
4 978 898 975 916
4 898 861 809 810
4 975 899 992 947
4 899 975 992 940
4 857 975 898 915
4 857 898 810 915
4 975 898 915 916
4 935 939 898 916
4 828 916 809 945
4 815 973 901 814
4 810 857 915 719
4 603 498 602 636
4 936 945 935 916
4 876 799 926 682
4 545 535 616 620
4 947 915 811 863
4 916 828 809 861
4 993 1002 959 977
4 978 936 935 916
4 978 935 898 916
4 722 809 828 763
4 828 809 861 763
4 591 497 638 637
4 282 320 279 285
4 554 593 639 591
4 558 505 641 597
4 425 410 502 428
4 425 424 428 469
4 473 425 502 469
4 810 861 763 762
4 810 915 861 762
4 905 904 951 957
4 424 449 470 408
4 675 763 591 721
4 762 721 810 719
4 721 762 591 719
4 411 450 431 452
4 721 762 763 591
4 810 915 762 719
4 638 506 497 593
4 675 676 637 638
4 722 675 763 638
4 762 591 638 763
4 591 762 643 719
4 726 642 644 830
4 675 809 763 721
4 899 992 947 974
4 639 556 677 594
4 638 643 677 592
4 638 592 677 639
4 1011 787 696 786
4 810 763 809 721
4 763 810 809 861
4 535 545 577 620
4 594 557 527 556
4 725 863 752 811
4 813 858 812 974
4 947 811 858 863
4 974 913 813 973
4 899 974 858 900
4 973 815 913 814
4 643 679 719 723
4 677 556 643 723
4 644 597 678 642
4 725 723 642 765
4 951 950 957 995
4 899 857 975 940
4 723 678 642 765
4 762 643 723 677
4 679 762 719 723
4 813 858 974 900
4 642 644 830 678
4 812 914 813 974
4 644 597 641 678
4 724 644 641 678
4 641 597 596 678
4 752 725 642 765
4 830 752 642 765
4 811 719 725 915
4 762 863 725 915
4 913 974 813 914
4 545 544 1017 577
4 811 719 915 857
4 752 863 858 811
4 915 863 725 811
4 958 888 977 894
4 899 857 811 975
4 1002 902 958 972
4 864 830 726 766
4 830 864 726 920
4 863 765 752 830
4 993 959 934 888
4 811 947 858 899
4 975 899 947 811
4 934 992 940 964
4 899 992 974 964
4 974 992 900 964
4 899 974 900 964
4 957 995 962 904
4 959 993 977 888
4 497 676 634 506
4 912 757 815 816
4 873 875 833 925
4 758 757 911 816
4 973 1002 972 901
4 902 1002 959 901
4 932 956 885 869
4 971 910 816 969
4 815 901 972 902
4 977 994 958 949
4 211 213 1029 214
4 347 310 308 369
4 610 779 688 707
4 957 933 950 886
4 816 902 971 903
4 894 950 933 848
4 958 994 902 903
4 756 913 815 814
4 757 756 824 815
4 912 757 824 815
4 913 912 824 815
4 912 973 815 913
4 2 36 0 88
4 817 910 969 816
4 779 610 688 658
4 820 761 909 860
4 867 894 848 950
4 949 958 962 994
4 962 949 994 995
4 875 834 735 874
4 922 966 955 953
4 334 346 291 333
4 478 479 1017 480
4 803 745 867 848
4 745 801 867 848
4 263 326 348 309
4 888 948 803 851
4 977 959 958 1002
4 959 977 958 888
4 894 866 867 803
4 894 977 866 888
4 977 894 866 949
4 803 866 977 888
4 866 894 888 803
4 876 955 832 926
4 868 867 801 950
4 867 950 848 801
4 801 711 867 769
4 392 450 429 395
4 366 329 342 387
4 424 470 423 408
4 345 303 365 368
4 596 597 505 557
4 288 229 272 247
4 390 346 334 409
4 365 390 334 386
4 334 368 303 346
4 527 596 505 557
4 289 290 263 273
4 250 231 229 206
4 365 345 389 344
4 370 334 333 409
4 273 221 200 245
4 291 276 250 331
4 432 407 447 426
4 346 311 291 331
4 369 349 333 370
4 291 346 308 369
4 291 369 310 333
4 391 349 392 395
4 369 291 310 308
4 990 907 943 944
4 364 449 408 427
4 348 330 344 345
4 657 799 733 682
4 346 390 334 368
4 262 222 226 220
4 451 425 410 502
4 556 639 504 594
4 370 369 409 333
4 370 450 430 392
4 639 556 500 592
4 391 349 369 392
4 448 408 363 423
4 369 349 370 392
4 502 523 469 470
4 597 641 596 505
4 432 498 468 475
4 640 641 558 595
4 430 370 392 409
4 526 471 505 503
4 391 392 429 395
4 429 431 450 472
4 428 424 449 470
4 369 346 392 409
4 346 369 333 409
4 369 370 409 392
4 498 529 475 506
4 371 387 366 342
4 362 426 388 407
4 412 420 371 372
4 370 450 395 411
4 738 884 791 1008
4 553 506 634 599
4 411 450 395 431
4 431 429 450 395
4 424 428 469 470
4 426 388 407 447
4 474 505 452 503
4 471 526 505 555
4 324 292 312 298
4 263 290 287 244
4 505 596 555 526
4 343 332 367 301
4 216 255 210 161
4 452 450 471 411
4 527 596 594 555
4 450 472 431 503
4 642 556 723 679
4 523 423 469 470
4 505 451 555 527
4 450 452 471 503
4 450 411 430 471
4 471 505 503 452
4 596 527 505 555
4 309 300 263 326
4 450 431 452 503
4 431 474 452 503
4 431 472 474 503
4 639 556 504 500
4 640 641 595 526
4 505 528 641 526
4 558 505 528 641
4 525 595 528 526
4 499 593 522 523
4 474 505 503 526
4 525 474 503 526
4 525 528 474 526
4 474 528 505 526
4 678 723 642 557
4 498 432 468 421
4 642 556 557 723
4 557 594 527 596
4 643 679 723 556
4 348 367 343 332
4 411 430 471 410
4 411 471 451 410
4 430 370 409 410
4 688 620 610 707
4 383 426 432 371
4 128 111 166 127
4 506 497 593 522
4 343 393 348 364
4 1014 613 570 656
4 501 448 467 522
4 269 309 325 289
4 275 307 308 272
4 370 334 409 394
4 370 409 410 394
4 386 425 428 394
4 334 333 409 346
4 385 389 428 449
4 228 231 229 271
4 385 390 386 428
4 385 386 425 428
4 390 334 386 394
4 334 390 409 394
4 390 386 428 394
4 409 390 428 394
4 409 410 428 430
4 410 409 428 394
4 523 504 524 473
4 371 384 322 350
4 366 329 327 342
4 448 499 467 522
4 523 423 448 499
4 965 956 869 952
4 593 554 639 523
4 365 390 386 385
4 527 504 451 524
4 555 527 451 524
4 523 594 504 639
4 524 527 594 555
4 504 594 527 556
4 594 504 527 524
4 428 502 469 470
4 471 451 410 502
4 451 425 502 473
4 473 524 451 504
4 524 473 451 502
4 639 504 523 500
4 639 554 592 500
4 473 502 500 469
4 448 423 422 467
4 790 695 694 1009
4 422 467 407 447
4 422 448 467 447
4 593 499 497 554
4 499 593 497 522
4 554 499 500 523
4 407 501 467 421
4 448 523 499 522
4 471 428 410 430
4 362 383 426 407
4 469 424 470 423
4 281 234 1025 279
4 151 169 150 1031
4 506 497 522 501
4 303 345 344 330
4 385 389 449 364
4 362 329 388 387
4 433 432 468 475
4 344 389 385 326
4 263 332 302 287
4 423 448 422 363
4 288 308 250 331
4 6 35 37 9
4 329 260 268 323
4 184 131 109 154
4 433 446 432 412
4 351 335 360 373
4 322 361 350 384
4 365 389 385 344
4 345 365 389 368
4 343 393 364 363
4 389 364 348 393
4 703 842 1007 792
4 446 433 432 468
4 383 362 426 342
4 498 529 506 599
4 522 497 467 501
4 135 95 94 129
4 216 136 197 171
4 329 332 287 301
4 248 221 273 289
4 1027 194 1028 239
4 501 407 447 432
4 498 506 553 599
4 769 868 847 770
4 87 132 157 155
4 447 363 407 422
4 498 560 529 599
4 501 421 497 467
4 506 432 498 421
4 363 447 407 388
4 274 287 290 244
4 506 421 501 432
4 329 362 388 301
4 362 426 342 387
4 448 501 467 447
4 1003 980 1001 1004
4 14 27 9 20
4 287 274 290 305
4 282 1025 254 234
4 3 113 6 88
4 427 389 364 449
4 315 318 1024 356
4 230 204 218 175
4 388 393 363 427
4 328 366 322 371
4 505 471 451 452
4 371 420 384 372
4 328 322 350 371
4 610 568 652 535
4 342 371 322 366
4 446 432 412 371
4 342 362 387 329
4 342 362 329 301
4 371 387 342 426
4 420 433 445 396
4 446 445 433 468
4 420 433 396 412
4 343 393 363 367
4 309 269 325 330
4 268 217 218 246
4 363 448 388 427
4 332 329 367 301
4 302 348 263 326
4 448 449 408 470
4 322 328 350 324
4 388 363 367 301
4 363 343 367 301
4 329 388 367 301
4 249 262 227 243
4 348 344 326 389
4 326 389 364 348
4 348 302 263 332
4 470 408 448 423
4 449 448 408 427
4 448 408 427 363
4 249 221 289 264
4 274 268 260 218
4 348 302 332 343
4 16 53 26 34
4 348 343 364 326
4 348 302 343 326
4 367 348 343 393
4 267 328 304 261
4 246 274 230 218
4 184 230 175 204
4 342 329 327 323
4 329 342 301 323
4 332 290 305 287
4 290 332 263 287
4 302 301 287 332
4 264 249 262 289
4 329 260 287 305
4 329 332 305 287
4 259 304 299 261
4 129 85 95 106
4 242 179 216 135
4 44 31 64 45
4 221 248 249 289
4 269 226 262 270
4 246 268 274 218
4 181 138 157 155
4 274 287 244 260
4 301 260 329 323
4 200 230 218 175
4 204 184 172 175
4 268 329 323 327
4 44 67 30 91
4 217 173 201 225
4 305 287 274 260
4 268 305 274 260
4 263 290 244 273
4 226 227 262 220
4 303 330 269 306
4 5 8 1 35
4 289 262 325 269
4 344 309 348 326
4 231 228 229 186
4 109 92 140 134
4 202 160 133 187
4 200 244 230 273
4 111 167 73 121
4 271 275 272 307
4 229 250 288 272
4 230 290 273 244
4 276 270 232 288
4 289 245 221 273
4 306 345 303 330
4 346 303 306 368
4 174 132 185 131
4 206 247 202 229
4 183 229 160 202
4 143 122 194 241
4 272 250 231 229
4 323 268 299 260
4 308 288 250 272
4 92 93 85 61
4 217 268 225 246
4 250 308 275 291
4 308 250 275 272
4 183 228 186 229
4 275 271 272 231
4 138 133 115 96
4 250 229 288 206
4 290 289 263 309
4 66 133 110 115
4 200 263 273 245
4 48 47 65 29
4 223 173 225 180
4 231 186 229 206
4 49 92 29 48
4 179 178 242 224
4 512 544 570 612
4 322 323 327 299
4 181 157 132 155
4 229 206 160 202
4 249 264 262 243
4 175 109 184 172
4 47 86 65 108
4 108 87 157 96
4 202 232 222 247
4 245 289 264 263
4 285 282 188 234
4 232 202 206 247
4 186 183 229 160
4 186 229 206 160
4 249 262 269 227
4 202 138 155 133
4 1028 194 237 238
4 263 289 264 300
4 262 289 325 300
4 262 289 300 264
4 276 303 306 311
4 270 303 276 265
4 248 200 176 203
4 177 220 226 222
4 249 221 264 243
4 330 303 269 325
4 86 47 65 48
4 155 87 133 138
4 242 261 223 219
4 174 155 181 132
4 155 174 181 177
4 269 226 227 262
4 248 273 200 230
4 1025 253 254 234
4 250 232 288 276
4 245 289 221 264
4 221 273 200 248
4 220 177 226 174
4 226 202 222 247
4 227 181 174 226
4 270 262 303 265
4 181 174 132 185
4 177 226 174 181
4 227 181 185 174
4 270 222 226 262
4 187 222 202 232
4 303 346 306 311
4 124 111 167 73
4 269 306 270 303
4 325 303 269 262
4 345 306 303 368
4 85 95 62 153
4 227 220 243 262
4 226 220 174 227
4 303 270 276 306
4 270 276 306 288
4 270 276 232 265
4 846 661 691 1005
4 374 353 402 400
4 177 226 202 222
4 270 232 222 265
4 247 232 288 206
4 202 177 155 181
4 222 187 202 177
4 51 28 22 10
4 221 248 200 176
4 20 9 38 27
4 185 157 141 132
4 185 174 131 199
4 19 5 9 35
4 118 183 133 138
4 130 85 134 153
4 92 140 116 86
4 19 5 8 14
4 131 185 205 159
4 48 49 92 85
4 106 51 84 50
4 29 42 24 47
4 116 65 92 86
4 220 227 243 199
4 143 282 188 241
4 59 7 89 12
4 174 227 220 199
4 111 210 167 121
4 233 277 321 278
4 973 959 1002 901
4 227 249 243 199
4 279 282 1025 318
4 203 199 131 176
4 185 157 132 181
4 141 117 86 108
4 322 327 366 328
4 203 199 248 205
4 200 248 230 203
4 199 203 131 205
4 249 221 243 199
4 81 55 127 80
4 132 87 157 108
4 153 85 134 93
4 118 133 115 138
4 160 202 133 183
4 288 229 247 206
4 177 133 202 155
4 181 138 155 202
4 96 110 87 133
4 87 133 138 96
4 87 108 47 96
4 118 183 138 158
4 304 328 299 261
4 285 258 188 241
4 63 43 64 114
4 66 133 115 118
4 233 277 298 321
4 146 123 1031 100
4 139 158 142 97
4 142 160 183 186
4 153 156 173 137
4 158 139 142 182
4 71 28 10 99
4 97 142 98 118
4 142 183 182 186
4 142 183 118 158
4 160 142 183 118
4 97 118 158 142
4 92 49 29 61
4 216 135 136 171
4 107 48 92 85
4 980 1003 988 924
4 176 248 199 221
4 199 248 249 221
4 323 322 327 342
4 116 65 86 117
4 65 86 117 108
4 227 249 199 205
4 92 109 140 86
4 199 185 227 205
4 30 39 23 67
4 93 134 92 85
4 69 45 24 68
4 9 60 11 23
4 108 47 96 65
4 108 96 117 65
4 134 107 92 85
4 131 185 199 205
4 109 92 134 107
4 309 289 263 300
4 132 108 157 141
4 131 184 109 159
4 248 176 199 203
4 131 141 185 159
4 140 184 159 109
4 109 134 140 130
4 141 96 117 108
4 116 86 140 159
4 131 86 141 159
4 185 199 227 174
4 217 260 268 218
4 244 274 260 218
4 197 167 111 210
4 176 131 203 154
4 203 159 131 205
4 156 153 173 130
4 108 131 141 132
4 159 117 116 86
4 86 140 159 109
4 131 86 159 109
4 173 180 201 225
4 154 200 203 176
4 268 323 299 327
4 292 261 328 267
4 322 261 299 328
4 198 223 178 173
4 244 200 230 218
4 178 242 224 223
4 246 204 217 218
4 268 259 304 299
4 274 244 230 218
4 261 292 324 298
4 435 443 461 454
4 260 217 268 259
4 230 200 203 175
4 94 197 171 152
4 218 172 204 217
4 277 335 312 321
4 135 216 136 179
4 136 216 210 161
4 121 136 111 210
4 204 246 230 218
4 184 203 154 175
4 85 62 28 93
4 130 173 156 201
4 48 65 92 29
4 871 833 735 925
4 152 111 94 197
4 90 15 69 119
4 692 661 1007 693
4 136 94 197 171
4 179 216 136 161
4 532 566 549 489
4 201 246 204 217
4 225 268 259 266
4 161 210 121 215
4 130 85 107 134
4 93 156 153 137
4 179 178 135 242
4 128 25 152 58
4 172 201 173 130
4 156 93 153 134
4 130 134 140 156
4 135 153 137 95
4 201 172 204 140
4 327 268 304 299
4 140 130 156 201
4 201 172 173 217
4 266 223 267 261
4 156 173 180 201
4 223 198 242 219
4 201 172 217 204
4 270 232 288 247
4 198 223 173 219
4 190 1026 189 1027
4 156 173 137 180
4 173 178 137 180
4 178 173 137 198
4 198 223 242 178
4 178 135 242 198
4 140 172 109 130
4 140 172 184 109
4 251 298 267 286
4 259 266 219 225
4 217 259 219 225
4 266 223 219 225
4 173 223 225 219
4 173 217 219 225
4 312 328 292 324
4 64 45 41 66
4 49 92 85 61
4 266 259 219 261
4 266 267 304 261
4 268 260 259 299
4 327 342 322 366
4 223 266 219 261
4 267 224 286 223
4 277 312 298 321
4 384 382 372 420
4 312 324 298 321
4 965 941 952 906
4 261 292 328 324
4 208 258 298 286
4 509 477 455 488
4 405 356 353 402
4 399 517 455 442
4 285 233 298 321
4 179 286 224 242
4 161 255 215 162
4 255 258 215 162
4 318 340 1024 356
4 39 38 23 67
4 208 252 251 298
4 233 208 285 298
4 607 623 622 649
4 312 328 324 350
4 135 153 171 198
4 207 224 286 251
4 71 4 51 89
4 216 136 210 197
4 255 207 258 162
4 282 285 188 241
4 241 240 143 282
4 335 361 312 321
4 285 208 258 298
4 267 298 261 286
4 25 22 84 40
4 179 255 161 207
4 282 279 1025 234
4 179 242 216 255
4 298 251 267 252
4 208 251 207 286
4 277 292 252 298
4 277 252 233 298
4 298 267 261 292
4 608 567 622 650
4 944 860 907 943
4 129 94 171 152
4 58 40 25 152
4 111 94 197 136
4 208 207 258 286
4 224 207 286 179
4 179 242 255 286
4 207 179 255 286
4 223 242 224 286
4 224 267 286 251
4 286 223 261 267
4 255 179 161 216
4 277 360 335 321
4 18 1 13 8
4 166 152 111 128
4 188 233 285 234
4 12 10 51 22
4 1 0 36 112
4 282 285 279 234
4 111 152 94 58
4 51 89 4 52
4 85 129 95 153
4 152 111 128 58
4 58 40 152 94
4 136 111 210 197
4 731 696 655 1013
4 54 33 105 72
4 94 135 129 171
4 255 210 161 215
4 129 135 153 171
4 153 135 137 198
4 135 94 136 171
4 216 198 135 171
4 23 20 9 38
4 203 131 184 154
4 172 218 204 175
4 167 197 111 166
4 84 128 25 152
4 109 175 184 154
4 128 84 25 83
4 71 51 52 89
4 790 928 1010 879
4 128 25 105 83
4 74 77 56 57
4 77 74 76 57
4 82 53 32 34
4 710 623 728 649
4 215 194 122 241
4 207 255 161 162
4 109 134 130 107
4 48 109 92 86
4 1027 240 257 1026
4 281 1025 280 279
4 143 190 189 1027
4 122 161 215 162
4 282 143 189 240
4 143 162 241 188
4 90 120 113 15
4 1030 196 195 151
4 100 126 122 74
4 882 791 1008 931
4 319 282 1025 296
4 215 258 241 162
4 606 520 551 585
4 208 285 258 188
4 1025 318 1024 295
4 319 1024 318 317
4 468 421 432 446
4 1027 143 194 240
4 694 781 1008 782
4 59 16 53 26
4 695 785 1010 836
4 188 233 208 285
4 258 208 188 162
4 240 1027 257 256
4 207 208 258 162
4 210 168 121 215
4 168 210 121 167
4 83 51 12 52
4 114 98 43 64
4 7 89 12 4
4 120 71 89 112
4 62 85 28 106
4 52 59 89 12
4 71 51 10 50
4 1013 655 789 696
4 84 25 83 12
4 16 7 26 59
4 28 49 85 61
4 89 7 36 4
4 71 15 10 3
4 129 94 152 40
4 11 3 113 6
4 51 4 12 52
4 982 955 996 924
4 52 25 16 12
4 83 25 52 12
4 40 25 152 84
4 872 982 832 876
4 7 4 1 36
4 89 4 36 112
4 797 660 661 706
4 89 52 12 4
4 115 110 66 41
4 112 10 4 3
4 84 129 152 40
4 40 28 84 106
4 99 28 10 21
4 71 4 10 51
4 84 28 22 51
4 88 3 112 2
4 1 13 7 36
4 876 799 682 733
4 127 55 72 124
4 928 929 1010 879
4 143 1028 192 191
4 661 797 704 690
4 696 789 701 700
4 162 143 241 122
4 17 7 13 26
4 282 1025 296 297
4 106 95 40 62
4 40 28 106 62
4 85 62 93 153
4 95 93 153 137
4 41 24 45 31
4 0 112 2 88
4 96 41 110 115
4 97 66 98 64
4 23 20 38 39
4 996 981 924 1003
4 30 11 91 23
4 1022 1021 353 402
4 11 91 90 31
4 1 18 36 35
4 4 71 112 89
4 8 19 18 35
4 27 19 9 37
4 67 63 64 30
4 60 27 9 37
4 5 9 35 2
4 69 15 70 119
4 36 5 2 1
4 44 31 30 64
4 988 924 953 980
4 96 110 133 115
4 548 534 547 510
4 24 70 15 29
4 6 35 2 88
4 11 6 113 37
4 63 43 67 64
4 41 96 110 42
4 67 64 44 30
4 1014 788 699 742
4 110 66 41 45
4 24 46 47 42
4 46 87 47 42
4 120 10 71 112
4 523 504 473 500
4 114 97 98 64
4 97 114 98 139
4 43 66 64 98
4 43 66 44 64
4 47 87 96 42
4 29 50 99 21
4 110 42 96 87
4 45 87 42 110
4 115 66 97 41
4 97 66 64 41
4 42 110 41 45
4 0 36 112 88
4 340 357 1024 356
4 981 924 923 982
4 11 9 6 37
4 3 88 6 2
4 44 68 31 45
4 31 64 45 41
4 35 6 37 88
4 48 47 29 70
4 31 91 44 30
4 19 9 37 35
4 83 16 52 25
4 113 11 90 15
4 67 23 30 91
4 678 594 557 596
4 3 88 112 120
4 11 30 91 31
4 38 91 23 67
4 91 38 23 60
4 50 70 29 99
4 38 9 23 60
4 60 9 11 37
4 70 50 29 49
4 124 167 126 73
4 84 28 51 106
4 113 11 37 90
4 11 60 37 90
4 51 28 10 50
4 28 40 84 22
4 105 83 16 53
4 49 28 29 61
4 49 28 85 50
4 28 51 106 50
4 2 36 1 0
4 2 35 36 88
4 3 4 112 0
4 120 10 112 3
4 71 4 112 10
4 120 10 3 71
4 156 153 130 134
4 1012 789 1011 696
4 167 121 126 73
4 25 105 16 33
4 99 28 21 50
4 70 46 24 69
4 52 16 59 12
4 28 49 29 50
4 15 113 3 120
4 56 126 77 74
4 25 58 105 33
4 71 119 15 120
4 119 71 15 99
4 335 350 312 361
4 21 29 15 99
4 99 10 15 21
4 15 71 10 99
4 56 78 126 79
4 90 24 15 11
4 694 1008 1009 782
4 77 126 76 74
4 24 90 15 69
4 32 53 33 34
4 91 90 31 68
4 402 374 400 441
4 70 24 15 69
4 49 48 29 70
4 703 738 740 791
4 70 15 29 99
4 24 90 69 68
4 90 31 68 24
4 90 31 24 11
4 54 127 105 81
4 69 45 46 24
4 45 24 42 46
4 68 45 24 31
4 24 41 45 42
4 663 703 694 662
4 577 511 652 611
4 615 1016 570 571
4 423 500 523 469
4 662 703 1007 1006
4 890 747 852 936
4 738 841 791 884
4 791 883 882 1008
4 73 56 124 55
4 570 576 653 612
4 703 841 791 1007
4 661 692 1007 662
4 702 791 790 694
4 143 1027 194 1028
4 402 376 353 375
4 1009 694 782 835
4 790 1011 789 695
4 878 790 1011 789
4 32 16 17 34
4 783 695 784 1010
4 55 127 72 54
4 703 740 662 1007
4 551 646 627 550
4 125 104 79 78
4 33 16 34 53
4 149 148 126 74
4 677 556 723 594
4 151 1030 1031 100
4 127 54 105 72
4 1007 661 1006 693
4 58 127 111 128
4 76 148 75 126
4 121 168 126 122
4 143 1027 1028 191
4 1007 703 793 1006
4 1031 126 100 74
4 195 194 1030 151
4 151 122 126 168
4 397 462 444 1032
4 56 124 55 80
4 661 796 690 704
4 148 75 126 74
4 126 73 56 124
4 72 124 73 111
4 615 1015 614 570
4 148 103 75 74
4 704 703 662 1006
4 704 743 798 705
4 704 843 1005 844
4 149 126 1031 74
4 150 126 1031 149
4 1031 196 1030 151
4 662 704 1006 661
4 461 454 477 435
4 126 100 122 151
4 78 126 79 125
4 536 512 569 612
4 147 77 126 76
4 703 694 738 791
4 1005 704 845 846
4 704 1005 845 844
4 703 794 1006 795
4 704 703 1006 795
4 1006 843 1005 704
4 512 536 511 611
4 796 661 690 691
4 798 706 661 705
4 16 83 52 53
4 397 443 454 1032
4 79 124 56 80
4 1019 545 478 483
4 846 661 1005 704
4 703 740 1007 791
4 477 476 454 489
4 1006 736 737 661
4 796 704 797 690
4 53 82 32 105
4 796 661 846 704
4 693 1006 737 661
4 55 81 127 54
4 661 798 705 704
4 463 454 434 476
4 545 478 1017 1018
4 7 26 36 13
4 736 1006 1005 661
4 691 1005 661 689
4 1006 704 1005 661
4 577 512 511 611
4 577 535 652 511
4 127 58 111 72
4 164 143 1029 163
4 111 127 124 166
4 71 15 3 120
4 59 12 16 7
4 54 105 82 81
4 532 463 489 490
4 111 124 167 166
4 211 213 194 1029
4 103 1031 102 74
4 103 148 149 74
4 32 16 34 33
4 213 1030 194 1029
4 75 76 126 74
4 126 151 1031 100
4 740 662 1007 739
4 146 1030 145 100
4 126 121 122 74
4 123 101 1031 100
4 143 1028 193 192
4 173 137 198 153
4 121 126 73 74
4 1030 146 1031 100
4 211 194 237 1029
4 194 122 1030 168
4 194 1028 237 1029
4 1030 144 145 100
4 702 694 703 791
4 194 195 1030 212
4 1030 213 194 212
4 1030 143 194 1029
4 789 655 700 696
4 194 143 1028 1029
4 165 143 1029 164
4 1028 143 193 1029
4 143 163 193 1029
4 144 143 1030 165
4 151 122 1030 100
4 122 151 1030 168
4 1030 143 100 122
4 165 143 1030 1029
4 143 1030 194 122
4 73 126 56 74
4 695 702 790 694
4 423 523 448 470
4 663 702 695 694
4 694 781 738 1008
4 194 1028 239 238
4 189 282 240 1026
4 881 790 1009 880
4 791 881 790 1009
4 738 791 694 1008
4 841 740 791 1007
4 841 738 791 740
4 707 652 610 730
4 695 785 784 1010
4 880 790 1010 879
4 791 790 694 1009
4 791 694 1008 1009
4 189 1026 209 236
4 358 380 1023 356
4 189 235 1026 236
4 772 610 730 707
4 282 319 1025 318
4 1027 189 240 1026
4 235 234 189 1026
4 789 1012 877 840
4 1026 190 189 209
4 695 783 1009 1010
4 790 1009 880 1010
4 790 695 1009 1010
4 297 1026 282 1025
4 284 240 283 1026
4 1025 282 254 1026
4 282 189 234 1026
4 254 282 234 1026
4 1026 297 282 283
4 240 282 283 1026
4 772 658 610 779
4 55 72 124 73
4 33 54 105 32
4 774 696 775 1012
4 621 546 459 659
4 941 965 952 956
4 105 32 54 82
4 46 70 24 47
4 511 513 512 1017
4 16 105 53 33
4 127 55 124 80
4 687 688 658 834
4 105 72 58 127
4 127 58 105 128
4 101 74 1031 100
4 1019 545 1018 478
4 732 1014 655 684
4 357 339 356 1023
4 397 443 444 406
4 1014 684 685 655
4 1025 280 279 295
4 1014 732 655 1013
4 549 623 648 666
4 1015 697 1014 570
4 545 541 1017 542
4 789 877 1011 878
4 337 315 338 1023
4 928 695 1010 1011
4 1010 695 836 1011
4 318 279 1024 295
4 1014 613 1015 570
4 315 352 359 353
4 1019 478 413 483
4 734 834 875 780
4 622 567 649 650
4 708 621 609 659
4 1016 513 1017 512
4 1016 513 512 537
4 610 772 730 683
4 682 771 926 777
4 512 1016 571 570
4 1018 458 413 457
4 544 545 1017 542
4 926 729 682 799
4 796 661 691 846
4 582 551 550 583
4 549 491 532 490
4 541 545 1018 540
4 1020 417 402 1021
4 234 278 233 285
4 72 124 111 127
4 772 779 735 658
4 654 570 653 569
4 319 1024 1025 318
4 666 710 728 711
4 868 869 932 847
4 1014 699 570 576
4 610 730 651 683
4 551 582 550 627
4 609 659 573 708
4 375 402 1020 374
4 1017 478 480 1018
4 376 1020 402 1021
4 490 464 532 463
4 520 518 491 551
4 649 648 623 728
4 573 657 609 708
4 459 517 487 546
4 478 480 1018 481
4 439 374 414 1020
4 460 440 415 1020
4 786 695 1011 837
4 789 788 1014 838
4 374 401 414 1020
4 483 485 1020 1019
4 374 375 401 1020
4 440 418 415 1020
4 621 459 538 659
4 487 517 436 442
4 728 769 710 649
4 353 374 402 375
4 923 876 872 733
4 655 1014 789 699
4 875 734 657 733
4 436 517 399 442
4 483 484 1020 485
4 621 608 609 534
4 648 578 549 566
4 419 396 382 445
4 659 459 538 515
4 1022 416 1021 402
4 1015 697 570 576
4 618 1015 617 576
4 1013 1012 775 696
4 777 870 926 832
4 659 546 515 616
4 658 772 610 683
4 545 535 577 511
4 567 510 548 509
4 442 402 400 441
4 622 548 607 567
4 404 1022 403 402
4 403 1022 379 402
4 279 1024 295 294
4 620 610 652 535
4 413 478 1018 481
4 697 1015 619 576
4 459 659 546 515
4 659 538 573 515
4 483 482 486 1019
4 544 1017 1016 543
4 1017 545 577 511
4 483 413 487 478
4 572 512 1016 571
4 544 1017 512 1016
4 686 655 1014 685
4 573 659 515 616
4 610 620 652 707
4 546 483 478 545
4 697 1014 570 576
4 512 577 1017 544
4 1016 1015 570 576
4 70 15 99 119
4 544 1016 575 574
4 439 413 1020 1019
4 818 969 904 817
4 871 925 735 874
4 570 653 569 612
4 437 413 438 1019
4 517 459 436 456
4 620 688 610 616
4 610 573 616 688
4 789 1012 1013 696
4 1018 413 481 457
4 570 544 576 612
4 834 688 658 779
4 437 458 413 1019
4 483 516 482 1019
4 1016 615 570 1015
4 539 1019 545 1018
4 789 655 699 700
4 1019 478 1018 413
4 539 1018 545 540
4 837 695 1011 836
4 790 927 1011 928
4 790 1011 695 928
4 1011 789 695 696
4 1012 787 773 696
4 742 1014 741 699
4 731 696 1013 776
4 400 353 402 405
4 1015 1016 617 576
4 570 544 1016 576
4 544 570 1016 512
4 1016 544 575 576
4 1016 575 617 576
4 698 699 1014 576
4 695 702 664 701
4 655 654 700 665
4 701 665 696 700
4 695 789 790 701
4 702 695 790 701
4 789 695 696 701
4 696 695 664 701
4 11 91 23 60
4 570 655 654 653
4 699 570 653 655
4 696 655 700 665
4 665 701 696 664
4 708 659 573 688
4 687 688 708 573
4 535 577 652 620
4 868 886 801 847
4 728 769 711 710
4 729 744 649 650
4 876 682 777 733
4 535 573 616 610
4 573 659 616 688
4 925 735 874 875
4 535 545 478 511
4 479 511 1017 514
4 577 512 1017 511
4 535 610 616 620
4 819 761 944 909
4 868 869 847 770
4 567 607 622 649
4 511 536 568 611
4 568 610 652 651
4 512 544 612 611
4 652 511 568 611
4 610 772 779 707
4 610 573 688 658
4 536 512 612 611
4 988 966 942 953
4 834 779 735 874
4 874 772 735 871
4 771 770 847 869
4 872 982 876 923
4 734 834 735 875
4 834 779 658 735
4 623 710 622 649
4 834 734 687 780
4 957 932 868 951
4 780 687 708 657
4 957 951 869 932
4 926 729 771 682
4 799 657 733 780
4 532 464 491 565
4 772 874 735 779
4 666 710 623 728
4 711 769 801 710
4 771 847 729 885
4 847 769 710 801
4 886 868 932 847
4 729 710 847 770
4 926 876 682 777
4 734 687 780 657
4 710 800 729 847
4 710 800 744 729
4 875 734 780 657
4 876 875 780 657
4 799 729 744 800
4 729 799 744 682
4 657 799 682 709
4 335 321 360 382
4 876 873 875 733
4 517 459 487 436
4 609 682 709 657
4 733 832 876 872
4 885 799 729 926
4 885 729 771 926
4 517 399 455 456
4 621 708 609 709
4 609 682 608 709
4 708 799 657 709
4 609 708 657 709
4 771 847 885 869
4 97 138 118 115
4 799 885 729 800
4 483 413 1020 441
4 955 876 832 982
4 954 923 876 981
4 981 924 979 923
4 406 397 351 373
4 832 777 876 926
4 979 980 1003 1004
4 876 873 923 954
4 876 875 657 733
4 548 533 489 578
4 770 771 847 729
4 923 982 876 981
4 873 875 733 833
4 875 733 833 734
4 970 859 922 944
4 981 996 924 982
4 335 372 361 382
4 1020 376 402 375
4 970 952 941 906
4 418 1020 402 415
4 970 905 952 906
4 956 869 771 885
4 870 777 926 771
4 520 521 605 465
4 803 747 831 712
4 869 870 956 771
4 819 908 760 909
4 982 872 832 924
4 91 11 90 60
4 277 292 298 312
4 980 989 1001 1004
4 924 988 953 996
4 435 443 442 461
4 1003 988 924 996
4 1003 980 988 1001
4 955 924 953 996
4 819 905 970 906
4 941 970 859 922
4 455 442 461 435
4 517 510 488 547
4 970 819 859 944
4 909 968 819 908
4 622 547 534 621
4 566 578 489 533
4 357 358 1023 356
4 335 361 321 382
4 318 341 317 1024
4 413 459 487 478
4 478 459 487 546
4 413 459 436 487
4 436 517 456 399
4 621 459 534 538
4 578 622 548 607
4 547 622 534 548
4 744 710 729 649
4 356 339 315 1023
4 1022 404 416 402
4 442 399 398 435
4 400 399 405 442
4 402 442 400 405
4 293 356 316 315
4 353 315 356 359
4 314 320 360 278
4 318 315 1024 279
4 279 293 1024 294
4 293 279 1024 315
4 315 339 338 1023
4 462 496 397 444
4 1020 413 400 441
4 340 318 1024 341
4 374 413 1020 439
4 374 413 400 1020
4 489 454 461 462
4 413 487 436 400
4 769 847 710 770
4 360 406 351 373
4 353 399 405 400
4 356 316 315 339
4 357 293 356 316
4 356 405 353 359
4 378 354 1022 353
4 354 355 1022 353
4 416 417 1021 402
4 496 462 397 463
4 443 461 454 1032
4 944 761 860 909
4 413 483 487 441
4 315 1022 356 1023
4 378 1022 1021 353
4 355 336 1022 353
4 1022 315 337 1023
4 402 376 1021 353
4 483 460 1020 484
4 415 483 1020 441
4 378 1021 377 353
4 353 376 1021 377
4 336 315 1022 353
4 315 336 1022 337
4 606 565 550 491
4 356 1022 353 402
4 379 356 1022 381
4 434 445 396 397
4 710 729 649 770
4 353 399 352 405
4 436 399 400 442
4 320 282 279 318
4 279 278 285 320
4 318 315 279 320
4 314 359 406 360
4 318 359 315 320
4 359 318 315 356
4 747 831 667 865
4 534 622 608 567
4 546 621 459 547
4 548 534 510 567
4 623 578 648 607
4 622 534 548 567
4 578 622 607 623
4 489 566 533 477
4 532 566 489 477
4 459 517 546 547
4 608 744 682 650
4 728 666 648 623
4 517 510 459 456
4 510 517 459 547
4 996 966 988 953
4 744 608 709 622
4 608 621 709 622
4 622 534 608 621
4 744 608 682 709
4 922 966 953 942
4 982 955 924 832
4 869 957 965 952
4 988 967 990 942
4 922 956 952 870
4 649 744 622 650
4 744 649 622 710
4 78 56 126 77
4 965 905 906 952
4 968 905 951 952
4 951 905 957 952
4 957 905 965 952
4 970 906 941 859
4 955 941 922 956
4 922 952 941 970
4 966 922 955 941
4 922 956 941 952
4 606 550 518 491
4 970 819 906 859
4 688 780 687 708
4 870 869 956 952
4 956 926 885 771
4 926 832 870 955
4 942 988 953 990
4 988 980 953 990
4 713 667 646 767
4 322 261 328 324
4 859 761 944 819
4 405 442 398 443
4 922 955 956 870
4 335 396 372 382
4 396 420 372 382
4 922 832 955 870
4 489 509 488 477
4 533 548 489 509
4 461 477 455 435
4 314 360 351 313
4 78 126 125 77
4 335 351 360 313
4 226 177 202 181
4 488 461 489 477
4 607 566 578 648
4 1001 990 967 989
4 819 760 761 909
4 533 567 548 509
4 489 509 477 533
4 532 463 476 489
4 567 533 548 607
4 533 548 607 578
4 322 327 328 299
4 761 859 944 907
4 760 908 820 909
4 820 761 760 909
4 908 819 760 818
4 578 566 489 549
4 443 435 442 398
4 241 240 194 143
4 488 461 477 455
4 510 488 509 455
4 442 488 455 461
4 510 517 488 455
4 517 510 456 455
4 496 397 434 463
4 399 352 405 398
4 399 405 442 398
4 435 397 443 454
4 398 405 406 352
4 359 314 320 360
4 454 489 461 477
4 444 397 406 419
4 396 419 382 373
4 382 406 373 419
4 314 360 313 278
4 463 397 434 454
4 396 445 420 382
4 352 314 359 406
4 352 359 405 406
4 405 398 406 443
4 397 398 406 351
4 352 314 406 351
4 360 277 313 278
4 397 406 419 373
4 382 406 360 373
4 406 314 360 351
4 398 352 406 351
4 445 397 419 396
4 360 277 335 313
4 833 875 735 925
4 199 248 205 249
4 550 565 579 491
4 315 314 320 359
4 279 314 278 320
4 279 314 320 315
4 320 321 360 278
4 321 277 360 278
4 285 321 320 278
4 234 278 285 279
4 285 233 321 278
4 967 988 990 1001
4 172 140 184 204
4 565 464 531 508
4 501 407 432 421
4 907 942 990 967
4 516 545 1019 483
4 646 626 550 668
4 863 762 725 765
4 594 678 557 723
4 667 681 646 767
4 445 446 433 420
4 997 998 945 984
4 856 722 896 855
4 520 464 465 531
4 944 761 907 860
4 200 154 203 175
4 858 974 947 920
4 520 464 531 629
4 122 161 121 215
4 397 435 443 398
4 722 856 896 828
4 989 980 1001 990
4 943 967 990 989
4 967 943 990 907
4 962 994 903 995
4 421 506 501 497
4 498 506 421 497
4 262 289 249 269
4 270 222 262 265
4 669 626 550 715
4 463 495 434 496
4 434 464 463 476
4 464 490 532 491
4 780 688 687 834
4 518 520 491 465
4 703 841 1007 842
4 607 566 533 578
4 703 663 694 702
4 1006 843 704 795
4 774 696 1012 773
4 417 1020 402 418
4 822 759 758 910
4 302 301 332 343
4 150 126 151 1031
4 230 290 244 274
4 958 1002 972 994
4 520 552 521 494
4 465 564 531 495
4 706 798 661 797
4 872 982 923 924
4 76 148 126 147
4 675 856 722 809
4 45 87 46 42
4 182 186 183 228
4 521 602 498 588
4 703 738 662 740
4 891 852 936 890
4 968 819 905 970
4 895 722 896 862
4 1031 196 151 170
4 5 19 8 35
4 465 507 495 521
4 523 473 524 502
4 914 920 812 864
4 674 634 635 676
4 498 600 603 475
4 747 978 851 865
4 809 945 937 828
4 766 678 644 724
4 791 930 1009 931
4 656 655 1014 686
4 987 991 945 998
4 201 246 217 225
4 660 797 661 690
4 201 172 140 130
4 232 202 187 206
4 973 959 992 1002
4 454 461 462 1032
4 118 98 97 66
4 357 316 356 339
4 460 483 1020 415
4 143 144 1030 100
4 627 580 581 550
4 566 647 624 681
4 288 306 331 276
4 90 120 15 119
4 479 511 478 1017
4 159 203 131 184
4 293 357 356 1024
4 458 1018 413 1019
4 30 39 67 63
4 1022 356 1023 381
4 379 356 402 1022
4 908 969 818 910
4 328 327 304 299
4 29 42 47 65
4 131 108 141 86
4 695 786 1011 696
4 444 445 397 419
4 173 178 180 223
4 420 371 383 446
4 787 1011 696 1012
4 420 412 371 446
4 624 550 647 579
4 235 234 1026 254
4 223 286 261 242
4 426 362 388 387
4 911 972 816 912
4 969 818 904 968
4 71 28 99 50
4 667 713 805 767
4 859 966 941 922
4 656 655 570 1014
4 896 937 828 938
4 821 760 759 908
4 434 445 397 496
4 240 239 194 1027
4 506 475 498 432
4 494 521 520 465
4 980 979 1003 924
4 64 45 66 44
4 587 602 521 632
4 397 454 462 1032
4 552 520 521 587
4 385 408 449 424
4 143 190 1027 191
4 184 230 203 175
4 498 603 563 475
4 309 325 344 330
4 309 300 326 325
4 790 878 1011 927
4 788 789 1014 699
4 141 96 108 157
4 124 79 56 126
4 121 168 122 215
4 871 833 778 735
4 675 676 638 722
4 495 463 434 464
4 703 694 662 738
4 260 329 268 305
4 301 260 287 329
4 673 634 676 716
4 389 427 364 393
4 932 957 868 886
4 957 995 904 951
4 281 234 253 1025
4 627 626 550 669
4 783 694 1009 835
4 778 772 735 683
4 778 772 871 735
4 900 973 992 974
4 103 1031 74 149

CELL_TYPES 2502
10
10
10
10
10
10
10
10
10
10
10
10
10
10
10
10
10
10
10
10
10
10
10
10
10
10
10
10
10
10
10
10
10
10
10
10
10
10
10
10
10
10
10
10
10
10
10
10
10
10
10
10
10
10
10
10
10
10
10
10
10
10
10
10
10
10
10
10
10
10
10
10
10
10
10
10
10
10
10
10
10
10
10
10
10
10
10
10
10
10
10
10
10
10
10
10
10
10
10
10
10
10
10
10
10
10
10
10
10
10
10
10
10
10
10
10
10
10
10
10
10
10
10
10
10
10
10
10
10
10
10
10
10
10
10
10
10
10
10
10
10
10
10
10
10
10
10
10
10
10
10
10
10
10
10
10
10
10
10
10
10
10
10
10
10
10
10
10
10
10
10
10
10
10
10
10
10
10
10
10
10
10
10
10
10
10
10
10
10
10
10
10
10
10
10
10
10
10
10
10
10
10
10
10
10
10
10
10
10
10
10
10
10
10
10
10
10
10
10
10
10
10
10
10
10
10
10
10
10
10
10
10
10
10
10
10
10
10
10
10
10
10
10
10
10
10
10
10
10
10
10
10
10
10
10
10
10
10
10
10
10
10
10
10
10
10
10
10
10
10
10
10
10
10
10
10
10
10
10
10
10
10
10
10
10
10
10
10
10
10
10
10
10
10
10
10
10
10
10
10
10
10
10
10
10
10
10
10
10
10
10
10
10
10
10
10
10
10
10
10
10
10
10
10
10
10
10
10
10
10
10
10
10
10
10
10
10
10
10
10
10
10
10
10
10
10
10
10
10
10
10
10
10
10
10
10
10
10
10
10
10
10
10
10
10
10
10
10
10
10
10
10
10
10
10
10
10
10
10
10
10
10
10
10
10
10
10
10
10
10
10
10
10
10
10
10
10
10
10
10
10
10
10
10
10
10
10
10
10
10
10
10
10
10
10
10
10
10
10
10
10
10
10
10
10
10
10
10
10
10
10
10
10
10
10
10
10
10
10
10
10
10
10
10
10
10
10
10
10
10
10
10
10
10
10
10
10
10
10
10
10
10
10
10
10
10
10
10
10
10
10
10
10
10
10
10
10
10
10
10
10
10
10
10
10
10
10
10
10
10
10
10
10
10
10
10
10
10
10
10
10
10
10
10
10
10
10
10
10
10
10
10
10
10
10
10
10
10
10
10
10
10
10
10
10
10
10
10
10
10
10
10
10
10
10
10
10
10
10
10
10
10
10
10
10
10
10
10
10
10
10
10
10
10
10
10
10
10
10
10
10
10
10
10
10
10
10
10
10
10
10
10
10
10
10
10
10
10
10
10
10
10
10
10
10
10
10
10
10
10
10
10
10
10
10
10
10
10
10
10
10
10
10
10
10
10
10
10
10
10
10
10
10
10
10
10
10
10
10
10
10
10
10
10
10
10
10
10
10
10
10
10
10
10
10
10
10
10
10
10
10
10
10
10
10
10
10
10
10
10
10
10
10
10
10
10
10
10
10
10
10
10
10
10
10
10
10
10
10
10
10
10
10
10
10
10
10
10
10
10
10
10
10
10
10
10
10
10
10
10
10
10
10
10
10
10
10
10
10
10
10
10
10
10
10
10
10
10
10
10
10
10
10
10
10
10
10
10
10
10
10
10
10
10
10
10
10
10
10
10
10
10
10
10
10
10
10
10
10
10
10
10
10
10
10
10
10
10
10
10
10
10
10
10
10
10
10
10
10
10
10
10
10
10
10
10
10
10
10
10
10
10
10
10
10
10
10
10
10
10
10
10
10
10
10
10
10
10
10
10
10
10
10
10
10
10
10
10
10
10
10
10
10
10
10
10
10
10
10
10
10
10
10
10
10
10
10
10
10
10
10
10
10
10
10
10
10
10
10
10
10
10
10
10
10
10
10
10
10
10
10
10
10
10
10
10
10
10
10
10
10
10
10
10
10
10
10
10
10
10
10
10
10
10
10
10
10
10
10
10
10
10
10
10
10
10
10
10
10
10
10
10
10
10
10
10
10
10
10
10
10
10
10
10
10
10
10
10
10
10
10
10
10
10
10
10
10
10
10
10
10
10
10
10
10
10
10
10
10
10
10
10
10
10
10
10
10
10
10
10
10
10
10
10
10
10
10
10
10
10
10
10
10
10
10
10
10
10
10
10
10
10
10
10
10
10
10
10
10
10
10
10
10
10
10
10
10
10
10
10
10
10
10
10
10
10
10
10
10
10
10
10
10
10
10
10
10
10
10
10
10
10
10
10
10
10
10
10
10
10
10
10
10
10
10
10
10
10
10
10
10
10
10
10
10
10
10
10
10
10
10
10
10
10
10
10
10
10
10
10
10
10
10
10
10
10
10
10
10
10
10
10
10
10
10
10
10
10
10
10
10
10
10
10
10
10
10
10
10
10
10
10
10
10
10
10
10
10
10
10
10
10
10
10
10
10
10
10
10
10
10
10
10
10
10
10
10
10
10
10
10
10
10
10
10
10
10
10
10
10
10
10
10
10
10
10
10
10
10
10
10
10
10
10
10
10
10
10
10
10
10
10
10
10
10
10
10
10
10
10
10
10
10
10
10
10
10
10
10
10
10
10
10
10
10
10
10
10
10
10
10
10
10
10
10
10
10
10
10
10
10
10
10
10
10
10
10
10
10
10
10
10
10
10
10
10
10
10
10
10
10
10
10
10
10
10
10
10
10
10
10
10
10
10
10
10
10
10
10
10
10
10
10
10
10
10
10
10
10
10
10
10
10
10
10
10
10
10
10
10
10
10
10
10
10
10
10
10
10
10
10
10
10
10
10
10
10
10
10
10
10
10
10
10
10
10
10
10
10
10
10
10
10
10
10
10
10
10
10
10
10
10
10
10
10
10
10
10
10
10
10
10
10
10
10
10
10
10
10
10
10
10
10
10
10
10
10
10
10
10
10
10
10
10
10
10
10
10
10
10
10
10
10
10
10
10
10
10
10
10
10
10
10
10
10
10
10
10
10
10
10
10
10
10
10
10
10
10
10
10
10
10
10
10
10
10
10
10
10
10
10
10
10
10
10
10
10
10
10
10
10
10
10
10
10
10
10
10
10
10
10
10
10
10
10
10
10
10
10
10
10
10
10
10
10
10
10
10
10
10
10
10
10
10
10
10
10
10
10
10
10
10
10
10
10
10
10
10
10
10
10
10
10
10
10
10
10
10
10
10
10
10
10
10
10
10
10
10
10
10
10
10
10
10
10
10
10
10
10
10
10
10
10
10
10
10
10
10
10
10
10
10
10
10
10
10
10
10
10
10
10
10
10
10
10
10
10
10
10
10
10
10
10
10
10
10
10
10
10
10
10
10
10
10
10
10
10
10
10
10
10
10
10
10
10
10
10
10
10
10
10
10
10
10
10
10
10
10
10
10
10
10
10
10
10
10
10
10
10
10
10
10
10
10
10
10
10
10
10
10
10
10
10
10
10
10
10
10
10
10
10
10
10
10
10
10
10
10
10
10
10
10
10
10
10
10
10
10
10
10
10
10
10
10
10
10
10
10
10
10
10
10
10
10
10
10
10
10
10
10
10
10
10
10
10
10
10
10
10
10
10
10
10
10
10
10
10
10
10
10
10
10
10
10
10
10
10
10
10
10
10
10
10
10
10
10
10
10
10
10
10
10
10
10
10
10
10
10
10
10
10
10
10
10
10
10
10
10
10
10
10
10
10
10
10
10
10
10
10
10
10
10
10
10
10
10
10
10
10
10
10
10
10
10
10
10
10
10
10
10
10
10
10
10
10
10
10
10
10
10
10
10
10
10
10
10
10
10
10
10
10
10
10
10
10
10
10
10
10
10
10
10
10
10
10
10
10
10
10
10
10
10
10
10
10
10
10
10
10
10
10
10
10
10
10
10
10
10
10
10
10
10
10
10
10
10
10
10
10
10
10
10
10
10
10
10
10
10
10
10
10
10
10
10
10
10
10
10
10
10
10
10
10
10
10
10
10
10
10
10
10
10
10
10
10
10
10
10
10
10
10
10
10
10
10
10
10
10
10
10
10
10
10
10
10
10
10
10
10
10
10
10
10
10
10
10
10
10
10
10
10
10
10
10
10
10
10
10
10
10
10
10
10
10
10
10
10
10
10
10
10
10
10
10
10
10
10
10
10
10
10
10
10
10
10
10
10
10
10
10
10
10
10
10
10
10
10
10
10
10
10
10
10
10
10
10
10
10
10
10
10
10
10
10
10
10
10
10
10
10
10
10
10
10
10
10
10
10
10
10
10
10
10
10
10
10
10
10
10
10
10
10
10
10
10
10
10
10
10
10
10
10
10
10
10
10
10
10
10
10
10
10
10
10
10
10
10
10
10
10
10
10
10
10
10
10
10
10
10
10
10
10
10
10
10
10
10
10
10
10
10
10
10
10
10
10
10
10
10
10
10
10
10
10
10
10
10
10
10
10
10
10
10
10
10
10
10
10
10
10
10
10
10
10
10
10
10
10
10
10
10
10
10
10
10
10
10
10
10
10
10
10
10
10
10
10
10
10
10
10
10
10
10
10
10
10
10
10
10
10
10
10
10
10
10
10
10
10
10
10
10
10
10
10
10
10
10
10
10
10
10
10
10
10
10
10
10
10
10
10
10
10
10
10
10
10
10
10
10
10
10
10
10
10
10
10
10
10
10
10
10
10
10
10
10
10
10
10
10
10
10
10
10
10
10
10
10
10
10
10
10
10
10
10
10
10
10
10
10
10
10
10
10
10
10
10
10
10
10
10
10
10
10
10
10
10
10
10
10
10
10
10
10
10
10
10
10
10
10
10
10
10
10
10
10
10
10
10
10
10
10
10
10
10
10
10
10
10
10
10
10
10
10
10
10
10
10
10
10
10
10
10
10
10
10
10
10
10
10
10
10
10
10
10
10
10
10
10
10
10
10
10
10
10
10
10
10
10
10
10
10
10
10
10
10
10
10
10
10
10
10
10
10
10
10
10
10
10
10
10
10
10
10
10
10
10
10
10
10
10
10
10
10
10
10
10
10
10
10
10
10
10
10
10
10
10
10
10
10
10
10
10
10
10
10
10
10
10
10
10
10
10
10
10
10
10
10
10
10
10
10
10
10
10
10
10
10
10
10
10
10
10
10
10
10
10
10
10
10
10
10
10
10
10
10
10
10
10
10
10
10
10
10
10
10
10
10
10
10
10
10
10
10
10
10
10
10
10
10
10
10
10
10
10
10
10
10
10
10
10
10
10
10
10
10
10
10
10
10
10
10
10
10
10
10
10
10
10
10
10
10
10
10
10
10
10
10
10
10
10
10
10
10
10
10
10
10
10
10
10
10
10
10
10
10
10
10
10
10
10
10
10
10
10
10
10
10
10
10
10
10
10
10
10
10
10
10
10
10
10
10
10
10
10
10
10
10
10
10
10
10
10
10
10
10
10
10
10
10
10
10
10
10
10
10
10
10
10
10
10
10
10
10
10
10
10
10
10
10
10
10
10
10
10
10
10
10
10
10
10
10
10
10
10
10
10
10
10
10
10
10
10
10
10
10
10
10
10
10
10
10
10
10
10
10
10
10
10
10
10
10
10
10
10
10
10
10
10
10
10
10
10
10
10
10
10
10
10
10
10
10
10
10
10
10
10
10
10
10
10
10
10
10
10
10
10
10
10
10
10
10
10

CELL_DATA 2502
SCALARS part_ids int
LOOKUP_TABLE default
0
0
0
0
0
0
0
0
0
0
0
0
0
0
0
0
0
0
0
0
0
0
0
0
0
0
0
0
0
0
0
0
0
0
0
0
0
0
0
0
0
0
0
0
0
0
0
0
0
0
0
0
0
0
0
0
0
0
0
0
0
0
0
0
0
0
0
0
0
0
0
0
0
0
0
0
0
0
0
0
0
0
0
0
0
0
0
0
0
0
0
0
0
0
0
0
0
0
0
0
0
0
0
0
0
0
0
0
0
0
0
0
0
0
0
0
0
0
0
0
0
0
0
0
0
0
0
0
0
0
0
0
0
0
0
0
0
0
0
0
0
0
0
0
0
0
0
0
0
0
0
0
0
0
0
0
0
0
0
0
0
0
0
0
0
0
0
0
0
0
0
0
0
0
0
0
0
0
0
0
0
0
0
0
0
0
0
0
0
0
0
0
0
0
0
0
0
0
0
0
0
0
0
0
0
0
0
0
0
0
0
0
0
0
0
0
0
0
0
0
0
0
0
0
0
0
0
0
0
0
0
0
0
0
0
0
0
0
0
0
0
0
0
0
0
0
0
0
0
0
0
0
0
0
0
0
0
0
0
0
0
0
0
0
0
0
0
0
0
0
0
0
0
0
0
0
0
0
0
0
0
0
0
0
0
0
0
0
0
0
0
0
0
0
0
0
0
0
0
0
0
0
0
0
0
0
0
0
0
0
0
0
0
0
0
0
0
0
0
0
0
0
0
0
0
0
0
0
0
0
0
0
0
0
0
0
0
0
0
0
0
0
0
0
0
0
0
0
0
0
0
0
0
0
0
0
0
0
0
0
0
0
0
0
0
0
0
0
0
0
0
0
0
0
0
0
0
0
0
0
0
0
0
0
0
0
0
0
0
0
0
0
0
0
0
0
0
0
0
0
0
0
0
0
0
0
0
0
0
0
0
0
0
0
0
0
0
0
0
0
0
0
0
0
0
0
0
0
0
0
0
0
0
0
0
0
0
0
0
0
0
0
0
0
0
0
0
0
0
0
0
0
0
0
0
0
0
0
0
0
0
0
0
0
0
0
0
0
0
0
0
0
0
0
0
0
0
0
0
0
0
0
0
0
0
0
0
0
0
0
0
0
0
0
0
0
0
0
0
0
0
0
0
0
0
0
0
0
0
0
0
0
0
0
0
0
0
0
0
0
0
0
0
0
0
0
0
0
0
0
0
0
0
0
0
0
0
0
0
0
0
0
0
0
0
0
0
0
0
0
0
0
0
0
0
0
0
0
0
0
0
0
0
0
0
0
0
0
0
0
0
0
0
0
0
0
0
0
0
0
0
0
0
0
0
0
0
0
0
0
0
0
0
0
0
0
0
0
0
0
0
0
0
0
0
0
0
0
0
0
0
0
0
0
0
0
0
0
0
0
0
0
0
0
0
0
0
0
0
0
0
0
0
0
0
0
0
0
0
0
0
0
0
0
0
0
0
0
0
0
0
0
0
0
0
0
0
0
0
0
0
0
0
0
0
0
0
0
0
0
0
0
0
0
0
0
0
0
0
0
0
0
0
0
0
0
0
0
0
0
0
0
0
0
0
0
0
0
0
0
0
0
0
0
0
0
0
0
0
0
0
0
0
0
0
0
0
0
0
0
0
0
0
0
0
0
0
0
0
0
0
0
0
0
0
0
0
0
0
0
0
0
0
0
0
0
0
0
0
0
0
0
0
0
0
0
0
0
0
0
0
0
0
0
0
0
0
0
0
0
0
0
0
0
0
0
0
0
0
0
0
0
0
0
0
0
0
0
0
0
0
0
0
0
0
0
0
0
0
0
0
0
0
0
0
0
0
0
0
0
0
0
0
0
0
0
0
0
0
0
0
0
0
0
0
0
0
0
0
0
0
0
0
0
0
0
0
0
0
0
0
0
0
0
0
0
0
0
0
0
0
0
0
0
0
0
0
0
0
0
0
0
0
0
0
0
0
0
0
0
0
0
0
0
0
0
0
0
0
0
0
0
0
0
0
0
0
0
0
0
0
0
0
0
0
0
0
0
0
0
0
0
0
0
0
0
0
0
0
0
0
0
0
0
0
0
0
0
0
0
0
0
0
0
0
0
0
0
0
0
0
0
0
0
0
0
0
0
0
0
0
0
0
0
0
0
0
0
0
0
0
0
0
0
0
0
0
0
0
0
0
0
0
0
0
0
0
0
0
0
0
0
0
0
0
0
0
0
0
0
0
0
0
0
0
0
0
0
0
0
0
0
0
0
0
0
0
0
0
0
0
0
0
0
0
0
0
0
0
0
0
0
0
0
0
0
0
0
0
0
0
0
0
0
0
0
0
0
0
0
0
0
0
0
0
0
0
0
0
0
0
0
0
0
0
0
0
0
0
0
0
0
0
0
0
0
0
0
0
0
0
0
0
0
0
0
0
0
0
0
0
0
0
0
0
0
0
0
0
0
0
0
0
0
0
0
0
0
0
0
0
0
0
0
0
0
0
0
0
0
0
0
0
0
0
0
0
0
0
0
0
0
0
0
0
0
0
0
0
0
0
0
0
0
0
0
0
0
0
0
0
0
0
0
0
0
0
0
0
0
0
0
0
0
0
0
0
0
0
0
0
0
0
0
0
0
0
0
0
0
0
0
0
0
0
0
0
0
0
0
0
0
0
0
0
0
0
0
0
0
0
0
0
0
0
0
0
0
0
0
0
0
0
0
0
0
0
0
0
0
0
0
0
0
0
0
0
0
0
0
0
0
0
0
0
0
0
0
0
0
0
0
0
0
0
0
0
0
0
0
0
0
0
0
0
0
0
0
0
0
0
0
0
0
0
0
0
0
0
0
0
0
0
0
0
0
0
0
0
0
0
0
0
0
0
0
0
0
0
0
0
0
0
0
0
0
0
0
0
0
0
0
0
0
0
0
0
0
0
0
0
0
0
0
0
0
0
0
0
0
0
0
0
0
0
0
0
0
0
0
0
0
0
0
0
0
0
0
0
0
0
0
0
0
0
0
0
0
0
0
0
0
0
0
0
0
0
0
0
0
0
0
0
0
0
0
0
0
0
0
0
0
0
0
0
0
0
0
0
0
0
0
0
0
0
0
0
0
0
0
0
0
0
0
0
0
0
0
0
0
0
0
0
0
0
0
0
0
0
0
0
0
0
0
0
0
0
0
0
0
0
0
0
0
0
0
0
0
0
0
0
0
0
0
0
0
0
0
0
0
0
0
0
0
0
0
0
0
0
0
0
0
0
0
0
0
0
0
0
0
0
0
0
0
0
0
0
0
0
0
0
0
0
0
0
0
0
0
0
0
0
0
0
0
0
0
0
0
0
0
0
0
0
0
0
0
0
0
0
0
0
0
0
0
0
0
0
0
0
0
0
0
0
0
0
0
0
0
0
0
0
0
0
0
0
0
0
0
0
0
0
0
0
0
0
0
0
0
0
0
0
0
0
0
0
0
0
0
0
0
0
0
0
0
0
0
0
0
0
0
0
0
0
0
0
0
0
0
0
0
0
0
0
0
0
0
0
0
0
0
0
0
0
0
0
0
0
0
0
0
0
0
0
0
0
0
0
0
0
0
0
0
0
0
0
0
0
0
0
0
0
0
0
0
0
0
0
0
0
0
0
0
0
0
0
0
0
0
0
0
0
0
0
0
0
0
0
0
0
0
0
0
0
0
0
0
0
0
0
0
0
0
0
0
0
0
0
0
0
0
0
0
0
0
0
0
0
0
0
0
0
0
0
0
0
0
0
0
0
0
0
0
0
0
0
0
0
0
0
0
0
0
0
0
0
0
0
0
0
0
0
0
0
0
0
0
0
0
0
0
0
0
0
0
0
0
0
0
0
0
0
0
0
0
0
0
0
0
0
0
0
0
0
0
0
0
0
0
0
0
0
0
0
0
0
0
0
0
0
0
0
0
0
0
0
0
0
0
0
0
0
0
0
0
0
0
0
0
0
0
0
0
0
0
0
0
0
0
0
0
0
0
0
0
0
0
0
0
0
0
0
0
0
0
0
0
0
0
0
0
0
0
0
0
0
0
0
0
0
0
0
0
0
0
0
0
0
0
0
0
0
0
0
0
0
0
0
0
0
0
0
0
0
0
0
0
0
0
0
0
0
0
0
0
0
0
0
0
0
0
0
0
0
0
0
0
0
0
0
0
0
0
0
0
0
0
0
0
0
0
0
0
0
0
0
0
0
0
0
0
0
0
0
0
0
0
0
0
0
0
0
0
0
0
0
0
0
0
0
0
0
0
0
0
0
0
0
0
0
0
0
0
0
0
0
0
0
0
0
0
0
0
0
0
0
0
0
0
0
0
0
0
0
0
0
0
0
0
0
0
0
0
0
0
0
0
0
0
0
0
0
0
0
0
0
0
0
0
0
0
0
0
0
0
0
0
0
0
0
0
0
0
0
0
0
0
0
0
0
0
0
0
0
0
0
0
0
0
0
0
0
0
0
0
0
0
0
0
0
0
0
0
0
0
0
0
0
0
0
0
0
0
0
0
0
0
0
0
0
0
0
0
0
0
0
0
0
0
0
0
0
0
0
0
0
0
0
0
0
0
0
0
0
0
0
0
0
0
0
0
0
0
0
0
0
0
0
0
0
0
0
0
0
0
0
0
0
0
0
0
0
0
0
0
0
0
0
0
0
0
0
0
0
0
0
0
0
0
0
0
0
0
0
0
0
0
0
0
0
0
0
0
0
0
0
0
0
0
0
0
0
0
0
0
0
0
0
0
0
0
0
0
0
0
0
0
0
0
0
0
0
0
0
0
0
0
0
0
0
0
0
0
0
0
0
0
0
0
0
0
0
0
0
0
0
0
0
0
0
0
0
0
0
0
0
0
0
0
0
0
0
0
0
0
0
0
0
0
0
0
0
0
0
0
0
0
0
0
0
0
0
0
0
0
0
0
0
0
0
0
0
0
0
0
0
0
0
0
0
0
0
0
0
0
0
0
0
0
0
0
0
0
0
0
0
0
0
0
0
0
0
0
0
0
0
0
0
0
0
0
0
0
0
0
0
0
0
0
0
0
0
0
0
0
0
0
0
0
0
0
0
0
0
0
0
0
0
0
0
0
0
0
0
0
0
0
0
0
0
0
0
0
0
0
0
0
0
0
0
0
0
0
0
0
0
0
0
0
0
0
0
0
0
0
0
0
0
0
0
0
0
0
0
0
0
0
0
0
0
0
0
0
0
0
0
0
0
0
0
0
0
0
0
0
0
0
0
0
0
0
0
0
0
0
0
0
0
0
0
0
0
0
0
0
0
0
0
0
0
0
0
0
0
0
0
0
0
0
0
0
0
0
0
0
0
0
0
0
0
0
0
0
0
0
0
0
0
0
0
0
0
0
0
0
0
0
0
0
0
0
0
0
0
0
0
0
0
0
0
0
0
0
0
0
0
0
0
0
0
0
0
0
0
0
0
0
0
0
0
0
0
0
0
0
0
0
0
0
0
0
0
0
0
0
0
0
0
0
0
0
0
0
0
0
0
0
0
0
0
0
0
0
0
0
0
0
0
0
0
0
0
0
0
0
0
0
0
0
0
0
0
0
0
0
0
0
0
0
0
0
0
0
0
0
0
0
0
0
0
0
0
0
0
0
0
0
0
0
0
0
0
0
0
0
0
0
0
0
0
0
0
0
